<?xml version="1.0" encoding="UTF-8" standalone="no"?>
<!-- Created with Inkscape (http://www.inkscape.org/) -->

<svg
   xmlns:dc="http://purl.org/dc/elements/1.1/"
   xmlns:cc="http://creativecommons.org/ns#"
   xmlns:rdf="http://www.w3.org/1999/02/22-rdf-syntax-ns#"
   xmlns:svg="http://www.w3.org/2000/svg"
   xmlns="http://www.w3.org/2000/svg"
   xmlns:sodipodi="http://sodipodi.sourceforge.net/DTD/sodipodi-0.dtd"
   xmlns:inkscape="http://www.inkscape.org/namespaces/inkscape"
   width="1920"
   height="1080"
   viewBox="0 0 507.99999 285.75001"
   version="1.1"
   id="svg8"
   inkscape:version="0.92.2 5c3e80d, 2017-08-06"
   sodipodi:docname="werbegrafik_04.svg"
   inkscape:export-filename="/home/mart-w/bilder/cda_werbung/infowand/02/werbegrafik_02.png"
   inkscape:export-xdpi="96"
   inkscape:export-ydpi="96">
  <defs
     id="defs2">
    <marker
       inkscape:stockid="DotS"
       orient="auto"
       refY="0.0"
       refX="0.0"
       id="DotS"
       style="overflow:visible"
       inkscape:isstock="true">
      <path
         id="path1271"
         d="M -2.5,-1.0 C -2.5,1.7600000 -4.7400000,4.0 -7.5,4.0 C -10.260000,4.0 -12.5,1.7600000 -12.5,-1.0 C -12.5,-3.7600000 -10.260000,-6.0 -7.5,-6.0 C -4.7400000,-6.0 -2.5,-3.7600000 -2.5,-1.0 z "
         style="fill-rule:evenodd;stroke:#dc0067;stroke-width:1pt;stroke-opacity:1;fill:#dc0067;fill-opacity:1"
         transform="scale(0.2) translate(7.4, 1)" />
    </marker>
    <marker
       inkscape:stockid="Arrow2Mend"
       orient="auto"
       refY="0.0"
       refX="0.0"
       id="Arrow2Mend"
       style="overflow:visible;"
       inkscape:isstock="true">
      <path
         id="path1231"
         style="fill-rule:evenodd;stroke-width:0.625;stroke-linejoin:round;stroke:#dc0067;stroke-opacity:1;fill:#dc0067;fill-opacity:1"
         d="M 8.7185878,4.0337352 L -2.2072895,0.016013256 L 8.7185884,-4.0017078 C 6.9730900,-1.6296469 6.9831476,1.6157441 8.7185878,4.0337352 z "
         transform="scale(0.6) rotate(180) translate(0,0)" />
    </marker>
    <marker
       inkscape:stockid="DotL"
       orient="auto"
       refY="0.0"
       refX="0.0"
       id="DotL"
       style="overflow:visible"
       inkscape:isstock="true">
      <path
         id="path1265"
         d="M -2.5,-1.0 C -2.5,1.7600000 -4.7400000,4.0 -7.5,4.0 C -10.260000,4.0 -12.5,1.7600000 -12.5,-1.0 C -12.5,-3.7600000 -10.260000,-6.0 -7.5,-6.0 C -4.7400000,-6.0 -2.5,-3.7600000 -2.5,-1.0 z "
         style="fill-rule:evenodd;stroke:#dc0067;stroke-width:1pt;stroke-opacity:1;fill:#dc0067;fill-opacity:1"
         transform="scale(0.8) translate(7.4, 1)" />
    </marker>
  </defs>
  <sodipodi:namedview
     id="base"
     pagecolor="#ffffff"
     bordercolor="#666666"
     borderopacity="1.0"
     inkscape:pageopacity="0.0"
     inkscape:pageshadow="2"
     inkscape:zoom="0.70710678"
     inkscape:cx="814.58291"
     inkscape:cy="540.10691"
     inkscape:document-units="mm"
     inkscape:current-layer="layer1"
     showgrid="false"
     units="px"
     inkscape:window-width="2560"
     inkscape:window-height="1312"
     inkscape:window-x="0"
     inkscape:window-y="60"
     inkscape:window-maximized="1"
     showguides="true"
     inkscape:guide-bbox="true"
     inkscape:snap-midpoints="true">
    <sodipodi:guide
       position="562.80655,215.06845"
       orientation="0,1"
       id="guide98"
       inkscape:locked="false" />
    <sodipodi:guide
       position="0,0"
       orientation="0,1920"
       id="guide4600"
       inkscape:locked="false" />
    <sodipodi:guide
       position="508,0"
       orientation="-1080,0"
       id="guide4602"
       inkscape:locked="false" />
    <sodipodi:guide
       position="508,285.75"
       orientation="0,-1920"
       id="guide4604"
       inkscape:locked="false" />
    <sodipodi:guide
       position="0,285.75"
       orientation="1080,0"
       id="guide4606"
       inkscape:locked="false" />
    <sodipodi:guide
       position="15.119048,102.05357"
       orientation="1,0"
       id="guide4695"
       inkscape:locked="false" />
    <sodipodi:guide
       position="0,0"
       orientation="0,1920"
       id="guide5127"
       inkscape:locked="false" />
    <sodipodi:guide
       position="508,0"
       orientation="-1080,0"
       id="guide5129"
       inkscape:locked="false" />
    <sodipodi:guide
       position="508,285.75"
       orientation="0,-1920"
       id="guide5131"
       inkscape:locked="false" />
    <sodipodi:guide
       position="0,285.75"
       orientation="1080,0"
       id="guide5133"
       inkscape:locked="false" />
  </sodipodi:namedview>
  <metadata
     id="metadata5">
    <rdf:RDF>
      <cc:Work
         rdf:about="">
        <dc:format>image/svg+xml</dc:format>
        <dc:type
           rdf:resource="http://purl.org/dc/dcmitype/StillImage" />
        <dc:title />
      </cc:Work>
    </rdf:RDF>
  </metadata>
  <g
     inkscape:label="Ebene 1"
     inkscape:groupmode="layer"
     id="layer1"
     transform="translate(0,-11.249983)">
    <flowRoot
       xml:space="preserve"
       id="flowRoot131"
       style="fill:black;fill-opacity:1;stroke:none;font-family:'Comic Sans MS';font-style:normal;font-weight:normal;font-size:40px;line-height:1.25;letter-spacing:0px;word-spacing:0px;-inkscape-font-specification:'Comic Sans MS';font-stretch:normal;font-variant:normal"><flowRegion
         id="flowRegion133"><rect
           id="rect135"
           width="270"
           height="47.142857"
           x="941.42859"
           y="221.42857" /></flowRegion><flowPara
         id="flowPara137" /></flowRoot>    <path
       id="rect104"
       style="fill:#dc0067;fill-opacity:1;stroke-width:0.20002608"
       d="M 0,11.249985 H 508 V 82.309513 H 0 Z"
       inkscape:connector-curvature="0" />
    <text
       xml:space="preserve"
       style="font-style:normal;font-variant:normal;font-weight:normal;font-stretch:normal;font-size:46.78184891px;line-height:1.25;font-family:'AlternateGothic2 BT';-inkscape-font-specification:'AlternateGothic2 BT';text-align:center;letter-spacing:-0.79374999px;word-spacing:0px;text-anchor:middle;fill:#ffffff;fill-opacity:1;stroke:none;stroke-width:1.16954613"
       x="217.38521"
       y="62.964077"
       id="text102"><tspan
         sodipodi:role="line"
         id="tspan100"
         x="216.98834"
         y="62.964077"
         style="letter-spacing:-0.79374999px;fill:#ffffff;stroke-width:1.16954613">Freifunk ist wichtig! Hilf mit!</tspan></text>
    <flowRoot
       xml:space="preserve"
       id="flowRoot4687"
       style="fill:black;fill-opacity:1;stroke:none;font-family:'AlternateGothic2 BT';font-style:normal;font-weight:normal;font-size:40px;line-height:1.25;letter-spacing:0px;word-spacing:0px;-inkscape-font-specification:'AlternateGothic2 BT';font-stretch:normal;font-variant:normal;text-anchor:middle;text-align:center"><flowRegion
         id="flowRegion4689"><rect
           id="rect4691"
           width="972.85712"
           height="60"
           x="-141.42857"
           y="434.28571" /></flowRegion><flowPara
         id="flowPara4693" /></flowRoot>    <text
       xml:space="preserve"
       style="font-style:normal;font-variant:normal;font-weight:normal;font-stretch:normal;font-size:17.63888931px;line-height:1.25;font-family:'AlternateGothic2 BT';-inkscape-font-specification:'AlternateGothic2 BT';text-align:center;letter-spacing:0px;word-spacing:0px;text-anchor:middle;fill:#000000;fill-opacity:1;stroke:none;stroke-width:0.26458332"
       x="69.925591"
       y="191.54463"
       id="text4707"><tspan
         sodipodi:role="line"
         id="tspan4705"
         x="69.925591"
         y="207.15091"
         style="font-size:17.63888931px;stroke-width:0.26458332" /><tspan
         sodipodi:role="line"
         x="69.925591"
         y="229.19952"
         style="font-size:17.63888931px;stroke-width:0.26458332"
         id="tspan4709" /></text>
    <text
       xml:space="preserve"
       style="font-style:normal;font-variant:normal;font-weight:normal;font-stretch:normal;font-size:17.63888741px;line-height:1.25;font-family:'AlternateGothic2 BT';-inkscape-font-specification:'AlternateGothic2 BT';text-align:center;letter-spacing:0px;word-spacing:0px;text-anchor:middle;fill:#000000;fill-opacity:1;stroke:none;stroke-width:0.26458332"
       x="52.160713"
       y="195.32439"
       id="text4713"><tspan
         sodipodi:role="line"
         id="tspan4711"
         x="52.160713"
         y="210.93066"
         style="stroke-width:0.26458332" /></text>
    <g
       id="g1070"
       transform="translate(3.6445399,-4.4901281)">
      <g
         transform="matrix(0.42837302,0,0,0.42837302,25.267708,219.70453)"
         id="g132">
        <g
           id="g119">
          <g
             id="g107">
            <g
               id="g96">
              <g
                 id="g86">
                <g
                   id="g77">
                  <g
                     id="g16">
                    <circle
                       cx="36"
                       cy="54"
                       r="22"
                       transform="matrix(1.477616,0,0,1.5065066,-3.122124,-2.4350016)"
                       stroke-miterlimit="4"
                       id="circle6"
                       style="fill:none;stroke:#dc0067;stroke-width:1.14544892;stroke-miterlimit:4;stroke-dasharray:none;stroke-opacity:1" />
                    <circle
                       cx="74"
                       cy="44"
                       r="22"
                       transform="matrix(1.5950476,0,0,1.6223254,-10.072136,-9.1778182)"
                       stroke-miterlimit="4"
                       id="circle8"
                       style="fill:none;stroke:#dc0067;stroke-width:1.06239557;stroke-miterlimit:4;stroke-dasharray:none;stroke-opacity:1" />
                    <circle
                       cx="74"
                       cy="44"
                       r="29"
                       transform="matrix(1.5831269,0,0,1.5986441,-9.3397104,-8.1360194)"
                       stroke-miterlimit="4"
                       id="circle10"
                       style="fill:none;stroke:#dc0067;stroke-width:5.81192684;stroke-miterlimit:4;stroke-dasharray:none;stroke-opacity:1" />
                    <polygon
                       points="31,56 37,50 31,44 26,44 30,48 22,48 22,52 30,52 26,56 "
                       transform="matrix(1.4493674,0,0,1.3737988,-2.70016,2.5042672)"
                       id="polygon12"
                       style="fill:#ffcc33;fill-opacity:1" />
                    <polygon
                       points="64,50 73,59 81,59 75,53 88,53 88,47 75,47 81,41 73,41 "
                       transform="matrix(1.5159598,0,0,1.568926,-5.2784314,-7.233634)"
                       id="polygon14"
                       style="fill:#ffcc33;fill-opacity:1" />
                  </g>
                </g>
              </g>
            </g>
          </g>
        </g>
      </g>
      <text
         id="text5109"
         y="285.01816"
         x="13.928413"
         style="font-style:normal;font-variant:normal;font-weight:normal;font-stretch:normal;font-size:17.63888741px;line-height:1.25;font-family:'AlternateGothic2 BT';-inkscape-font-specification:'AlternateGothic2 BT';text-align:start;letter-spacing:-0.79374999px;word-spacing:0px;text-anchor:start;fill:#000000;fill-opacity:1;stroke:none;stroke-width:0.26458332"
         xml:space="preserve"><tspan
           style="letter-spacing:-0.79374999px;fill:#000000;stroke-width:0.26458332"
           y="285.01816"
           x="13.928413"
           id="tspan5107"
           sodipodi:role="line">darmstadt.freifunk.net</tspan></text>
    </g>
    <text
       xml:space="preserve"
       style="font-style:normal;font-variant:normal;font-weight:normal;font-stretch:normal;font-size:46.14770889px;line-height:1.25;font-family:'AlternateGothic2 BT';-inkscape-font-specification:'AlternateGothic2 BT';text-align:start;letter-spacing:0px;word-spacing:0px;text-anchor:start;fill:#000000;fill-opacity:1;stroke:none;stroke-width:0.69854635"
       x="24.365582"
       y="187.1759"
       id="text114"><tspan
         sodipodi:role="line"
         x="24.365582"
         y="187.1759"
         style="font-size:46.14770889px;stroke-width:0.69854635"
         id="tspan68">13.03., 20 Uhr und 17.03., 14 Uhr</tspan></text>
    <text
       xml:space="preserve"
       style="font-style:normal;font-variant:normal;font-weight:normal;font-stretch:normal;font-size:30.0340023px;line-height:1.25;font-family:'AlternateGothic2 BT';-inkscape-font-specification:'AlternateGothic2 BT';text-align:start;letter-spacing:0px;word-spacing:0px;text-anchor:start;fill:#000000;fill-opacity:1;stroke:none;stroke-width:0.45463017"
       x="226.93274"
       y="220.96019"
       id="text114-3"><tspan
         sodipodi:role="line"
         x="226.93274"
         y="220.96019"
         style="font-size:30.0340023px;stroke-width:0.45463017"
         id="tspan90">in der Wilhelminenstraße 17</tspan></text>
    <text
       xml:space="preserve"
       style="font-style:normal;font-variant:normal;font-weight:normal;font-stretch:normal;font-size:29.76473999px;line-height:1.25;font-family:'AlternateGothic2 BT';-inkscape-font-specification:'AlternateGothic2 BT';text-align:start;letter-spacing:0px;word-spacing:0px;text-anchor:start;fill:#000000;fill-opacity:1;stroke:none;stroke-width:0.45055428"
       x="31.018785"
       y="125.75556"
       id="text114-7"><tspan
         sodipodi:role="line"
         x="31.018785"
         y="125.75556"
         style="font-size:29.76473999px;stroke-width:0.45055428"
         id="tspan101">Erhalte mit uns freien Netzzugang für jedermann!</tspan></text>
    <text
       xml:space="preserve"
       style="font-style:normal;font-variant:normal;font-weight:normal;font-stretch:normal;font-size:30.03400421px;line-height:1.25;font-family:'AlternateGothic2 BT';-inkscape-font-specification:'AlternateGothic2 BT';text-align:start;letter-spacing:0px;word-spacing:0px;text-anchor:start;fill:#000000;fill-opacity:1;stroke:none;stroke-width:0.45463017"
       x="158.92769"
       y="272.2175"
       id="text114-3-3"><tspan
         sodipodi:role="line"
         x="158.92769"
         y="272.2175"
         style="font-size:30.03400421px;stroke-width:0.45463017"
         id="tspan90-5"><tspan
   style="font-size:25.39999962px"
   id="tspan4674">Weitere Infos:</tspan> <tspan
   style="fill:#009ee0;fill-opacity:1"
   id="tspan4672">darmstadt.freifunk.net</tspan></tspan></text>
    <path
       style="display:inline;fill:#ffffff;fill-opacity:1;stroke:#ffffff;stroke-width:0;stroke-miterlimit:4;stroke-dasharray:none;stroke-dashoffset:0;stroke-opacity:1"
       d="M 2200.9336 -292.55273 A 12.193051 12.783828 53.591688 0 0 2192.9707 -289.96289 A 12.193051 12.783828 53.591688 0 0 2189.918 -272.5625 A 12.193051 12.783828 53.591688 0 0 2192.5117 -270.00391 L 2097.748 -134.45312 A 12.193051 12.783828 53.591688 0 0 2083.6465 -133.58789 A 12.193051 12.783828 53.591688 0 0 2078.6328 -120.46484 L 1911.3789 -68.164062 A 12.193051 12.783828 53.591688 0 0 1910.0605 -70.5 A 12.193051 12.783828 53.591688 0 0 1892.5352 -72.724609 A 12.193051 12.783828 53.591688 0 0 1889.4844 -55.324219 A 12.193051 12.783828 53.591688 0 0 1892.2539 -52.654297 L 1799.7578 84.619141 A 12.193051 12.783828 53.591688 0 0 1790.2871 87.091797 A 12.193051 12.783828 53.591688 0 0 1784.9629 97.365234 L 1667.1582 123.38477 A 12.193051 12.783828 53.591688 0 0 1666.4004 122.18359 A 12.193051 12.783828 53.591688 0 0 1648.875 119.95898 A 12.193051 12.783828 53.591688 0 0 1644.2188 134.32031 L 1586.6504 267.14258 L 1591.3613 267.14258 L 1647.0215 138.71875 A 12.193051 12.783828 53.591688 0 0 1652.4277 141.76758 L 1687.3203 262.94531 A 12.193051 12.783828 53.591688 0 0 1684.9863 264.30859 A 12.193051 12.783828 53.591688 0 0 1682.166 267.14258 L 1702.9199 267.14258 A 12.193051 12.783828 53.591688 0 0 1702.5117 266.5332 A 12.193051 12.783828 53.591688 0 0 1701.6543 265.50977 L 1793.957 108.93164 A 12.193051 12.783828 53.591688 0 0 1804.7617 106.7168 A 12.193051 12.783828 53.591688 0 0 1809.7695 99.136719 L 2017.1055 59.167969 A 12.193051 12.783828 53.591688 0 0 2017.6953 60.0625 A 12.193051 12.783828 53.591688 0 0 2018.0664 60.515625 L 1704.8945 267.14258 L 1712.6445 267.14258 L 2021.4902 63.367188 A 12.193051 12.783828 53.591688 0 0 2035.2207 62.287109 A 12.193051 12.783828 53.591688 0 0 2038.2715 44.886719 A 12.193051 12.783828 53.591688 0 0 2036.5996 43.066406 L 2090.3867 -111.37891 A 12.193051 12.783828 53.591688 0 0 2098.1211 -113.96094 A 12.193051 12.783828 53.591688 0 0 2101.1738 -131.36328 A 12.193051 12.783828 53.591688 0 0 2100.9824 -131.59375 L 2196.4609 -268.16992 A 12.193051 12.783828 53.591688 0 0 2207.4434 -270.33594 A 12.193051 12.783828 53.591688 0 0 2210.4961 -287.73828 A 12.193051 12.783828 53.591688 0 0 2200.9336 -292.55273 z M 2080.373 -116.51367 A 12.193051 12.783828 53.591688 0 0 2080.5957 -116.18555 A 12.193051 12.783828 53.591688 0 0 2086.0566 -112.13086 L 2032.791 40.824219 A 12.193051 12.783828 53.591688 0 0 2020.7461 42.662109 A 12.193051 12.783828 53.591688 0 0 2019.9531 43.310547 L 1909.1914 -55.138672 A 12.193051 12.783828 53.591688 0 0 1912.3379 -63.970703 L 2080.373 -116.51367 z M 1905.7012 -52.265625 L 2017.1094 46.757812 A 12.193051 12.783828 53.591688 0 0 2015.5879 55.070312 L 1809.9883 94.707031 A 12.193051 12.783828 53.591688 0 0 1807.8125 89.316406 A 12.193051 12.783828 53.591688 0 0 1804 86 L 1896.2305 -50.878906 A 12.193051 12.783828 53.591688 0 0 1905.7012 -52.265625 z M 1785.6855 101.60938 A 12.193051 12.783828 53.591688 0 0 1787.2363 104.49023 A 12.193051 12.783828 53.591688 0 0 1790.0098 107.16211 L 1698.1719 262.95312 A 12.193051 12.783828 53.591688 0 0 1691.6133 261.77539 L 1657.1426 142.06055 A 12.193051 12.783828 53.591688 0 0 1663.3496 139.58398 A 12.193051 12.783828 53.591688 0 0 1668.5645 127.48242 L 1785.6855 101.60938 z "
       transform="matrix(0.26458333,0,0,0.26458333,0,11.249983)"
       id="path5120-6" />
  </g>
</svg>
