<?xml version="1.0" encoding="UTF-8" standalone="no"?>
<!-- Created with Inkscape (http://www.inkscape.org/) -->

<svg
   xmlns:dc="http://purl.org/dc/elements/1.1/"
   xmlns:cc="http://creativecommons.org/ns#"
   xmlns:rdf="http://www.w3.org/1999/02/22-rdf-syntax-ns#"
   xmlns:svg="http://www.w3.org/2000/svg"
   xmlns="http://www.w3.org/2000/svg"
   xmlns:sodipodi="http://sodipodi.sourceforge.net/DTD/sodipodi-0.dtd"
   xmlns:inkscape="http://www.inkscape.org/namespaces/inkscape"
   width="1920"
   height="1080"
   viewBox="0 0 507.99999 285.75001"
   version="1.1"
   id="svg8"
   inkscape:version="0.92.2 5c3e80d, 2017-08-06"
   sodipodi:docname="werbegrafik_04.svg"
   inkscape:export-filename="/home/mart-w/bilder/cda_werbung/infowand/02/werbegrafik_02.png"
   inkscape:export-xdpi="96"
   inkscape:export-ydpi="96">
  <defs
     id="defs2">
    <marker
       inkscape:stockid="DotS"
       orient="auto"
       refY="0.0"
       refX="0.0"
       id="DotS"
       style="overflow:visible"
       inkscape:isstock="true">
      <path
         id="path1271"
         d="M -2.5,-1.0 C -2.5,1.7600000 -4.7400000,4.0 -7.5,4.0 C -10.260000,4.0 -12.5,1.7600000 -12.5,-1.0 C -12.5,-3.7600000 -10.260000,-6.0 -7.5,-6.0 C -4.7400000,-6.0 -2.5,-3.7600000 -2.5,-1.0 z "
         style="fill-rule:evenodd;stroke:#dc0067;stroke-width:1pt;stroke-opacity:1;fill:#dc0067;fill-opacity:1"
         transform="scale(0.2) translate(7.4, 1)" />
    </marker>
    <marker
       inkscape:stockid="Arrow2Mend"
       orient="auto"
       refY="0.0"
       refX="0.0"
       id="Arrow2Mend"
       style="overflow:visible;"
       inkscape:isstock="true">
      <path
         id="path1231"
         style="fill-rule:evenodd;stroke-width:0.625;stroke-linejoin:round;stroke:#dc0067;stroke-opacity:1;fill:#dc0067;fill-opacity:1"
         d="M 8.7185878,4.0337352 L -2.2072895,0.016013256 L 8.7185884,-4.0017078 C 6.9730900,-1.6296469 6.9831476,1.6157441 8.7185878,4.0337352 z "
         transform="scale(0.6) rotate(180) translate(0,0)" />
    </marker>
    <marker
       inkscape:stockid="DotL"
       orient="auto"
       refY="0.0"
       refX="0.0"
       id="DotL"
       style="overflow:visible"
       inkscape:isstock="true">
      <path
         id="path1265"
         d="M -2.5,-1.0 C -2.5,1.7600000 -4.7400000,4.0 -7.5,4.0 C -10.260000,4.0 -12.5,1.7600000 -12.5,-1.0 C -12.5,-3.7600000 -10.260000,-6.0 -7.5,-6.0 C -4.7400000,-6.0 -2.5,-3.7600000 -2.5,-1.0 z "
         style="fill-rule:evenodd;stroke:#dc0067;stroke-width:1pt;stroke-opacity:1;fill:#dc0067;fill-opacity:1"
         transform="scale(0.8) translate(7.4, 1)" />
    </marker>
  </defs>
  <sodipodi:namedview
     id="base"
     pagecolor="#ffffff"
     bordercolor="#666666"
     borderopacity="1.0"
     inkscape:pageopacity="0.0"
     inkscape:pageshadow="2"
     inkscape:zoom="0.70710678"
     inkscape:cx="1306.7292"
     inkscape:cy="540.10691"
     inkscape:document-units="mm"
     inkscape:current-layer="layer1"
     showgrid="false"
     units="px"
     inkscape:window-width="2560"
     inkscape:window-height="1312"
     inkscape:window-x="0"
     inkscape:window-y="60"
     inkscape:window-maximized="1"
     showguides="true"
     inkscape:guide-bbox="true"
     inkscape:snap-midpoints="true">
    <sodipodi:guide
       position="562.80655,215.06845"
       orientation="0,1"
       id="guide98"
       inkscape:locked="false" />
    <sodipodi:guide
       position="0,0"
       orientation="0,1920"
       id="guide4600"
       inkscape:locked="false" />
    <sodipodi:guide
       position="508,0"
       orientation="-1080,0"
       id="guide4602"
       inkscape:locked="false" />
    <sodipodi:guide
       position="508,285.75"
       orientation="0,-1920"
       id="guide4604"
       inkscape:locked="false" />
    <sodipodi:guide
       position="0,285.75"
       orientation="1080,0"
       id="guide4606"
       inkscape:locked="false" />
    <sodipodi:guide
       position="15.119048,102.05357"
       orientation="1,0"
       id="guide4695"
       inkscape:locked="false" />
    <sodipodi:guide
       position="0,0"
       orientation="0,1920"
       id="guide5127"
       inkscape:locked="false" />
    <sodipodi:guide
       position="508,0"
       orientation="-1080,0"
       id="guide5129"
       inkscape:locked="false" />
    <sodipodi:guide
       position="508,285.75"
       orientation="0,-1920"
       id="guide5131"
       inkscape:locked="false" />
    <sodipodi:guide
       position="0,285.75"
       orientation="1080,0"
       id="guide5133"
       inkscape:locked="false" />
  </sodipodi:namedview>
  <metadata
     id="metadata5">
    <rdf:RDF>
      <cc:Work
         rdf:about="">
        <dc:format>image/svg+xml</dc:format>
        <dc:type
           rdf:resource="http://purl.org/dc/dcmitype/StillImage" />
        <dc:title />
      </cc:Work>
    </rdf:RDF>
  </metadata>
  <g
     inkscape:label="Ebene 1"
     inkscape:groupmode="layer"
     id="layer1"
     transform="translate(0,-11.249983)">
    <flowRoot
       xml:space="preserve"
       id="flowRoot131"
       style="fill:black;fill-opacity:1;stroke:none;font-family:'Comic Sans MS';font-style:normal;font-weight:normal;font-size:40px;line-height:1.25;letter-spacing:0px;word-spacing:0px;-inkscape-font-specification:'Comic Sans MS';font-stretch:normal;font-variant:normal"><flowRegion
         id="flowRegion133"><rect
           id="rect135"
           width="270"
           height="47.142857"
           x="941.42859"
           y="221.42857" /></flowRegion><flowPara
         id="flowPara137" /></flowRoot>    <path
       id="rect104"
       style="fill:#dc0067;fill-opacity:1;stroke-width:0.20002608"
       d="M 0,11.249985 H 508 V 82.309513 H 0 Z"
       inkscape:connector-curvature="0" />
    <text
       xml:space="preserve"
       style="font-style:normal;font-variant:normal;font-weight:normal;font-stretch:normal;font-size:46.78184891px;line-height:1.25;font-family:'AlternateGothic2 BT';-inkscape-font-specification:'AlternateGothic2 BT';text-align:center;letter-spacing:-0.79374999px;word-spacing:0px;text-anchor:middle;fill:#ffffff;fill-opacity:1;stroke:none;stroke-width:1.16954613"
       x="217.38521"
       y="62.964077"
       id="text102"><tspan
         sodipodi:role="line"
         id="tspan100"
         x="216.98834"
         y="62.964077"
         style="letter-spacing:-0.79374999px;fill:#ffffff;stroke-width:1.16954613">Freifunk ist wichtig! Hilf mit!</tspan></text>
    <flowRoot
       xml:space="preserve"
       id="flowRoot4687"
       style="fill:black;fill-opacity:1;stroke:none;font-family:'AlternateGothic2 BT';font-style:normal;font-weight:normal;font-size:40px;line-height:1.25;letter-spacing:0px;word-spacing:0px;-inkscape-font-specification:'AlternateGothic2 BT';font-stretch:normal;font-variant:normal;text-anchor:middle;text-align:center"><flowRegion
         id="flowRegion4689"><rect
           id="rect4691"
           width="972.85712"
           height="60"
           x="-141.42857"
           y="434.28571" /></flowRegion><flowPara
         id="flowPara4693" /></flowRoot>    <text
       xml:space="preserve"
       style="font-style:normal;font-variant:normal;font-weight:normal;font-stretch:normal;font-size:17.63888931px;line-height:1.25;font-family:'AlternateGothic2 BT';-inkscape-font-specification:'AlternateGothic2 BT';text-align:center;letter-spacing:0px;word-spacing:0px;text-anchor:middle;fill:#000000;fill-opacity:1;stroke:none;stroke-width:0.26458332"
       x="69.925591"
       y="191.54463"
       id="text4707"><tspan
         sodipodi:role="line"
         id="tspan4705"
         x="69.925591"
         y="207.15091"
         style="font-size:17.63888931px;stroke-width:0.26458332" /><tspan
         sodipodi:role="line"
         x="69.925591"
         y="229.19952"
         style="font-size:17.63888931px;stroke-width:0.26458332"
         id="tspan4709" /></text>
    <text
       xml:space="preserve"
       style="font-style:normal;font-variant:normal;font-weight:normal;font-stretch:normal;font-size:17.63888741px;line-height:1.25;font-family:'AlternateGothic2 BT';-inkscape-font-specification:'AlternateGothic2 BT';text-align:center;letter-spacing:0px;word-spacing:0px;text-anchor:middle;fill:#000000;fill-opacity:1;stroke:none;stroke-width:0.26458332"
       x="52.160713"
       y="195.32439"
       id="text4713"><tspan
         sodipodi:role="line"
         id="tspan4711"
         x="52.160713"
         y="210.93066"
         style="stroke-width:0.26458332" /></text>
    <g
       id="g1070"
       transform="translate(3.6445399,-4.4901281)">
      <g
         transform="matrix(0.42837302,0,0,0.42837302,25.267708,219.70453)"
         id="g132">
        <g
           id="g119">
          <g
             id="g107">
            <g
               id="g96">
              <g
                 id="g86">
                <g
                   id="g77">
                  <g
                     id="g16">
                    <circle
                       cx="36"
                       cy="54"
                       r="22"
                       transform="matrix(1.477616,0,0,1.5065066,-3.122124,-2.4350016)"
                       stroke-miterlimit="4"
                       id="circle6"
                       style="fill:none;stroke:#dc0067;stroke-width:1.14544892;stroke-miterlimit:4;stroke-dasharray:none;stroke-opacity:1" />
                    <circle
                       cx="74"
                       cy="44"
                       r="22"
                       transform="matrix(1.5950476,0,0,1.6223254,-10.072136,-9.1778182)"
                       stroke-miterlimit="4"
                       id="circle8"
                       style="fill:none;stroke:#dc0067;stroke-width:1.06239557;stroke-miterlimit:4;stroke-dasharray:none;stroke-opacity:1" />
                    <circle
                       cx="74"
                       cy="44"
                       r="29"
                       transform="matrix(1.5831269,0,0,1.5986441,-9.3397104,-8.1360194)"
                       stroke-miterlimit="4"
                       id="circle10"
                       style="fill:none;stroke:#dc0067;stroke-width:5.81192684;stroke-miterlimit:4;stroke-dasharray:none;stroke-opacity:1" />
                    <polygon
                       points="31,56 37,50 31,44 26,44 30,48 22,48 22,52 30,52 26,56 "
                       transform="matrix(1.4493674,0,0,1.3737988,-2.70016,2.5042672)"
                       id="polygon12"
                       style="fill:#ffcc33;fill-opacity:1" />
                    <polygon
                       points="64,50 73,59 81,59 75,53 88,53 88,47 75,47 81,41 73,41 "
                       transform="matrix(1.5159598,0,0,1.568926,-5.2784314,-7.233634)"
                       id="polygon14"
                       style="fill:#ffcc33;fill-opacity:1" />
                  </g>
                </g>
              </g>
            </g>
          </g>
        </g>
      </g>
      <text
         id="text5109"
         y="285.01816"
         x="13.928413"
         style="font-style:normal;font-variant:normal;font-weight:normal;font-stretch:normal;font-size:17.63888741px;line-height:1.25;font-family:'AlternateGothic2 BT';-inkscape-font-specification:'AlternateGothic2 BT';text-align:start;letter-spacing:-0.79374999px;word-spacing:0px;text-anchor:start;fill:#000000;fill-opacity:1;stroke:none;stroke-width:0.26458332"
         xml:space="preserve"><tspan
           style="letter-spacing:-0.79374999px;fill:#000000;stroke-width:0.26458332"
           y="285.01816"
           x="13.928413"
           id="tspan5107"
           sodipodi:role="line">darmstadt.freifunk.net</tspan></text>
    </g>
    <text
       xml:space="preserve"
       style="font-style:normal;font-variant:normal;font-weight:normal;font-stretch:normal;font-size:46.14770889px;line-height:1.25;font-family:'AlternateGothic2 BT';-inkscape-font-specification:'AlternateGothic2 BT';text-align:start;letter-spacing:0px;word-spacing:0px;text-anchor:start;fill:#000000;fill-opacity:1;stroke:none;stroke-width:0.69854635"
       x="27.868652"
       y="187.1759"
       id="text114"><tspan
         sodipodi:role="line"
         x="27.868652"
         y="187.1759"
         style="font-size:46.14770889px;stroke-width:0.69854635"
         id="tspan68">13.03., 20 Uhr und 17.03., 14 Uhr</tspan></text>
    <text
       xml:space="preserve"
       style="font-style:normal;font-variant:normal;font-weight:normal;font-stretch:normal;font-size:30.0340023px;line-height:1.25;font-family:'AlternateGothic2 BT';-inkscape-font-specification:'AlternateGothic2 BT';text-align:start;letter-spacing:0px;word-spacing:0px;text-anchor:start;fill:#000000;fill-opacity:1;stroke:none;stroke-width:0.45463017"
       x="229.57854"
       y="220.96019"
       id="text114-3"><tspan
         sodipodi:role="line"
         x="229.57854"
         y="220.96019"
         style="font-size:30.0340023px;stroke-width:0.45463017"
         id="tspan90">in der Wilhelminenstraße 17</tspan></text>
    <text
       xml:space="preserve"
       style="font-style:normal;font-variant:normal;font-weight:normal;font-stretch:normal;font-size:29.76473999px;line-height:1.25;font-family:'AlternateGothic2 BT';-inkscape-font-specification:'AlternateGothic2 BT';text-align:start;letter-spacing:0px;word-spacing:0px;text-anchor:start;fill:#000000;fill-opacity:1;stroke:none;stroke-width:0.45055428"
       x="35.292362"
       y="125.75556"
       id="text114-7"><tspan
         sodipodi:role="line"
         x="35.292362"
         y="125.75556"
         style="font-size:29.76473999px;stroke-width:0.45055428"
         id="tspan101">Erhalte mit uns freien Netzzugang für jedermann!</tspan></text>
    <text
       xml:space="preserve"
       style="font-style:normal;font-variant:normal;font-weight:normal;font-stretch:normal;font-size:30.03400421px;line-height:1.25;font-family:'AlternateGothic2 BT';-inkscape-font-specification:'AlternateGothic2 BT';text-align:start;letter-spacing:0px;word-spacing:0px;text-anchor:start;fill:#000000;fill-opacity:1;stroke:none;stroke-width:0.45463017"
       x="158.92769"
       y="272.2175"
       id="text114-3-3"><tspan
         sodipodi:role="line"
         x="158.92769"
         y="272.2175"
         style="font-size:30.03400421px;stroke-width:0.45463017"
         id="tspan90-5"><tspan
   style="font-size:25.39999962px"
   id="tspan4674">Weitere Infos:</tspan> <tspan
   style="fill:#009ee0;fill-opacity:1"
   id="tspan4672">darmstadt.freifunk.net</tspan></tspan></text>
    <path
       style="display:inline;fill:#ffffff;fill-opacity:1;stroke:#ffffff;stroke-width:0;stroke-miterlimit:4;stroke-dasharray:none;stroke-dashoffset:0;stroke-opacity:1"
       d="m 582.33018,-66.154582 a 3.226078,3.3823878 53.591688 0 0 -2.10685,0.685229 3.226078,3.3823878 53.591688 0 0 -0.80769,4.603853 3.226078,3.3823878 53.591688 0 0 0.68625,0.67696 l -25.0729,35.86448 a 3.226078,3.3823878 53.591688 0 0 -3.73102,0.228925 3.226078,3.3823878 53.591688 0 0 -1.32654,3.47214 l -44.25259,13.8379129 a 3.226078,3.3823878 53.591688 0 0 -0.34883,-0.6180504 3.226078,3.3823878 53.591688 0 0 -4.6369,-0.5885947 3.226078,3.3823878 53.591688 0 0 -0.80719,4.6038513 3.226078,3.3823878 53.591688 0 0 0.73276,0.7064157 L 476.18575,33.638808 a 3.226078,3.3823878 53.591688 0 0 -2.50578,0.654224 3.226078,3.3823878 53.591688 0 0 -1.4087,2.71818 l -31.16916,6.884334 a 3.226078,3.3823878 53.591688 0 0 -0.2005,-0.31781 3.226078,3.3823878 53.591688 0 0 -4.63693,-0.588595 3.226078,3.3823878 53.591688 0 0 -1.23195,3.799768 l -16.85531,38.889098 a 3.226078,3.3823878 53.591688 0 0 -3.66697,0.268719 3.226078,3.3823878 53.591688 0 0 -1.3844,2.337842 l -28.60654,1.671733 a 3.226078,3.3823878 53.591688 0 0 -0.58237,-1.504818 3.226078,3.3823878 53.591688 0 0 -4.63693,-0.588595 3.226078,3.3823878 53.591688 0 0 -0.80772,4.603854 3.226078,3.3823878 53.591688 0 0 0.416,0.456819 l -9.27954,16.032659 a 3.226078,3.3823878 53.591688 0 0 -3.25044,0.46147 3.226078,3.3823878 53.591688 0 0 -0.26305,0.21498 h 4.56822 a 3.226078,3.3823878 53.591688 0 0 -0.0837,-0.0827 l 9.27901,-16.032665 a 3.226078,3.3823878 53.591688 0 0 3.25097,-0.461987 3.226078,3.3823878 53.591688 0 0 1.31206,-1.947169 l 28.74397,-1.680001 a 3.226078,3.3823878 53.591688 0 0 0.11525,0.378788 l -41.54371,19.825714 h 2.6267 l 39.50716,-18.85368 a 3.226078,3.3823878 53.591688 0 0 4.44881,0.360186 3.226078,3.3823878 53.591688 0 0 1.30845,-1.928048 l 25.03672,-3.99097 a 3.226078,3.3823878 53.591688 0 0 0.0909,0.185518 l -30.49685,24.226994 h 1.81644 l 29.38532,-23.343846 a 3.226078,3.3823878 53.591688 0 0 4.16769,0.08527 3.226078,3.3823878 53.591688 0 0 1.39321,-3.060277 L 534.85245,28.0159 a 3.226078,3.3823878 53.591688 0 0 3.63286,-0.28577 3.226078,3.3823878 53.591688 0 0 0.80719,-4.603856 3.226078,3.3823878 53.591688 0 0 -0.44235,-0.481625 l 14.23117,-40.863653 a 3.226078,3.3823878 53.591688 0 0 2.04639,-0.683162 3.226078,3.3823878 53.591688 0 0 0.80769,-4.604369 3.226078,3.3823878 53.591688 0 0 -0.0506,-0.06098 l 25.26202,-36.135778 a 3.226078,3.3823878 53.591688 0 0 2.90579,-0.573092 3.226078,3.3823878 53.591688 0 0 0.80769,-4.604369 3.226078,3.3823878 53.591688 0 0 -2.53008,-1.273824 z m -31.89832,46.577001 a 3.226078,3.3823878 53.591688 0 0 0.0589,0.08682 3.226078,3.3823878 53.591688 0 0 1.44486,1.072804 l -14.09317,40.469356 a 3.226078,3.3823878 53.591688 0 0 -3.18687,0.486275 3.226078,3.3823878 53.591688 0 0 -0.20982,0.171566 l -29.3057,-26.0480229 a 3.226078,3.3823878 53.591688 0 0 0.83251,-2.3368068 z m -46.21525,16.9989585 29.47676,26.1999515 a 3.226078,3.3823878 53.591688 0 0 -0.40257,2.199351 l -54.39823,10.487216 a 3.226078,3.3823878 53.591688 0 0 -0.57568,-1.42627 3.226078,3.3823878 53.591688 0 0 -1.00872,-0.877466 l 24.40265,-36.2158825 a 3.226078,3.3823878 53.591688 0 0 2.50579,-0.3669 z m 29.47572,29.4834745 a 3.226078,3.3823878 53.591688 0 0 0.15605,0.236678 3.226078,3.3823878 53.591688 0 0 0.0982,0.119889 l -83.23781,54.919127 a 3.226078,3.3823878 53.591688 0 0 -0.2527,-0.410311 3.226078,3.3823878 53.591688 0 0 -0.22686,-0.270782 L 474.65097,40.07149 a 3.226078,3.3823878 53.591688 0 0 2.85874,-0.586011 3.226078,3.3823878 53.591688 0 0 1.32498,-2.005562 z m -61.22987,11.229289 a 3.226078,3.3823878 53.591688 0 0 0.41031,0.762227 3.226078,3.3823878 53.591688 0 0 0.73383,0.706934 l -24.29878,41.219704 a 3.226078,3.3823878 53.591688 0 0 -1.7353,-0.311608 l -9.12037,-31.674552 a 3.226078,3.3823878 53.591688 0 0 1.64227,-0.655257 3.226078,3.3823878 53.591688 0 0 1.37977,-3.201871 z m -36.68818,9.818522 a 3.226078,3.3823878 53.591688 0 0 1.43039,0.806669 l 9.232,32.061608 a 3.226078,3.3823878 53.591688 0 0 -0.61754,0.360701 3.226078,3.3823878 53.591688 0 0 -1.4061,2.926953 l -24.68274,3.93361 a 3.226078,3.3823878 53.591688 0 0 -0.58291,-1.506884 3.226078,3.3823878 53.591688 0 0 -0.0625,-0.07596 z"
       id="path5120-6"
       inkscape:connector-curvature="0" />
  </g>
</svg>
