<?xml version="1.0" encoding="UTF-8" standalone="no"?>
<svg
   xmlns:dc="http://purl.org/dc/elements/1.1/"
   xmlns:cc="http://creativecommons.org/ns#"
   xmlns:rdf="http://www.w3.org/1999/02/22-rdf-syntax-ns#"
   xmlns:svg="http://www.w3.org/2000/svg"
   xmlns="http://www.w3.org/2000/svg"
   id="svg44"
   preserveAspectRatio="none"
   viewBox="0 0 149.68408 133.52319"
   height="133.52319"
   width="149.68408"
   version="1.2">
  <metadata
     id="metadata50">
    <rdf:RDF>
      <cc:Work
         rdf:about="">
        <dc:format>image/svg+xml</dc:format>
        <dc:type
           rdf:resource="http://purl.org/dc/dcmitype/StillImage" />
        <dc:title></dc:title>
      </cc:Work>
    </rdf:RDF>
  </metadata>
  <defs
     id="defs48" />
  <!-- Designed by Monic Meisel and hand-coded as SVG by Alina Friedrichsen -->
  <g
     transform="translate(-10.088985,-11.198041)"
     id="g16">
    <circle
       style="fill:none;stroke:#de2c68;stroke-width:1.14544892;stroke-miterlimit:4;stroke-dasharray:none;stroke-opacity:1"
       id="circle6"
       stroke-miterlimit="4"
       transform="matrix(1.477616,0,0,1.5065066,-3.122124,-2.4350016)"
       r="22"
       cy="54"
       cx="36" />
    <circle
       style="fill:none;stroke:#de2c68;stroke-width:1.06239557;stroke-miterlimit:4;stroke-dasharray:none;stroke-opacity:1"
       id="circle8"
       stroke-miterlimit="4"
       transform="matrix(1.5950476,0,0,1.6223254,-10.072136,-9.1778182)"
       r="22"
       cy="44"
       cx="74" />
    <circle
       style="fill:none;stroke:#de2c68;stroke-width:5.81192684;stroke-miterlimit:4;stroke-dasharray:none;stroke-opacity:1"
       id="circle10"
       stroke-miterlimit="4"
       transform="matrix(1.5831269,0,0,1.5986441,-9.3397104,-8.1360194)"
       r="29"
       cy="44"
       cx="74" />
    <polygon
       style="fill:#ffcc33;fill-opacity:1"
       id="polygon12"
       transform="matrix(1.4493674,0,0,1.3737988,-2.70016,2.5042672)"
       points="30,48 22,48 22,52 30,52 26,56 31,56 37,50 31,44 26,44 " />
    <polygon
       style="fill:#ffcc33;fill-opacity:1"
       id="polygon14"
       transform="matrix(1.5159598,0,0,1.568926,-5.2784314,-7.233634)"
       points="88,53 88,47 75,47 81,41 73,41 64,50 73,59 81,59 75,53 " />
  </g>
  <text
     id="text58"
     y="131.53453"
     x="-0.43501979"
     style="font-style:normal;font-variant:normal;font-weight:bold;font-stretch:normal;font-size:25.45487213px;line-height:1.25;font-family:'Comic Sans MS';-inkscape-font-specification:'Comic Sans MS Bold';letter-spacing:0px;word-spacing:0px;fill:#000000;fill-opacity:1;stroke:none;stroke-width:0.63637173"
     xml:space="preserve"><tspan
       style="font-style:normal;font-variant:normal;font-weight:bold;font-stretch:normal;font-family:'Comic Sans MS';-inkscape-font-specification:'Comic Sans MS Bold';stroke-width:0.63637173"
       y="131.53453"
       x="-0.43501979"
       id="tspan56">freifunk.net</tspan></text>
</svg>
