<?xml version="1.0" encoding="UTF-8" standalone="no"?>
<!-- Created with Inkscape (http://www.inkscape.org/) -->

<svg
   xmlns:dc="http://purl.org/dc/elements/1.1/"
   xmlns:cc="http://creativecommons.org/ns#"
   xmlns:rdf="http://www.w3.org/1999/02/22-rdf-syntax-ns#"
   xmlns:svg="http://www.w3.org/2000/svg"
   xmlns="http://www.w3.org/2000/svg"
   xmlns:sodipodi="http://sodipodi.sourceforge.net/DTD/sodipodi-0.dtd"
   xmlns:inkscape="http://www.inkscape.org/namespaces/inkscape"
   width="1920"
   height="1080"
   viewBox="0 0 507.99999 285.75001"
   version="1.1"
   id="svg8"
   inkscape:version="0.92.2 5c3e80d, 2017-08-06"
   sodipodi:docname="werbegrafik_01.svg">
  <defs
     id="defs2" />
  <sodipodi:namedview
     id="base"
     pagecolor="#ffffff"
     bordercolor="#666666"
     borderopacity="1.0"
     inkscape:pageopacity="0.0"
     inkscape:pageshadow="2"
     inkscape:zoom="0.7"
     inkscape:cx="1113.8082"
     inkscape:cy="556.94717"
     inkscape:document-units="mm"
     inkscape:current-layer="layer1"
     showgrid="false"
     units="px"
     inkscape:window-width="2560"
     inkscape:window-height="1312"
     inkscape:window-x="0"
     inkscape:window-y="60"
     inkscape:window-maximized="1" />
  <metadata
     id="metadata5">
    <rdf:RDF>
      <cc:Work
         rdf:about="">
        <dc:format>image/svg+xml</dc:format>
        <dc:type
           rdf:resource="http://purl.org/dc/dcmitype/StillImage" />
        <dc:title></dc:title>
      </cc:Work>
    </rdf:RDF>
  </metadata>
  <g
     inkscape:label="Ebene 1"
     inkscape:groupmode="layer"
     id="layer1"
     transform="translate(0,-11.249983)">
    <text
       xml:space="preserve"
       style="font-style:normal;font-variant:normal;font-weight:normal;font-stretch:normal;font-size:33.29930878px;line-height:1.25;font-family:'Comic Sans MS';-inkscape-font-specification:'Comic Sans MS';text-align:center;letter-spacing:0px;word-spacing:0px;text-anchor:middle;fill:#000000;fill-opacity:1;stroke:none;stroke-width:0.24974479"
       x="257.55624"
       y="75.4683"
       id="text124"><tspan
         sodipodi:role="line"
         id="tspan122"
         x="257.55627"
         y="75.4683"
         style="font-size:33.29930878px;text-align:center;text-anchor:middle;stroke-width:0.24974479">Geschmack? <tspan
   style="font-style:normal;font-variant:normal;font-weight:bold;font-stretch:normal;font-family:'Comic Sans MS';-inkscape-font-specification:'Comic Sans MS Bold';text-align:center;text-anchor:middle;stroke-width:0.24974479"
   id="tspan139">Haben wir nicht.</tspan></tspan><tspan
         sodipodi:role="line"
         x="257.55624"
         y="117.45818"
         style="font-size:33.29930878px;text-align:center;text-anchor:middle;stroke-width:0.24974479"
         id="tspan128">Design? <tspan
   style="font-style:normal;font-variant:normal;font-weight:bold;font-stretch:normal;font-family:'Comic Sans MS';-inkscape-font-specification:'Comic Sans MS Bold';text-align:center;text-anchor:middle;stroke-width:0.24974479"
   id="tspan126">Können wir nicht.</tspan></tspan></text>
    <flowRoot
       xml:space="preserve"
       id="flowRoot131"
       style="fill:black;fill-opacity:1;stroke:none;font-family:'Comic Sans MS';font-style:normal;font-weight:normal;font-size:40px;line-height:1.25;letter-spacing:0px;word-spacing:0px;-inkscape-font-specification:'Comic Sans MS';font-stretch:normal;font-variant:normal"><flowRegion
         id="flowRegion133"><rect
           id="rect135"
           width="270"
           height="47.142857"
           x="941.42859"
           y="221.42857" /></flowRegion><flowPara
         id="flowPara137"></flowPara></flowRoot>    <text
       xml:space="preserve"
       style="font-style:normal;font-variant:normal;font-weight:normal;font-stretch:normal;font-size:17.66893959px;line-height:1.25;font-family:'Comic Sans MS';-inkscape-font-specification:'Comic Sans MS';text-align:center;letter-spacing:0px;word-spacing:0px;text-anchor:middle;fill:#000000;fill-opacity:1;stroke:none;stroke-width:0.44172347"
       x="255.07684"
       y="170.72876"
       id="text143"><tspan
         sodipodi:role="line"
         id="tspan141"
         x="255.07684"
         y="170.72876"
         style="text-align:center;text-anchor:middle;stroke-width:0.44172347">Aber wenn du freies WLAN genauso toll findest wie wir,</tspan><tspan
         sodipodi:role="line"
         x="255.07684"
         y="198.12633"
         style="font-style:normal;font-variant:normal;font-weight:bold;font-stretch:normal;font-size:23.55858612px;font-family:'Comic Sans MS';-inkscape-font-specification:'Comic Sans MS Bold';text-align:center;text-anchor:middle;stroke-width:0.44172347"
         id="tspan145">dann suchen wir dich!</tspan></text>
    <g
       id="g284"
       transform="matrix(0.35458282,0,0,0.35458282,9.7339503,188.53809)">
      <g
         aria-label="Chaos Computer Club Darmstadt e.V."
         style="font-style:normal;font-variant:normal;font-weight:bold;font-stretch:normal;font-size:31.00409889px;line-height:1;font-family:'Comic Sans MS';-inkscape-font-specification:'Comic Sans MS Bold';text-align:center;letter-spacing:0px;word-spacing:0px;text-anchor:middle;fill:#f47216;fill-opacity:1;stroke:none;stroke-width:0.77510244"
         id="text72">
        <path
           d="m 16.380537,236.57959 q -1.362485,0 -2.013449,-1.43817 -0.302775,-0.68125 -0.605549,-0.81749 -0.227081,-0.10598 -1.195959,-0.10598 -1.907479,0 -4.4053678,2.96719 -3.4970443,4.14801 -3.4970443,7.76617 0,1.65012 1.1051266,2.83094 1.1051265,1.18082 2.649276,1.18082 1.4987333,0 3.0428825,-0.78722 0.544994,-0.28763 2.301086,-1.48359 1.18082,-0.78721 1.786369,-0.78721 0.908323,0 1.544149,0.6661 0.59041,0.62069 0.59041,1.42304 0,0.89318 -0.787213,1.55929 -4.163148,3.51218 -8.4776835,3.51218 -3.4062121,0 -5.7527137,-2.48275 -2.24053056,-2.39192 -2.24053056,-5.6316 0,-5.07147 4.43564496,-10.35489 3.7695414,-4.48106 7.7056088,-4.48106 0.666103,0 1.195959,0.0454 0.544994,0.0454 0.953739,0.13625 0.666104,-0.65097 1.604704,-0.65097 1.54415,0 1.907479,1.77123 0.257358,1.27165 0.257358,2.96719 0,0.75694 -0.439022,1.37762 -0.575272,0.81749 -1.66526,0.81749 z"
           style="line-height:1;stroke-width:0.77510244"
           id="path3884"
           inkscape:connector-curvature="0" />
        <path
           d="m 24.903638,238.8504 q 1.105126,-1.08999 2.36164,-1.61984 1.271652,-0.54499 2.709831,-0.54499 2.588721,0 3.724125,1.45331 0.847768,1.08999 1.029433,3.34566 0.07569,1.86206 0.166526,3.73926 0.242219,2.43734 0.302774,2.96719 0.211942,1.6804 0.514717,2.93691 0.07569,0.31792 0.07569,0.56014 0,0.84777 -0.650965,1.39276 -0.635826,0.56013 -1.498733,0.56013 -1.529011,0 -1.983172,-1.51387 -0.363329,-1.22624 -0.666104,-3.45163 -0.272497,-2.13456 -0.272497,-3.51218 0,-0.37847 0.03028,-1.13541 0.04542,-0.77207 0.04542,-1.15054 0,-1.12026 -0.03028,-1.30193 -0.136248,-0.83263 -0.787213,-0.83263 -1.680398,0 -3.042883,1.54415 -0.696381,0.77208 -1.907479,2.93691 0,5.48022 -0.529855,6.60049 -0.59041,1.24137 -1.877201,1.24137 -0.847768,0 -1.513872,-0.56013 -0.650965,-0.57527 -0.650965,-1.4079 0,-0.28764 0.166526,-0.80235 0.105971,-0.33306 0.181664,-4.08746 -0.07569,-3.04288 0.03028,-10.1278 l 0.03028,-0.49958 q 0.09083,-1.78637 0.09083,-2.39192 0,-0.4693 -0.151388,-1.37762 -0.136248,-0.92346 -0.136248,-1.39276 0,-0.86291 0.620688,-1.40791 0.620687,-0.56013 1.498733,-0.56013 1.498733,0 2.01345,1.60471 0.287635,0.90832 0.287635,2.78552 0,1.51387 -0.09083,3.07316 -0.09083,1.4836 -0.09083,2.93691 z"
           style="line-height:1;stroke-width:0.77510244"
           id="path3886"
           inkscape:connector-curvature="0" />
        <path
           d="m 51.396395,253.70149 q -0.696381,0 -2.210253,-1.51387 -1.392762,0.6661 -2.452473,0.99915 -1.05971,0.34819 -1.801507,0.34819 -3.648432,0 -5.480217,-1.95289 -1.816646,-1.9529 -1.816646,-5.84355 0,-3.64843 2.694692,-6.23715 2.694692,-2.60386 6.449095,-2.60386 1.438178,0 3.330518,0.81749 2.285947,0.98402 2.285947,2.28595 0,0.54499 -0.348191,0.95373 -0.151387,0.60555 -0.242219,1.52902 -0.07569,0.90832 -0.07569,2.13455 0,2.8915 0.408746,4.16315 0.04542,0.13625 0.696381,1.57443 0.59041,1.30193 0.59041,1.48359 0,0.80236 -0.620688,1.33221 -0.605549,0.52986 -1.407901,0.52986 z m -3.754402,-10.38516 q 0,-0.48444 0.06056,-1.10513 0.07569,-0.63583 0.211942,-1.4079 -0.302775,-0.15139 -0.544994,-0.21194 -0.227081,-0.0757 -0.393607,-0.0757 -2.058866,0 -3.603015,1.61984 -1.54415,1.60471 -1.54415,3.72413 0,2.02859 0.726659,3.05802 0.726658,1.0143 2.179975,1.0143 0.938601,0 1.771231,-0.30278 0.847768,-0.31791 1.589565,-0.92346 -0.454161,-3.60302 -0.454161,-5.38938 z"
           style="line-height:1;stroke-width:0.77510244"
           id="path3888"
           inkscape:connector-curvature="0" />
        <path
           d="m 61.826973,253.59552 q -2.800663,0 -4.814113,-1.92262 -2.210253,-2.10428 -2.316224,-5.61647 -0.105971,-3.34565 1.831785,-5.96465 2.301085,-3.0883 6.403679,-3.0883 3.027744,0 4.814113,2.42219 1.604704,2.17998 1.604704,5.40453 0,3.51218 -1.877201,5.99493 -2.104282,2.77039 -5.646743,2.77039 z m 0.908323,-12.59542 q -1.862062,-0.0151 -2.936911,1.69554 -0.908324,1.43818 -0.908324,3.36079 0,1.81665 1.029433,2.78553 0.817491,0.77207 1.907479,0.77207 1.317069,0 2.285947,-0.89318 1.105126,-1.04457 1.18082,-2.83094 0.196803,-4.87467 -2.558444,-4.88981 z"
           style="line-height:1;stroke-width:0.77510244"
           id="path3890"
           inkscape:connector-curvature="0" />
        <path
           d="m 82.53674,241.62079 q -1.498733,0 -1.801508,-1.25652 -0.605548,-0.10597 -1.241375,-0.10597 -3.648431,0 -3.648431,0.99916 0,0.59041 2.195114,1.58956 2.997467,1.37763 4.057177,2.1497 2.195115,1.58957 2.195115,3.58788 0,2.60386 -2.422196,3.95121 -1.952894,1.07484 -4.798974,1.07484 -2.01345,0 -3.678709,-0.62068 -2.270808,-0.84777 -2.270808,-2.49789 0,-1.51387 1.801508,-1.51387 0.696381,0 2.01345,0.43902 1.317068,0.43902 2.028588,0.43902 3.07316,0 3.088299,-1.24137 0,-0.77208 -2.134559,-1.71068 -3.118577,-1.37762 -3.996623,-1.98317 -2.134559,-1.49873 -2.134559,-3.64843 0,-3.04288 3.224547,-4.1026 1.89234,-0.62068 5.752714,-0.62068 1.513872,0 2.240531,0.3936 0.999155,0.52986 0.999155,1.9529 0,2.72497 -1.468456,2.72497 z"
           style="line-height:1;stroke-width:0.77510244"
           id="path3892"
           inkscape:connector-curvature="0" />
        <path
           d="m 115.56943,236.57959 q -1.36248,0 -2.01345,-1.43817 -0.30277,-0.68125 -0.60555,-0.81749 -0.22708,-0.10598 -1.19595,-0.10598 -1.90748,0 -4.40537,2.96719 -3.49705,4.14801 -3.49705,7.76617 0,1.65012 1.10513,2.83094 1.10513,1.18082 2.64928,1.18082 1.49873,0 3.04288,-0.78722 0.54499,-0.28763 2.30108,-1.48359 1.18083,-0.78721 1.78637,-0.78721 0.90833,0 1.54415,0.6661 0.59041,0.62069 0.59041,1.42304 0,0.89318 -0.78721,1.55929 -4.16315,3.51218 -8.47768,3.51218 -3.40622,0 -5.75272,-2.48275 -2.240528,-2.39192 -2.240528,-5.6316 0,-5.07147 4.435648,-10.35489 3.76954,-4.48106 7.70561,-4.48106 0.6661,0 1.19595,0.0454 0.545,0.0454 0.95374,0.13625 0.66611,-0.65097 1.60471,-0.65097 1.54415,0 1.90748,1.77123 0.25736,1.27165 0.25736,2.96719 0,0.75694 -0.43903,1.37762 -0.57527,0.81749 -1.66526,0.81749 z"
           style="line-height:1;stroke-width:0.77510244"
           id="path3894"
           inkscape:connector-curvature="0" />
        <path
           d="m 125.83349,253.59552 q -2.80066,0 -4.81411,-1.92262 -2.21026,-2.10428 -2.31623,-5.61647 -0.10597,-3.34565 1.83179,-5.96465 2.30108,-3.0883 6.40368,-3.0883 3.02774,0 4.81411,2.42219 1.6047,2.17998 1.6047,5.40453 0,3.51218 -1.8772,5.99493 -2.10428,2.77039 -5.64674,2.77039 z m 0.90832,-12.59542 q -1.86206,-0.0151 -2.93691,1.69554 -0.90832,1.43818 -0.90832,3.36079 0,1.81665 1.02943,2.78553 0.81749,0.77207 1.90748,0.77207 1.31707,0 2.28595,-0.89318 1.10512,-1.04457 1.18082,-2.83094 0.1968,-4.87467 -2.55845,-4.88981 z"
           style="line-height:1;stroke-width:0.77510244"
           id="path3896"
           inkscape:connector-curvature="0" />
        <path
           d="m 139.80653,239.30456 q 2.28594,-2.64927 4.32967,-2.64927 2.33136,0 3.42135,1.77123 0.92346,-0.81749 2.04373,-1.22624 1.12026,-0.40874 2.42219,-0.40874 2.96719,0 4.0269,2.95205 0.21194,0.60555 0.65097,4.10259 0.42388,2.45247 1.08998,8.17491 0.0606,0.86291 -0.59041,1.42304 -0.65096,0.56013 -1.52901,0.56013 -1.74095,0 -2.04372,-1.72581 -0.2725,-1.55929 -0.56014,-4.40537 -0.30277,-3.11858 -0.49957,-4.42051 -0.40875,-2.70983 -1.04458,-2.70983 -0.34819,0 -1.58956,0.69638 -1.24138,0.69638 -1.81665,1.19596 0,1.72582 0.40875,4.9655 0.42388,3.31538 0.42388,4.9655 0,0.86291 -0.59041,1.43818 -0.59041,0.57527 -1.49873,0.57527 -0.90832,0 -1.49873,-0.57527 -0.59041,-0.57527 -0.59041,-1.43818 0,-1.72581 -0.37847,-5.07147 -0.36333,-3.36079 -0.36333,-5.08661 0,-0.96888 -0.16653,-1.54415 -1.75609,1.0143 -3.52732,3.37594 -0.0757,0.10597 -0.25736,0.31791 -0.0606,3.05802 -0.0606,4.79897 0,0.42389 -0.0303,1.15055 -0.0303,0.71152 -0.0303,1.05971 0,0.81749 -0.6661,1.28679 -0.60555,0.43902 -1.49873,0.43902 -1.2868,0 -1.74096,-1.12026 -0.31791,-0.75694 -0.31791,-2.40706 v -5.6316 q 0,-0.75694 -0.0606,-2.21026 -0.0606,-1.46845 -0.0606,-2.22539 0,-1.34735 0.48444,-2.43733 0.59041,-1.36249 1.66526,-1.36249 0.84777,0 1.51387,0.66611 0.6661,0.65096 0.6661,1.43817 0,-0.31791 -0.13624,1.30193 z"
           style="line-height:1;stroke-width:0.77510244"
           id="path3898"
           inkscape:connector-curvature="0" />
        <path
           d="m 166.98053,253.59552 q -1.30193,0 -2.74011,-0.30278 l -0.0151,6.1766 q 0,0.87805 -0.59041,1.45332 -0.59041,0.57527 -1.49873,0.57527 -0.90832,0 -1.49873,-0.57527 -0.59041,-0.57527 -0.59041,-1.45332 0,-0.71152 0.0303,-5.64674 0.0303,-3.66357 0,-5.9798 -0.0454,-3.26996 -0.21194,-5.6316 -0.22708,-3.25483 -0.22708,-2.98233 0,-1.25651 0.56013,-2.1497 0.65097,-1.01429 1.7561,-1.01429 0.84776,0 1.42304,0.57527 0.57527,0.57527 0.57527,1.37762 l -0.0151,0.15139 q 1.01429,-0.57527 2.02859,-0.84777 1.02943,-0.28763 2.05886,-0.28763 3.48191,0 5.08661,2.95205 1.19596,2.22539 1.19596,5.76785 0,3.31538 -1.89234,5.49535 -2.02859,2.34651 -5.4348,2.34651 z m 1.04457,-12.51973 q -0.95374,0 -1.93775,0.45417 -0.98402,0.43902 -1.98318,1.3322 0.18167,3.11858 0.18167,6.25229 1.34734,0.43903 2.69469,0.43903 1.55929,0 2.39192,-1.10513 0.75693,-0.99915 0.75693,-2.69469 0,-2.04373 -0.18166,-2.83094 -0.43902,-1.84693 -1.92262,-1.84693 z"
           style="line-height:1;stroke-width:0.77510244"
           id="path3900"
           inkscape:connector-curvature="0" />
        <path
           d="m 189.84,243.95215 q 0,1.0143 0.0151,3.05802 0.0151,2.04373 0.0151,3.05802 0,0.31792 0.0454,0.95374 0.0606,0.62069 0.0606,0.9386 0,0.84777 -0.62069,1.39277 -0.60555,0.56013 -1.49873,0.56013 -1.25651,0 -1.83179,-1.1354 -1.93775,0.71151 -4.01176,0.71151 -2.14969,0 -3.61815,-0.90832 -1.65012,-1.04457 -1.96803,-3.04288 -0.59041,-3.78468 -0.59041,-6.76701 0,-1.96803 0.45416,-4.4962 0.30277,-1.71067 2.04372,-1.71067 0.87805,0 1.49874,0.56013 0.62069,0.54499 0.62069,1.39276 0,0.6661 -0.22709,2.08914 -0.21194,1.42304 -0.21194,2.16484 0,2.13456 0.13625,3.73926 0.15139,1.58957 0.43902,2.63414 0.37847,0.16653 0.72666,0.25736 0.36333,0.0908 0.69638,0.0908 1.6804,0 3.69385,-0.48444 0,-1.16568 -0.0151,-2.64927 -0.0303,-1.77123 -0.0303,-2.54331 0,-3.10343 0.28763,-5.3591 0.22708,-1.80151 2.05887,-1.80151 0.89318,0 1.52901,0.56013 0.63582,0.56013 0.59041,1.4079 -0.28764,5.76785 -0.28764,5.32883 z"
           style="line-height:1;stroke-width:0.77510244"
           id="path3902"
           inkscape:connector-curvature="0" />
        <path
           d="m 203.37401,240.51566 q -0.31791,0 -0.75694,-0.0151 -0.42388,-0.0303 -0.74179,-0.0303 -0.62069,0 -1.43818,0.12111 0.27249,6.11604 0.27249,7.99324 0,0.1968 0.0151,0.7418 0.0151,0.52985 0.0151,0.8629 0,3.48191 -2.19511,3.48191 -0.83263,0 -1.43818,-0.51472 -0.6661,-0.54499 -0.6661,-1.36248 0,-0.545 0.0454,-1.63498 0.0454,-1.08999 0.0454,-1.63499 0,-1.83178 -0.2725,-7.84185 -0.9386,-0.0454 -2.84608,-0.24222 -1.89234,-0.21194 -1.89234,-1.96804 0,-0.84776 0.57527,-1.43817 0.57527,-0.59041 1.4836,-0.59041 0.56013,0 2.57358,0.18166 -0.0151,-0.48444 -0.0757,-1.6047 -0.0606,-0.96888 -0.0606,-1.49874 0,-0.84777 0.62069,-1.4079 0.62069,-0.56013 1.49873,-0.56013 2.24053,0 2.24053,3.76954 l -0.0303,1.24138 q 0.9386,-0.13625 1.52901,-0.13625 1.74095,0 2.37677,0.22708 1.2111,0.42388 1.2111,1.84692 0,0.86291 -0.59041,1.43818 -0.59041,0.57527 -1.49873,0.57527 z"
           style="line-height:1;stroke-width:0.77510244"
           id="path3904"
           inkscape:connector-curvature="0" />
        <path
           d="m 214.90971,253.39871 q -3.61816,0 -5.91924,-1.72581 -2.54331,-1.90748 -2.54331,-5.37425 0,-3.83009 2.01345,-6.47937 2.24053,-2.93691 6.04035,-2.93691 2.63414,0 4.37509,0.84777 2.28595,1.12026 2.28595,3.4819 0,1.66526 -1.86206,2.95205 -0.84777,0.59041 -3.40622,1.72582 l -5.10174,2.25567 q 0.72665,0.78721 1.75609,1.18082 1.02943,0.3936 2.36164,0.3936 2.02859,0 3.43649,-0.83263 1.25651,-0.74179 2.01345,-0.74179 1.57442,0 1.57442,1.52901 0,1.72581 -2.52816,2.8158 -2.11942,0.90832 -4.4962,0.90832 z m -0.40875,-12.85277 q -1.4079,0 -2.40705,0.9386 -0.99916,0.9386 -1.60471,2.8158 1.71068,-0.7418 3.40621,-1.46845 2.04373,-0.92347 3.25483,-1.71068 -1.0143,-0.57527 -2.64928,-0.57527 z"
           style="line-height:1;stroke-width:0.77510244"
           id="path3906"
           inkscape:connector-curvature="0" />
        <path
           d="m 237.28473,241.78731 q -0.13624,2.31623 -2.10428,2.31623 -1.90748,0 -1.90748,-1.96804 l -0.0757,-1.52901 q -3.40621,0.545 -4.87467,3.49705 l 0.0151,7.61477 q 0,0.86291 -0.59041,1.42304 -0.59041,0.57528 -1.49873,0.57528 -0.9386,0 -1.45332,-0.60555 -0.48444,-0.545 -0.48444,-1.39277 v -9.91586 q 0,-0.4693 0.0303,-1.39276 0.0303,-0.9386 0.0303,-1.4079 0,-0.84777 0.49957,-1.4079 0.51472,-0.57527 1.45332,-0.57527 1.6804,0 1.99831,1.72581 2.67956,-1.99831 5.94952,-1.99831 3.02774,0 3.02774,4.0269 0,0.77207 -0.0151,1.01429 z"
           style="line-height:1;stroke-width:0.77510244"
           id="path3908"
           inkscape:connector-curvature="0" />
        <path
           d="m 268.10718,236.57959 q -1.36249,0 -2.01345,-1.43817 -0.30278,-0.68125 -0.60555,-0.81749 -0.22708,-0.10598 -1.19596,-0.10598 -1.90748,0 -4.40537,2.96719 -3.49704,4.14801 -3.49704,7.76617 0,1.65012 1.10512,2.83094 1.10513,1.18082 2.64928,1.18082 1.49873,0 3.04288,-0.78722 0.545,-0.28763 2.30109,-1.48359 1.18082,-0.78721 1.78637,-0.78721 0.90832,0 1.54415,0.6661 0.59041,0.62069 0.59041,1.42304 0,0.89318 -0.78722,1.55929 -4.16315,3.51218 -8.47768,3.51218 -3.40621,0 -5.75271,-2.48275 -2.24053,-2.39192 -2.24053,-5.6316 0,-5.07147 4.43564,-10.35489 3.76954,-4.48106 7.70561,-4.48106 0.6661,0 1.19596,0.0454 0.54499,0.0454 0.95374,0.13625 0.6661,-0.65097 1.6047,-0.65097 1.54415,0 1.90748,1.77123 0.25736,1.27165 0.25736,2.96719 0,0.75694 -0.43902,1.37762 -0.57528,0.81749 -1.66526,0.81749 z"
           style="line-height:1;stroke-width:0.77510244"
           id="path3910"
           inkscape:connector-curvature="0" />
        <path
           d="m 276.79681,250.47694 q 0,2.87636 -2.08914,2.87636 -0.90832,0 -1.49873,-0.57527 -0.59041,-0.57528 -0.59041,-1.4836 v -20.93685 q 0,-0.87805 0.63582,-1.43818 0.60555,-0.51471 1.49873,-0.51471 0.89319,0 1.46846,0.54499 0.57527,0.52985 0.57527,1.4079 z"
           style="line-height:1;stroke-width:0.77510244"
           id="path3912"
           inkscape:connector-curvature="0" />
        <path
           d="m 293.87327,243.95215 q 0,1.0143 0.0151,3.05802 0.0151,2.04373 0.0151,3.05802 0,0.31792 0.0454,0.95374 0.0605,0.62069 0.0605,0.9386 0,0.84777 -0.62068,1.39277 -0.60555,0.56013 -1.49874,0.56013 -1.25651,0 -1.83178,-1.1354 -1.93776,0.71151 -4.01176,0.71151 -2.1497,0 -3.61816,-0.90832 -1.65012,-1.04457 -1.96803,-3.04288 -0.59041,-3.78468 -0.59041,-6.76701 0,-1.96803 0.45416,-4.4962 0.30278,-1.71067 2.04373,-1.71067 0.87804,0 1.49873,0.56013 0.62069,0.54499 0.62069,1.39276 0,0.6661 -0.22708,2.08914 -0.21194,1.42304 -0.21194,2.16484 0,2.13456 0.13625,3.73926 0.15138,1.58957 0.43902,2.63414 0.37847,0.16653 0.72666,0.25736 0.36333,0.0908 0.69638,0.0908 1.6804,0 3.69385,-0.48444 0,-1.16568 -0.0151,-2.64927 -0.0303,-1.77123 -0.0303,-2.54331 0,-3.10343 0.28763,-5.3591 0.22709,-1.80151 2.05887,-1.80151 0.89319,0 1.52901,0.56013 0.63583,0.56013 0.59041,1.4079 -0.28763,5.76785 -0.28763,5.32883 z"
           style="line-height:1;stroke-width:0.77510244"
           id="path3914"
           inkscape:connector-curvature="0" />
        <path
           d="m 303.91024,253.33816 q -2.11942,0 -4.0269,-0.7418 -0.56013,0.56013 -1.36248,0.56013 -0.81749,0 -1.4079,-0.54499 -0.57527,-0.54499 -0.57527,-1.36249 0,-0.36332 0.0454,-1.10512 0.0454,-0.75694 0.0454,-1.12027 v -17.15217 q 0,-1.08999 0.48444,-1.93775 0.60555,-1.07485 1.72581,-1.07485 1.61985,0 1.61985,1.75609 0,0.1968 -0.0606,0.63583 -0.0454,0.42388 -0.0454,0.62068 v 5.79813 q 1.12026,-0.62069 2.14969,-0.92346 1.02944,-0.31791 1.98318,-0.31791 3.55759,0 5.75271,2.58872 2.04373,2.42219 2.04373,5.87382 0,3.51219 -2.37678,5.94952 -2.4222,2.49789 -5.99494,2.49789 z m 0.57528,-13.03444 q -0.78722,0 -1.81665,0.45416 -1.02943,0.45416 -2.31622,1.36249 -0.0151,1.43817 0,6.43395 2.074,0.89319 3.55759,0.89319 1.92262,0 3.164,-1.28679 1.24137,-1.30193 1.24137,-3.26997 0,-1.96803 -1.01429,-3.25482 -1.05971,-1.33221 -2.8158,-1.33221 z"
           style="line-height:1;stroke-width:0.77510244"
           id="path3916"
           inkscape:connector-curvature="0" />
        <path
           d="m 42.388859,283.85782 q -0.893185,-0.0151 -1.498734,-0.60555 -0.605549,-0.60555 -0.605549,-1.45332 0,-1.51387 0.136249,-4.54161 0.151387,-3.02775 0.151387,-4.54162 0,-1.6804 -0.07569,-5.04119 -0.06056,-3.3608 -0.06056,-5.0412 0,-0.83263 0.802352,-1.65012 0.802352,-0.83263 1.710675,-0.83263 0.499578,0 2.513028,0.9386 2.346501,1.12027 2.785524,1.25652 4.435645,1.43817 7.56936,4.45078 3.739264,3.58788 3.739264,7.93269 0,2.619 -1.286791,4.98064 -1.286791,2.40705 -3.527322,3.86037 -2.513027,1.63498 -7.069782,1.63498 -1.105127,0 -2.543305,-0.31791 -1.740953,-0.39361 -2.740108,-1.02943 z m 8.50796,-15.56261 q -1.468456,-0.92346 -6.297707,-2.90663 v 14.98733 q 0.59041,0.37847 1.347346,0.57527 0.772074,0.18167 1.710675,0.18167 3.269964,0 4.693003,-0.90833 1.347346,-0.8629 2.13456,-2.3465 0.802352,-1.48359 0.802352,-3.0883 0,-3.7544 -4.390229,-6.49451 z"
           style="line-height:1;stroke-width:0.77510244"
           id="path3918"
           inkscape:connector-curvature="0" />
        <path
           d="m 75.13391,284.70559 q -0.696381,0 -2.210253,-1.51388 -1.392762,0.66611 -2.452473,0.99916 -1.05971,0.34819 -1.801507,0.34819 -3.648432,0 -5.480217,-1.95289 -1.816646,-1.9529 -1.816646,-5.84355 0,-3.64843 2.694692,-6.23715 2.694692,-2.60386 6.449095,-2.60386 1.438178,0 3.330518,0.81749 2.285947,0.98401 2.285947,2.28594 0,0.545 -0.348191,0.95374 -0.151387,0.60555 -0.242219,1.52901 -0.07569,0.90833 -0.07569,2.13456 0,2.8915 0.408746,4.16315 0.04542,0.13625 0.696381,1.57443 0.59041,1.30193 0.59041,1.48359 0,0.80236 -0.620688,1.33221 -0.605549,0.52986 -1.407901,0.52986 z m -3.754402,-10.38517 q 0,-0.48444 0.06055,-1.10512 0.07569,-0.63583 0.211942,-1.4079 -0.302775,-0.15139 -0.544994,-0.21195 -0.227081,-0.0757 -0.393607,-0.0757 -2.058866,0 -3.603015,1.61984 -1.54415,1.60471 -1.54415,3.72413 0,2.02859 0.726659,3.05802 0.726658,1.01429 2.179975,1.01429 0.938601,0 1.771231,-0.30277 0.847768,-0.31791 1.589565,-0.92346 -0.454161,-3.60302 -0.454161,-5.38939 z"
           style="line-height:1;stroke-width:0.77510244"
           id="path3920"
           inkscape:connector-curvature="0" />
        <path
           d="m 92.013581,272.79141 q -0.136249,2.31623 -2.104282,2.31623 -1.907479,0 -1.907479,-1.96804 l -0.07569,-1.52901 q -3.406212,0.545 -4.874667,3.49705 l 0.01514,7.61477 q 0,0.86291 -0.59041,1.42304 -0.59041,0.57527 -1.498733,0.57527 -0.938601,0 -1.453317,-0.60554 -0.484439,-0.545 -0.484439,-1.39277 v -9.91586 q 0,-0.4693 0.03028,-1.39276 0.03028,-0.9386 0.03028,-1.4079 0,-0.84777 0.499577,-1.4079 0.514717,-0.57527 1.453318,-0.57527 1.680397,0 1.998311,1.72581 2.679553,-1.99831 5.949517,-1.99831 3.027744,0 3.027744,4.0269 0,0.77207 -0.01514,1.01429 z"
           style="line-height:1;stroke-width:0.77510244"
           id="path3922"
           inkscape:connector-curvature="0" />
        <path
           d="m 98.144765,270.30866 q 2.285945,-2.64927 4.329675,-2.64927 2.33136,0 3.42135,1.77123 0.92346,-0.81749 2.04373,-1.22624 1.12026,-0.40874 2.42219,-0.40874 2.96719,0 4.0269,2.95205 0.21194,0.60554 0.65097,4.10259 0.42388,2.45247 1.08998,8.17491 0.0606,0.86291 -0.59041,1.42304 -0.65096,0.56013 -1.52901,0.56013 -1.74095,0 -2.04372,-1.72581 -0.2725,-1.55929 -0.56014,-4.40537 -0.30277,-3.11858 -0.49957,-4.42051 -0.40875,-2.70983 -1.04458,-2.70983 -0.34819,0 -1.58956,0.69638 -1.24138,0.69638 -1.81665,1.19596 0,1.72582 0.40875,4.9655 0.42388,3.31538 0.42388,4.9655 0,0.86291 -0.59041,1.43818 -0.59041,0.57527 -1.49873,0.57527 -0.90832,0 -1.49873,-0.57527 -0.59041,-0.57527 -0.59041,-1.43818 0,-1.72581 -0.37847,-5.07147 -0.36333,-3.3608 -0.36333,-5.08661 0,-0.96888 -0.16653,-1.54415 -1.75609,1.0143 -3.527319,3.37594 -0.07569,0.10597 -0.257359,0.31791 -0.06055,3.05802 -0.06055,4.79897 0,0.42389 -0.03028,1.15055 -0.03028,0.71152 -0.03028,1.05971 0,0.81749 -0.666104,1.28679 -0.605549,0.43902 -1.498733,0.43902 -1.286792,0 -1.740953,-1.12026 -0.317913,-0.75694 -0.317913,-2.40706 v -5.63161 q 0,-0.75693 -0.06056,-2.21025 -0.06055,-1.46845 -0.06055,-2.22539 0,-1.34735 0.484439,-2.43733 0.59041,-1.36249 1.665259,-1.36249 0.847768,0 1.513872,0.6661 0.666104,0.65097 0.666104,1.43818 0,-0.31791 -0.136249,1.30193 z"
           style="line-height:1;stroke-width:0.77510244"
           id="path3924"
           inkscape:connector-curvature="0" />
        <path
           d="m 128.98234,272.62489 q -1.49874,0 -1.80151,-1.25652 -0.60555,-0.10597 -1.24138,-0.10597 -3.64843,0 -3.64843,0.99916 0,0.59041 2.19512,1.58956 2.99746,1.37763 4.05717,2.1497 2.19512,1.58957 2.19512,3.58788 0,2.60386 -2.4222,3.9512 -1.95289,1.07485 -4.79897,1.07485 -2.01345,0 -3.67871,-0.62068 -2.27081,-0.84777 -2.27081,-2.49789 0,-1.51387 1.80151,-1.51387 0.69638,0 2.01345,0.43902 1.31707,0.43902 2.02859,0.43902 3.07316,0 3.0883,-1.24137 0,-0.77208 -2.13456,-1.71068 -3.11858,-1.37762 -3.99662,-1.98317 -2.13456,-1.49874 -2.13456,-3.64843 0,-3.04289 3.22454,-4.1026 1.89234,-0.62068 5.75272,-0.62068 1.51387,0 2.24053,0.3936 0.99915,0.52986 0.99915,1.9529 0,2.72497 -1.46845,2.72497 z"
           style="line-height:1;stroke-width:0.77510244"
           id="path3926"
           inkscape:connector-curvature="0" />
        <path
           d="m 144.09078,271.51976 q -0.31792,0 -0.75694,-0.0151 -0.42388,-0.0303 -0.7418,-0.0303 -0.62068,0 -1.43817,0.12111 0.27249,6.11605 0.27249,7.99325 0,0.1968 0.0151,0.7418 0.0151,0.52985 0.0151,0.8629 0,3.48191 -2.19511,3.48191 -0.83263,0 -1.43818,-0.51472 -0.66611,-0.54499 -0.66611,-1.36248 0,-0.545 0.0454,-1.63498 0.0454,-1.08999 0.0454,-1.63499 0,-1.83178 -0.2725,-7.84185 -0.9386,-0.0454 -2.84608,-0.24222 -1.89234,-0.21194 -1.89234,-1.96804 0,-0.84776 0.57527,-1.43817 0.57527,-0.59042 1.4836,-0.59042 0.56013,0 2.57358,0.18167 -0.0151,-0.48444 -0.0757,-1.6047 -0.0606,-0.96888 -0.0606,-1.49874 0,-0.84777 0.62069,-1.4079 0.62069,-0.56013 1.49873,-0.56013 2.24053,0 2.24053,3.76954 l -0.0303,1.24137 q 0.9386,-0.13624 1.52901,-0.13624 1.74096,0 2.37678,0.22708 1.2111,0.42388 1.2111,1.84692 0,0.86291 -0.59041,1.43818 -0.59041,0.57527 -1.49873,0.57527 z"
           style="line-height:1;stroke-width:0.77510244"
           id="path3928"
           inkscape:connector-curvature="0" />
        <path
           d="m 161.06128,284.70559 q -0.69638,0 -2.21025,-1.51388 -1.39276,0.66611 -2.45247,0.99916 -1.05971,0.34819 -1.80151,0.34819 -3.64843,0 -5.48022,-1.95289 -1.81664,-1.9529 -1.81664,-5.84355 0,-3.64843 2.69469,-6.23715 2.69469,-2.60386 6.44909,-2.60386 1.43818,0 3.33052,0.81749 2.28595,0.98401 2.28595,2.28594 0,0.545 -0.34819,0.95374 -0.15139,0.60555 -0.24222,1.52901 -0.0757,0.90833 -0.0757,2.13456 0,2.8915 0.40874,4.16315 0.0454,0.13625 0.69638,1.57443 0.59041,1.30193 0.59041,1.48359 0,0.80236 -0.62068,1.33221 -0.60555,0.52986 -1.40791,0.52986 z m -3.7544,-10.38517 q 0,-0.48444 0.0606,-1.10512 0.0757,-0.63583 0.21194,-1.4079 -0.30278,-0.15139 -0.545,-0.21195 -0.22708,-0.0757 -0.3936,-0.0757 -2.05887,0 -3.60302,1.61984 -1.54415,1.60471 -1.54415,3.72413 0,2.02859 0.72666,3.05802 0.72666,1.01429 2.17998,1.01429 0.9386,0 1.77123,-0.30277 0.84777,-0.31791 1.58956,-0.92346 -0.45416,-3.60302 -0.45416,-5.38939 z"
           style="line-height:1;stroke-width:0.77510244"
           id="path3930"
           inkscape:connector-curvature="0" />
        <path
           d="m 176.33625,268.49202 q 0.19681,-5.16231 0.4693,-7.13034 0.25736,-1.78637 1.96804,-1.78637 0.89318,0 1.43817,0.57527 0.545,0.57527 0.545,1.4079 0,2.19512 -0.34819,6.53993 -0.33305,4.34481 -0.33305,6.53993 0,5.3591 0.34819,7.17575 0.0454,0.24222 0.0454,0.43902 0,0.83263 -0.60555,1.37763 -0.60554,0.52985 -1.4079,0.52985 -1.12026,0 -1.66526,-0.99915 -1.02943,0.62068 -2.13456,0.92346 -1.10512,0.31791 -2.28594,0.31791 -3.39108,0 -5.63161,-2.16484 -2.28594,-2.21025 -2.28594,-5.6316 0,-4.07232 2.30108,-6.5702 2.30109,-2.51303 6.01007,-2.51303 1.13541,0 2.02859,0.24222 0.89319,0.24222 1.54415,0.72666 z m -0.30277,4.76869 q -0.49958,-0.95374 -1.30193,-1.42304 -0.80235,-0.4693 -1.90748,-0.4693 -2.24053,0 -3.3608,1.30193 -1.12026,1.28679 -1.12026,3.87552 0,1.63498 1.2111,2.80066 1.21109,1.16568 2.8158,1.16568 1.16568,0 1.77123,-0.2725 0.40874,-0.18166 1.39276,-0.96887 0.25736,-0.21195 0.49958,-0.4693 -0.0303,-0.72666 0,-5.54078 z"
           style="line-height:1;stroke-width:0.77510244"
           id="path3932"
           inkscape:connector-curvature="0" />
        <path
           d="m 194.16967,271.51976 q -0.31792,0 -0.75694,-0.0151 -0.42388,-0.0303 -0.7418,-0.0303 -0.62068,0 -1.43818,0.12111 0.2725,6.11605 0.2725,7.99325 0,0.1968 0.0151,0.7418 0.0151,0.52985 0.0151,0.8629 0,3.48191 -2.19512,3.48191 -0.83263,0 -1.43817,-0.51472 -0.66611,-0.54499 -0.66611,-1.36248 0,-0.545 0.0454,-1.63498 0.0454,-1.08999 0.0454,-1.63499 0,-1.83178 -0.27249,-7.84185 -0.9386,-0.0454 -2.84608,-0.24222 -1.89234,-0.21194 -1.89234,-1.96804 0,-0.84776 0.57527,-1.43817 0.57527,-0.59042 1.48359,-0.59042 0.56014,0 2.57359,0.18167 -0.0151,-0.48444 -0.0757,-1.6047 -0.0606,-0.96888 -0.0606,-1.49874 0,-0.84777 0.62069,-1.4079 0.62068,-0.56013 1.49873,-0.56013 2.24053,0 2.24053,3.76954 l -0.0303,1.24137 q 0.9386,-0.13624 1.52901,-0.13624 1.74096,0 2.37678,0.22708 1.2111,0.42388 1.2111,1.84692 0,0.86291 -0.59041,1.43818 -0.59041,0.57527 -1.49873,0.57527 z"
           style="line-height:1;stroke-width:0.77510244"
           id="path3934"
           inkscape:connector-curvature="0" />
        <path
           d="m 219.14856,284.40281 q -3.61816,0 -5.91924,-1.72581 -2.54331,-1.90748 -2.54331,-5.37425 0,-3.83009 2.01345,-6.47937 2.24053,-2.93691 6.04035,-2.93691 2.63414,0 4.37509,0.84777 2.28595,1.12026 2.28595,3.4819 0,1.66526 -1.86207,2.95205 -0.84776,0.59041 -3.40621,1.72582 l -5.10175,2.25567 q 0.72666,0.78721 1.7561,1.18082 1.02943,0.3936 2.36164,0.3936 2.02858,0 3.43648,-0.83263 1.25652,-0.74179 2.01345,-0.74179 1.57443,0 1.57443,1.52901 0,1.72581 -2.52816,2.8158 -2.11943,0.90832 -4.4962,0.90832 z m -0.40875,-12.85277 q -1.4079,0 -2.40706,0.9386 -0.99915,0.9386 -1.6047,2.8158 1.71067,-0.7418 3.40621,-1.46846 2.04373,-0.92346 3.25483,-1.71067 -1.0143,-0.57527 -2.64928,-0.57527 z"
           style="line-height:1;stroke-width:0.77510244"
           id="path3936"
           inkscape:connector-curvature="0" />
        <path
           d="m 233.96936,285.28086 q -1.01429,0 -1.75609,-0.63583 -0.7418,-0.62069 -0.7418,-1.4079 0,-0.80235 0.7418,-1.43818 0.7418,-0.65096 1.75609,-0.65096 1.07485,0 1.77123,0.60555 0.69638,0.60554 0.69638,1.48359 0,0.80235 -0.72666,1.42304 -0.72665,0.62069 -1.74095,0.62069 z"
           style="line-height:1;stroke-width:0.77510244"
           id="path3938"
           inkscape:connector-curvature="0" />
        <path
           d="m 250.33431,277.34817 q 2.28595,-5.75272 3.54246,-9.15893 0.66611,-1.80151 1.31707,-3.61815 0.89318,-2.1497 1.92262,-3.31538 0.68124,-0.77208 1.63498,-0.77208 0.86291,0 1.51387,0.60555 0.65097,0.59041 0.65097,1.45332 0,0.60555 -0.40875,1.19596 -0.81749,1.18082 -1.49873,2.84608 -0.0303,0.0605 -1.12027,2.99746 -1.36248,3.49705 -4.05717,10.49114 -0.69639,1.83178 -1.71068,3.66357 -0.65097,1.18082 -1.89234,1.18082 -1.57443,0 -2.19511,-1.4836 -1.84693,-4.40536 -4.1026,-12.70138 -0.62069,-2.04373 -1.25651,-4.08746 -0.84777,-2.84608 -0.84777,-3.9512 0,-0.89319 0.6661,-1.4836 0.63583,-0.54499 1.4836,-0.54499 1.45332,0 2.02859,1.51387 0.30277,1.31707 0.60555,2.619 0.49957,1.63498 1.43817,4.90494 1.18082,4.32968 2.28595,7.64506 z"
           style="line-height:1;stroke-width:0.77510244"
           id="path3940"
           inkscape:connector-curvature="0" />
        <path
           d="m 268.36453,285.28086 q -1.01429,0 -1.75609,-0.63583 -0.7418,-0.62069 -0.7418,-1.4079 0,-0.80235 0.7418,-1.43818 0.7418,-0.65096 1.75609,-0.65096 1.07485,0 1.77123,0.60555 0.69639,0.60554 0.69639,1.48359 0,0.80235 -0.72666,1.42304 -0.72666,0.62069 -1.74096,0.62069 z"
           style="line-height:1;stroke-width:0.77510244"
           id="path3942"
           inkscape:connector-curvature="0" />
      </g>
      <g
         id="g4271">
        <path
           style="fill:#f47216;fill-opacity:1;fill-rule:evenodd;stroke:none"
           id="path3000"
           d="m 151.3171,172.455 v 0 h 0.021 -48.328 C 84.447099,158.059 72.424099,135.586 72.424099,110.332 c 0,-43.442 35.337001,-78.672 78.914001,-78.672 31.536,0 59.007,18.894 71.646,45.56 0.529,-0.213 1.109,-0.405 1.742,-0.583 0.861,-0.251 1.752,-0.039 2.553,0.3 0.674,-2.811 4.582,-4.783 7.268,-3.733 0.704,-2.303 4.389,-4.074 6.658,-3.224 0.543,-1.355 1.965,-2.285 3.264,-2.785 l -0.001,-0.002 c 1.171,-0.385 2.2,-0.476 3.331,0.084 0.036,-0.163 0.063,-0.4 0.101,-0.657 C 231.2511,30.029 194.1161,3.618 151.3381,4.195 92.958099,4.207 45.617098,51.584 45.617098,110.003 c 0,58.419 47.341001,105.796 105.721002,105.807 44.965,0 83.458,-28.364 98.746,-67.968 -5.729,-6.316 -13.943,-10.203 -22.382,-12.657 -1.849,9.149 -5.065,16.379 -12.414,20.827 -4.412,6.077 -9.733,11.859 -15.642,16.443 z m 18.858,-103.657 c -1.578,0.551 -3.133,1.433 -4.908,2.853 -4.617,2.678 -10.259,1.288 -13.866,6.625 -0.867,1.301 -1.791,2.639 -2.969,3.681 L 81.774099,81.955 C 106.6151,21.057 192.4641,20.748 219.7731,79.415 c -0.804,0.994 -1.253,2.241 -1.414,3.845 -2.033,-5.018 -7.801,-11.261 -12.287,-12.999 -2.834,-1.097 -4.456,-0.363 -7.425,-0.825 -3.584,-0.556 -7.187,-1.032 -10.624,-2.35 -3.209,-0.902 -5.34,0.25 -8.221,0.645 m -7.569,2.102 c 0.789,-0.333 3.095,-0.204 3.799,0.155 6.43,1.726 12.48,10.253 12.621,15.967002 -7.777,1.698 -10.206,-6.467002 -15.66,-9.885002 -1.934,-1.212 -3.41,-1.797 -5.591,-3.297 l 1.064,-0.962 c 1.196,-1.078 2.467,-1.708 3.767,-1.978 M 151.3171,84.1 v 0 c 5.228,-0.365 11.653,0.924002 17.292,5.648002 -2.014,4.93 -13.395,3.277 -17.271,2.418 -3.439,-0.758 -7.176,-0.938 -10.389,-2.497 0.802,-4.669 6.484,-5.407002 10.368,-5.569002 m 0.021,10.236002 v 0 c 2.524,0.283 5.055,0.562 7.461,1.402 -1.281,8.413998 -15.106,6.952998 -20.517,5.837998 -3.613,-0.745 -5.478,-0.334 -9.163,-1.971997 5.044,-7.462001 14.449,-6.137001 22.219,-5.268001 m 0,16.249998 v 0 l -1.362,-0.346 c -5.877,5.682 -11.848,10.043 -19.752,12.682 -2.97,1.076 -3.967,2.141 -6.621,3.734 -1.556,0.932 -6.162,1.094 -7.918,1.475 -4.302,0.933 -6.555,1.371 -10.761,2.288 -4.478,0.973 -11.867001,-1.212 -13.352001,3.085 0.287,1.065 0.634,2.121 1.036,3.164 1.997,0.252 3.83,-0.43 6.214004,-0.192 2.494997,0.247 4.097997,-1.589 6.822997,-1.555 1.994,-3.587 13.515,-1.011 16.328,-1.09 6.161,-0.172 9.289,3.646 14.552,5.286 4.533,1.416 8.928,2.012 13.412,3.113 5.682,-6.17 11.417,-12.271 18.425,-16.983 10.609,-7.132 22.252,-10.806 34.168,-11.642 0.086,-1.396 -0.216,-2.017 -0.55,-2.978 -1.228,0.412 -2.457,0.826 -3.681,1.25 -16.287,5.648 -31.454,2.615 -46.961,-1.291 m -0.689,33.535 v 0 c 8.438,-1.258 17.465,16.238 21.643,21.873 -4.713,1.025 -4.206,-0.119 -8.779,-1.982 -6.421,-2.621 -11.092,-13.544 -14.673,-19.52 0.6,-0.125 1.204,-0.28 1.809,-0.371 m 0.689,9.121 v 0 c 1.478,2.508 3.261,5.296 3.912,8.166 -4.462,0.752 -10.218,0.556 -12.572,-4.18 -2.606,-5.239 -4.326,-12.765 -5.818,-15.804 2.872,0.627 5.873,0.855 7.874,2.304 2.924,2.116 4.469,5.892 6.604,9.514 m 0,14.44 v 0 c 1.105,-0.995 2.167,-2.02 3.232,-3.071 2.533,0.416 5.202,0.029 7.47,1.172 2.138,1.078 4.347,2.094 6.641,2.664 h -18.238 z m 38.192,0.765 v 0 c 4.307,-0.998 9.141,-1.91 13.06,-4.025 -1.382,1.384 -2.792,2.857 -4.305,4.025 z m 66.027,-40.711 v 0 c -7.539,-5.349 -16.383,-8.883 -25.278,-11.265 0.392,-2.342 0.325,-8.324 -0.808,-12.229 1.696,0.072 3.568,-0.607 5.171,-1.369 v -0.001 c 1.031,-0.464 1.9,-1.519 2.136,-2.63 1.686,1.969 5.029,1.49 7.049,0.144 v -10e-4 c 0.672,-0.450997 1.08,-1.242997 1.286,-2.003997 2.066,1.659997 4.094,0.803 6.451,-0.035 0.899,-0.274 1.517,-0.933 1.869,-1.78 0.48,0.235 0.964,0.462 1.434,0.711 l 0.007,-0.011 c 0.454,0.189 0.944,0.267 1.444,0.253 1.17,10.109997 0.873,20.164997 -0.761,30.216997 m -93.292,18.342 v 0 c 6.869,-1.482 15.586,10.348 20.089,14.576 1.552,1.457 3.228,1.944 6.446,5.103 -11.868,4.362 -18.19,-5.036 -24.403,-13.923 -1.163,-1.665 -2.815,-3.561 -3.243,-5.518 z m 14.879,-59.741998 v 0 l 1.361,-0.557 c -2.028,-2.693002 -3.816,-4.304002 -6.27,-6.607002 -5.148,-4.841 -15.499,-5.656 -19.459,1.029 2.519,1.293 3.259,1.031 5.793,1.75 6.273,1.779 11.587,7.244002 18.575,4.385002 M 183.6951,68.636 v 0 c -3.14,0.695 2.367,5.417 2.852,6.225 2.097,3.488 5.851,15.729002 11.322,14.541002 2.801,-0.607 -1.067,-11.718002 -1.453,-13.425002 -0.966,-4.256 -8.609,-8.251 -12.721,-7.341 m 13.482,2.731 c 0.626,2.184 1.931,4.619 2.281,6.292 0.895,4.282 0.955,12.747002 7.572,11.302002 6.38,-1.393 0.85,-12.714002 -2.066,-15.151002 -2.136,-1.731 -5.115,-3.543 -7.787,-2.443 m 16.495,6.415 v 0 c -1.226,-2.411 -3.034,-1.575 -3.15,1.019 -0.1,2.188 0.171,4.391 0.375,6.564002 0.223,2.611 4.023,2.104 4.746,-0.11 0.445,-1.359002 -1.323,-6.453002 -1.971,-7.473002 m 11.773,58.807 v 0 c 0.353,3.526 -2.465,7.738 -5.5,9.377 -6.452,3.482 -15.119,0.241 -21.321,-2.435 5.706,-3.342 13.314,-4.435 19.7,-5.928 2.653,-0.621 4.19,-2.544 7.043,-1.799 z m -7.615,15.278 v 0 c -1.807,4.127 -8.826,4.854 -12.701,5.695 -2.815,0.612 -14.917,-6.369 -15.556,-9.181 l -0.253,-1.115 c 7.107,-1.546 14.966,1.595 22.043,2.365 2.85,0.312 4.276,0.088 6.933,1.171 z m -16.131,9.692 v 0 c -1.883,2.259 -5.082,2.259 -7.709,2.832 -6.079,1.32 -12.914,-7.856 -16.195,-12.17 -1.04,-1.368 -1.18,-1.536 -1.543,-3.153 9.633,-2.098 18.951,6.604 26.251,11.528 z m 4.995,-49.136 v 0 c -7.142,0.343 14.623,-7.46 18.542,-8.526 1.857,0.146 4.444,3.523 0.125,5.849 -3.61,0.424 -14.119,2.443 -18.667,2.677 m 35.684,-34.188 v 0 l -0.22,1.81 -1.07,-1.199 z m 11.908,9.728002 v 0 l 0.263,-0.085 1.178,1.03 -1.643,0.534 c 0.059,-0.495 0.131,-0.987 0.202,-1.479 M 242.3811,70.691 v 0 c 0.108,-0.461 0.674,-1.245 1.226,-1.163 5.063,2.929 14.564,8.623 13.468,15.561002 h -0.002 c -0.182,0.928 -0.32,1.863 -0.487,2.794 -0.487,-0.426 -1.395,-1.613 -2.123,-1.382 C 255.1401,79.622 247.1711,73.956 242.3811,70.691 m -6.609,3.107 v 0 c 0.452,-1.915 2.034,-1.148 3.118,-0.121 -0.648,0.295 -1.287,0.614 -1.943,0.892 -0.33,-0.248 -0.734,-0.52 -1.175,-0.771 m 1.417,19.776002 v 0 c 0.324,-0.111 0.649,-0.223 0.978,-0.322 l 1.178,0.962 -2.204,0.581 c 0.03,-0.397 0.045,-0.806 0.048,-1.221 M 228.5201,77.569 v 0 c 0.442,-2.884 2.24,-1.312 2.921,-0.956 6.881,4.473 9.492,8.546002 8.734,16.550002 -1.369,-1.138 -1.511,-1.497 -3.014,-0.993 -0.29,-6.014 -3.202,-11.492002 -8.533,-14.543002 l -10e-4,0.002 z m 25.291,17.688002 v 0 c 0.077,-0.407 0.119,-0.82 0.15,-1.233 0.584,-0.194 1.158,-0.413 1.737,-0.618 -0.212,1.752 -0.221,2.682 -1.887,1.851 m -8.413,1.669001 v 0 c 0.975,-5.721001 1.688,-10.233001 -1.208,-14.422003 -1.075,-1.58 -0.723,-2.121 -0.483,-4.094 2.699,2.314 4.877,5.131 5.223,8.830002 0.127,1.359 0.168,9.631001 -2.053,10.682001 -0.575,-0.224 -0.948,-0.803 -1.479,-0.996 m -7.789,2.221 v 0 l 1.603,-0.483 c -0.107,0.461 -0.28,1.077 -0.656,1.403997 -0.375,-0.220997 -0.677,-0.585997 -0.947,-0.920997 m -10.613,2.258997 v 0 c 0.594,0.986 1.476,1.652 2.607,1.473 2.414,-3.657997 2.017,-9.923998 0.887,-14.146998 -1.055,-3.908 -10.708,-14.138002 -10.86,-4.136002 7.932,-2.721 13.877,14.382003 7.366,16.81 m 27.216,-30.691 v 0 l 1.622,1.258 c -0.507,0.199 -2.213,0.772 -1.214,1.562 l -0.001,0.001 c 6.246,4.988 7.387,6.688 6.14,14.954002 -0.646,4.295 -0.304,6.422 -4.344,7.572 0.441,-0.886 0.549,-1.925 0.661,-2.896 0.327,-2.846 -2.582,-0.284 -3.944,-0.284 -1.079,0.322 -0.112,3.54 -2.013,4.202001 v -10e-4 c -0.768,0.272 -1.551,0.5 -2.344,0.688 3.73,-7.523001 1.328,-16.156003 -5.151,-21.148003 -0.319,-0.272 -5.338,1.095 -4.142,2.411 0,0.321 2.252,2.543 2.624,2.987 3.773,4.981002 2.813,9.727002 1.825,15.541003 -0.454,2.095 -1.828,2.27 -3.806,2.552997 1.343,-4.544998 -1.134,-2.325997 -3.942,-1.493997 -1.177,0.348 -0.567,2.218997 -2.112,3.040997 -0.883,0.42 -1.829,0.693 -2.781,0.904 3.392,-7.543998 0.587,-21.736 -8.77,-23.611 2.193,-1.018 3.293,-1.381 5.432,-0.173 h -0.001 l 0.012,0.007 -0.001,0.001 c 6.903,3.955 7.582,9.681002 7.761,16.803002 -0.077,0.469 0.372,0.888001 0.849,0.749 3.746,-1.103 4.636,-0.039 5.014,-3.858 0.754,-7.64 -2.699,-13.083002 -9.438,-17.008002 -0.388,-0.242 -0.803,-0.448 -1.238,-0.587 0.534,-0.273 1.127,-0.54 1.716,-0.67 1.184,-0.126 3.771,1.958 4.462,1.736 v 0 c 0.576,0 4.335,-1.532 3.441,-2.496 -0.647,-0.739 -1.389,-1.445 -2.288,-1.867 0.926,-0.454 1.931,-0.763 2.869,-0.146 4.816,3.238 11.801,7.965 12.057,14.567002 -0.063,0.69 -1.278,5.769 0.414,5.016 4.733,-1.71 3.787,-0.461 4.807,-5.683 h -0.001 c 0.529,-2.604002 -0.248,-4.505002 -1.585,-6.683002 -2.447,-4.041 -8.142,-7.741 -12.183,-10.095 l 0.269,-0.103 v 0.002 c 1.001,-0.33 1.706,-0.374 2.641,0.185 h -0.001 c 0.759,0.463 4.165,3.096 4.834,2.82 v 0 z m -4.957,-3.84 v 0 l 3.733,2.892 -0.792,0.325 c -1.03,-0.742 -2.1,-1.429 -3.18,-2.097 z m 14.966,11.595 v 0 l -1.876,15.006002 -1.075,-0.707 c 0.901,-3.687 2.686,-10.863002 0.277,-14.230002 -1.201,-1.835 -2.369,-3.001 -3.879,-4.266 l 0.069,-0.827 z m -6.678,-6.867 v 0 l -7.484,-5.797 10.602,-5.517 19.11,12.999 -14.695,4.151 c -2.455,-1.901 -4.951,-4.132 -7.533,-5.836 m 24.846,2.295 v 0 l 25.279,-10.135 c -1.088,4.389 -1.172,4.481 3.196,2.403 l -2.165,6.129 -18.068,8.557 c -0.661,0.285 -0.609,1.973 -0.697,2.579 l -11.525,6.014002 z m 17.046,-22.503 v 0 l 1.361,-0.505 2.913,1.697 -1.202,0.597 z m 2.001,6.668 v 0 l -2.311,-1.279 0.57,-1.588 2.292,1.264 z m -21.776,-5.636 v 0 l 0.656,-1.386 4.771,2.956 -0.707,1.491 z m 6.438,1.935 v 0 c 4.274,0.373 8.25,0.53 12.55,0.587 l -0.556,1.545 -1.827,-0.005 0.071,-0.53 c -0.792,-0.147 -3.695,-0.175 -4.815,-0.312 -0.109,0.191 -0.132,0.29 -0.214,0.548 l -5.885,-0.406 z m 21.099,1.947 v 0 l -4.404,-0.617 c -3.3,-1.819 -6.547,-3.632 -9.79,-5.564 2.731,0.473 4.931,1.137 7.635,0.14 l 8.837,5.235 z m -8.886,-2.399 v 0 c -4.601,-0.061 -7.796,-0.239 -12.367,-0.639 L 282.2791,51 c 4.501,0.39 8.016,0.765 12.556,0.881 z m 7.837,1.396 v 0 l -3.086,-1.798 1.215,-0.59 3.242,1.857 z m -0.061,3.36 v 0 l -3.638,-0.253 0.556,-1.612 3.551,0.497 z m 2.723,0.904 v 0 l -2.138,0.69 1.026,-2.984 2.167,-0.774 z m -10.757,-2.007 v 0 l 9.008,4.986 -25.415,9.879 -19.343,-12.67 18.626,-5.232 3.357,2.176 c 0.552,0.407 6.731,0.608 7.615,0.554 0.099,10e-4 0.159,-0.95 0.262,-0.94 1.014,0.098 2.6,0.049 3.348,0.114 0.185,0.016 -0.186,0.945 -10e-4,0.965 0.805,0.083 1.559,0.165 2.543,0.168 m 7.507,2.631 v 0 l -1.011,-0.561 1.176,0.082 z m 4.999,1.139 v 0 l -1.726,0.671 -1.503,-0.832 1.846,-0.595 z m -0.553,3.759 v 0 l -1.461,0.695 0.692,-2.793 1.709,-0.664 z m -109.367,67.389 v 0 c -2.863,14.687 -18.938,16.745 -27.692,12.987 7.741,-6.876 17.476,-11.472 27.692,-12.987 m 19.818,0.931 v 0 c -4.411,2.508 -15.301,5.305 -19.508,4.785 2.017,-8.43 13.414,-6.029 19.508,-4.785 M 291.3191,50.1 v 0 l 1.236,0.766 c -0.552,-0.006 -0.588,-0.03 -1.22,-0.068 z m -126.247,46.826003 v 0 c 9.108,1.808 18.99,2.726 27.947,-0.379 9.162,-3.176001 19.336,-7.046001 28.508,-10.194001 4.445,-1.48 9.014,9.681 6.061,12.151001 -0.131,0.111 -1.498,0.601 -1.659,0.66 -9.47,3.481997 -18.93,6.997997 -28.466,10.302997 -15.184,5.265 -30.644,2.671 -45.603,-1.184 4.119,-3.844 8.872,-7.766 13.212,-11.356997 m 30.957,-4.219001 v 0 c -9.529,3.312 -18.812,4.247001 -28.802,2.334 1.516,-1.24 3.043,-2.478 4.586,-3.715 4.101,-3.287 17.68,-4.484 21.9,-1.911 1.303,1.226 1.751,1.792 2.316,3.292 m 67.638,1.01 v 0 l 1.877,-15.019002 14.884,-4.204 -3.602,15.695002 z M 222.2131,113.937 v 0 c -2.033,-0.292 3.266,-1.695 4.556,-1.382 0.544,0.187 0.75,1.613 -0.244,2.197 -0.644,0.314 -2.874,-0.543 -4.312,-0.815 M 26.560098,145.015 v 0 l -10.476,2.278 c -6.2200004,1.35 -6.8450004,0.707 -9.8660004,-5.792 -0.553,-1.191 -3.385,-6.753 -1.747,-7.753 7.1040004,-1.493 17.4470004,5.943 22.0890004,11.267 m 16.472,-16.201 v 0 c 0.588,3.405 1.331,6.755 2.223,10.045 -4.025,-2.003 -8.587,-5.021 -11.575,-7.081 -1.838,-1.268 -2.083,-1.182 -2.56,-3.3 4.507,-0.979 7.352,-1.419 11.912,0.336 m 6.225,22.024 v 0 c 1.146,2.867 2.412,5.676 3.788,8.418 -3.183,-2.188 -6.225,-4.322 -8.832,-7.174 z m 6.039,12.67 v 0 c 0.573,1.029 1.161,2.049 1.766,3.058 -4.749,1.399 -19.105,0.248 -20.54,-6.081 -2.714,-11.964 16.314,1.159 18.774,3.023 m 96.042002,0.544 v 0 c -4.819,-0.699 -10.889,-3.603 -15.646,-5.261 -0.063,0.139 -0.739,0.491 -2.078,1.248 -25.448,14.156 -56.892001,-24.578 -40.888001,-48.117 2.105,-3.096 4.806004,-5.807 7.696001,-8.172 5.451,-4.458997 14.559,-3.61 21.085,-2.611 3.121,-0.256 12.661,-9.468998 14.103,-11.126998 -14.37,-3.335 -31.408,-7.082002 -43.876001,3.119 -6.71,5.490001 -12.23,12.487998 -15.27,20.657998 1.092,22.211 11.349,41.832 27.979001,54.658 h 41.887 c 1.691,-1.351 3.728,-3.237 5.008,-4.395 m -11.692,-78.150998 v 0 c -0.608,0.589 -1.287,1.363 -1.776,1.902 -1.915,-0.473 -4.766,-1.271 -7.247,-1.902 z m -40.661997,0 v 0 c -9.816004,4.298 -17.447004,12.549001 -22.588004,21.834998 0.213,-7.621 1.585,-14.954998 3.948,-21.835998 z M 43.118098,142.963 v 0 c -8.864,2.67 -23.819,-4.041 -29.165,-11.276 11.888,-4.459 22.145,4.196 31.423,10.595 z m -26.281,16.382 v 0 c 0.562,-2.4 6.572,-5.364 7.416,-1.638 0.415,1.822 -0.086,4.43 -0.777,6.098 -1.472,-0.407 -7.157,-2.254 -6.639,-4.46 m 7.098,13.464 v 0 c -2.36,0.515 -9.493,-1.289 -10.114,-4.026 -0.471,-2.085 0.743,-4.3 2.881,-4.764 3.074,-0.666 11.067,7.957 7.233,8.79 m 14.277,-6.245 v 0 c 2.422,0.596 4.666,1.886 6.8,3.08 -2.977,0.781 -5.77,1.803 -7.994,-1.322 l -1.77,-2.486 z M 121.5181,124.928 v 0 l 3.463,-0.785 -5.695,-2.229 c -9.245,-3.099 -16.606,-10.493 -26.606001,-5.311 4.486004,3.039 8.617001,5.088 13.562001,7.336 5.675,2.577 9.329,2.334 15.276,0.989 m 14.688,-8.328 v 0 c -2.74,2.765 -6.561,3.636 -10.267,4.248 -1.659,0.275 -8.15,-2.582 -9.96,-3.372 -3.556,-1.55 -6.782,-2.904 -10.029,-5.054 4.536,-5.797 13.433,-2.557 19.165,-0.891 4.489,1.305 7.959,1.705 12.15,3.998 z m 11.521,-9.723 v 0 c -0.294,1.257 -1.901,2.613 -2.967,3.287 -5.326,3.367 -10.565,1.658 -16.044,-0.184 -3.688,-1.238 -5.566,-1.402 -9.231,-3.296 6.245,-5.342 15.518,-3.275 22.865,-2.124 1.869,0.293 3.851,0.686 5.603,1.35 z m -33.289,43.952 v 0 c -4.94,1.112 -7.85,-1.267 -11.759,-3.733 -4.226997,-2.672 -6.594001,-4.074 -10.462001,-7.245 l 6.324004,-1.371 c 3.993997,-0.869 15.493997,7.071 16.725997,10.895 l 0.381,1.182 z m -8.12,-14.518 v 0 l 0.741,-1.237 c 10.978,-2.399 20.421,7.385 20.056,17.955 -5.335,0.986 -12.679,-8.605 -16.23,-11.908 -1.695,-1.575 -3.589,-2.038 -4.865,-4.254 z m 17.575,0.029 v 0 c 9.549,-2.084 14.902,14.213 16.402,20.789 -8.52,1.902 -10.609,-8.201 -13.992,-13.756 l -3.884,-6.711 z m -17.608,18.125 v 0 c 1.412,-1.897 17.095,-2.103 20.212,0.632 1.443,1.487 3.744,1.674 5.937,2.577 -9.134,4.949 -18.14,2.837 -26.149,-3.209 M 95.030099,112.871 v 0 c 1.733004,-2.281 4.703004,-5.26 7.008001,-7.146 3.916,-3.204 10.02,-3.567 16.383,-2.811 -2.536,2.819 -7.269,4.1 -10.493,5.034 -3.576,0.904 -4.811,4.627 -7.916,4.312 -1.482997,-0.153 -3.609001,0.386 -4.982001,0.611 M 253.7921,148.22 v 0 c -5.076,-6.712 -12.18,-10.634 -19.912,-13.544 -20.772,-7.821 -45.454,-6.7 -63.214,9.465 -2.845,0.494 -5.656,-1.821 -8.566,-1.665 -2.821,0.131 -5.623,-0.109 -8.393,-0.597 16.791,-18.202 38.936,-29.455 64.466,-25.372 16.313,2.608 36.954,9.034 46.686,23.702 -2.175,4.34 -6.422,7.051 -11.067,8.011 m 13.615,-6.181 v 0 c 0.272,-0.51 0.524,-1.035 0.75,-1.581 -2.475,-3.648 -5.497,-6.954 -8.852,-9.808 2.145,-11.676 2.517,-23.476 0.985,-35.237998 0.292,-0.395 0.511,-0.824 0.63,-1.275 l 1.585,1.043 c 0.477,0.318 14.212,-3.231 15.242,-3.881 1.573,-0.823 13.301,-6.212 13.463,-7.341002 l 0.002,0.001 0.295,-2.04 18.016,-8.533 c 0.168,-0.08 0.288,-0.221 0.346,-0.383 l 2.795,-7.91 c 0.246,-0.698 -0.645,-0.98 -1.109,-1.228 1.033,-3.038 1.143,-2.581 -1.671,-4.12 0.245,-0.707 1.942,-4.192 1.085,-4.605 -1.23,-0.722 -9.286,-6.089 -10.204,-5.769 -1.319,0.414 -2.191,0.696 -4.001,0.66 -1.878,-0.038 -5.756,-1.622 -5.99,-0.946 l -0.005,1.713 c -3.38,-0.204 -7.678,-0.804 -10.635,-1.06 -0.735,-0.064 -1.387,2.116 -1.642,2.654 -0.2,0.425 0.266,0.841 0.805,1.172 l -18.739,5.293 c -0.054,0.012 -0.11,0.032 -0.163,0.059 l -9.222,4.799 C 233.6171,26.31 195.3591,0 151.3381,0 90.643099,0.012 41.424098,49.267 41.424098,110.003 c 0,5.214 0.369,10.341 1.072,15.36 -1.752,0.078 -4.006,0.039 -5.158,0.244 -3.535,0.637 -7.005,1.787 -10.555,2.307 -0.909,-0.109 -2.891,-0.225 -4.781,0.256 -3.692,0.821 -7.387,1.625 -11.084,2.425 -4.6580004,1.006 -12.0050004,-0.021 -10.78300041,5.393 4.56600001,1.965 3.48600001,12.729 8.34100001,14.99 2.7390004,1.251 10.1090004,-0.726 12.6360004,-1.275 1.682,-0.367 3.069,-1.445 4.87,-1.836 l 20.903,-3.561 c 0.493,1.504 1.018,2.993 1.573,4.468 -2.287,0.416 -5.123,1.173 -7.114,1.607 -5.4,1.871 -12.981,4.824 -18.834,2.583 l -4.236,0.398 c -6.553,2.011 -6.909,12.109 -5.664,17.613 0.894,3.946 8.578,6.995 11.902,4.13 1.409,-1.22 5.084,-0.183 6.72,-0.539 9,-1.956 17.997,-3.291 26.487,-6.922 19.354001,31.41 54.046002,52.354 93.619002,52.362 45.862,0.627 85.311,-28.542 101.792,-68.512 l 0.625,-0.102 c 0.586,2.202 2.641,7.922 -0.975,9.042 -1.554,0.478 -0.822,2.861 0.732,2.383 4.286,-1.329 4.269,-5.074 3.484,-8.776 1.562,3.769 4.532,11.004 1.789,14.662 -1.17,1.559 1.22,3.352 2.39,1.793 3.719,-4.961 0.448,-13.239 -1.711,-18.297 3.762,6.96 7.333,16.564 5.796,24.477 -0.403,2.111 2.832,2.728 3.236,0.618 1.659,-8.542 -1.946,-19.009 -6.058,-26.518 6.458,10.033 11.15,22.988 10.082,35.015 -0.196,2.265 3.276,2.566 3.472,0.3 1.143,-12.863 -3.77,-26.688 -10.747,-37.394 4.993,5.901 10.129,12.916 12.186,20.439 0.563,2.069 3.735,1.206 3.171,-0.865 -2.058,-7.524 -7.007,-14.566 -11.886,-20.543 3.151,2.908 7.464,5.532 13.149,3.737 1.865,-0.588 0.964,-3.448 -0.902,-2.858 -5.895,1.86 -10.064,-2.798 -13.556,-6.568 M 90.663099,125.682 c 0.068,-1.377 0.259,-2.715 0.563,-4.013 2.987,-1.075 12.172001,4.995 14.136001,6.381 -4.858,1.055 -10.533001,0.905 -14.699001,-2.368"
           inkscape:connector-curvature="0" />
        <g
           id="text3771"
           style="font-style:normal;font-variant:normal;font-weight:normal;font-stretch:normal;font-size:33.11774063px;line-height:1.25;font-family:'Comic Sans MS';-inkscape-font-specification:'Comic Sans MS';letter-spacing:0px;word-spacing:0px;fill:#f47216;fill-opacity:1;stroke:none;stroke-width:0.82794344"
           aria-label="23">
          <path
             id="path4232"
             style="font-style:normal;font-variant:normal;font-weight:normal;font-stretch:normal;font-family:'Comic Sans MS';-inkscape-font-specification:'Comic Sans MS';stroke-width:0.82794344"
             d="m 148.44789,205.74657 q -0.40427,0 -1.14813,-0.24256 -0.72768,-0.25873 -1.11578,-0.25873 -0.82471,0 -2.47413,0.097 -1.64942,0.097 -2.4903,0.097 -0.63066,0 -1.87581,0.16171 -1.22897,0.16171 -1.85963,0.16171 -0.17788,0 -0.51747,-0.0647 -0.33959,-0.0647 -0.51746,-0.0647 -1.11579,0 -1.45537,-1.08344 -0.19405,-0.56598 -0.19405,-1.94049 0,-3.76779 2.05369,-6.06404 0.9379,-1.0511 5.06145,-3.88099 2.31242,-1.58474 3.08861,-2.47413 1.39069,-1.55239 1.39069,-3.63842 0,-1.03493 -1.34217,-1.84347 -1.18047,-0.72768 -2.31242,-0.72768 -1.48771,0 -2.82989,0.85705 l -2.31242,1.81112 q -0.69534,0.54981 -1.11578,0.54981 -1.66559,0 -1.66559,-1.326 0,-0.76003 0.61449,-1.30984 1.89198,-1.77878 3.28266,-2.57115 1.95667,-1.11578 4.02653,-1.11578 2.61966,0 4.67335,1.42303 2.29625,1.6009 2.29625,4.10737 0,1.64942 -0.46895,3.04011 -0.46896,1.39068 -1.42303,2.53881 -1.21281,1.45537 -4.10738,3.25032 -3.0401,1.90815 -3.99418,2.89457 -1.79495,1.85964 -1.76261,4.51165 l 3.33118,-0.30725 q 3.4282,-0.19405 4.89974,-0.19405 1.22898,0 2.32859,0.42044 1.45537,0.56598 1.45537,1.56857 0,0.63066 -0.43661,1.13195 -0.43661,0.48512 -1.08344,0.48512 z"
             inkscape:connector-curvature="0" />
          <path
             id="path4234"
             style="font-style:normal;font-variant:normal;font-weight:normal;font-stretch:normal;font-family:'Comic Sans MS';-inkscape-font-specification:'Comic Sans MS';stroke-width:0.82794344"
             d="m 162.17687,206.45809 q -2.44178,0 -4.38228,-1.01876 -2.18305,-1.18047 -2.94308,-3.31501 -0.097,-0.29107 -0.097,-0.56597 0,-0.64684 0.48512,-1.06728 0.5013,-0.43661 1.14813,-0.43661 0.64683,0 1.11578,0.59832 l 0.74386,1.11579 q 0.58214,0.79236 1.56856,1.19663 0.98642,0.3881 2.36093,0.3881 1.76262,0 3.08862,-1.09961 1.40686,-1.1643 1.40686,-2.84606 0,-2.44178 -1.79496,-3.89715 -1.58473,-1.26132 -4.2044,-1.53623 -1.79495,-0.17788 -1.79495,-1.45537 0,-0.95407 1.40685,-1.45537 l 3.86482,-0.95407 q 1.11578,-0.40427 1.68176,-1.08344 0.56597,-0.69535 0.58215,-1.68176 0.0323,-1.42303 -1.09962,-2.29625 -1.18046,-0.90557 -3.315,-0.90557 -1.09962,0 -2.13455,0.53364 l -1.82729,1.14812 q -0.53364,0.33959 -0.85705,0.33959 -0.64684,0 -1.11579,-0.48512 -0.45278,-0.5013 -0.45278,-1.13196 0,-1.27749 2.47413,-2.45795 2.15071,-1.0511 3.5414,-1.0511 3.47671,0 5.51423,1.53622 2.18305,1.64942 2.18305,4.70569 0,3.80013 -3.07244,5.01294 -0.27491,0.1132 -0.63066,0.22639 2.15071,0.79237 3.21798,2.37711 1.06727,1.56856 1.06727,3.92949 0,3.18565 -2.24773,5.41721 -2.24774,2.2154 -5.4819,2.2154 z"
             inkscape:connector-curvature="0" />
        </g>
        <g
           id="text3775"
           style="font-style:normal;font-variant:normal;font-weight:bold;font-stretch:normal;font-size:24px;line-height:1.25;font-family:'Comic Sans MS';-inkscape-font-specification:'Comic Sans MS Bold';letter-spacing:-2.01999998px;word-spacing:0px;fill:#f47216;fill-opacity:1;stroke:none"
           aria-label="darmstadt meta-rhein-main">
          <path
             id="path3835"
             style="font-style:normal;font-variant:normal;font-weight:bold;font-stretch:normal;font-family:'Comic Sans MS';-inkscape-font-specification:'Comic Sans MS Bold';letter-spacing:-2.01999998px;fill:#f47216"
             d="m 77.441839,168.19719 q -3.166796,2.44201 -4.471967,3.25557 -1.189657,0.73251 -2.037658,-0.28457 -0.442762,-0.53104 -0.370895,-1.14023 0.07187,-0.6092 0.566905,-1.02194 1.305102,-1.08814 4.060904,-3.0349 2.748298,-1.95576 4.053399,-3.0439 3.186247,-2.65657 4.093729,-3.76412 0.121498,-0.14707 0.238507,-0.24463 0.495039,-0.41274 1.119241,-0.32287 0.615202,0.0974 1.012937,0.57441 0.555328,0.66605 0.231442,1.48537 0.87933,0.30436 1.607167,0.81132 0.736839,0.49946 1.322185,1.20152 1.680993,2.01615 1.504549,4.42139 -0.180932,2.45475 -2.21509,4.15075 -2.421188,2.0187 -5.046977,1.88882 -2.63479,-0.12237 -4.473376,-2.32754 -0.562833,-0.67505 -0.861583,-1.32616 -0.298751,-0.65111 -0.333419,-1.27829 z m 2.985309,-2.18388 q -0.319398,0.7698 -0.200685,1.47948 0.118714,0.70967 0.666537,1.36672 1.110656,1.33211 2.440045,1.35278 1.320387,0.0282 2.859507,-1.25509 0.972075,-0.81048 1.064774,-2.10837 0.0927,-1.2979 -0.702771,-2.25197 -0.577841,-0.69306 -1.040031,-0.91801 -0.310628,-0.15296 -1.266453,-0.34778 -0.253585,-0.048 -0.526668,-0.0644 -0.417025,0.37821 -3.294255,2.74662 z"
             inkscape:connector-curvature="0" />
          <path
             id="path3837"
             style="font-style:normal;font-variant:normal;font-weight:bold;font-stretch:normal;font-family:'Comic Sans MS';-inkscape-font-specification:'Comic Sans MS Bold';letter-spacing:-2.01999998px;fill:#f47216"
             d="m 79.59138,148.91397 q 0.284275,0.45802 -0.09342,2.07169 1.006648,0.64411 1.65829,1.20513 0.661598,0.55484 0.964412,1.04272 1.48935,2.3996 0.952686,4.40158 -0.542844,1.99202 -3.101746,3.58025 -2.399594,1.48935 -5.202227,0.77379 -2.812591,-0.70937 -4.345201,-3.17866 -0.587088,-0.9459 -0.821905,-2.52422 -0.285968,-1.90517 0.570318,-2.43664 0.358446,-0.22247 0.769417,-0.16032 0.460072,-0.14763 1.104517,-0.46486 0.628308,-0.32101 1.434811,-0.82158 1.901752,-1.18036 2.571268,-1.9683 0.07107,-0.0855 0.751234,-1.10072 0.615272,-0.91979 0.734753,-0.99394 0.527712,-0.32754 1.129575,-0.1356 0.595684,0.18197 0.923217,0.70968 z m -5.297767,6.70869 q -0.318618,0.19776 -0.751567,0.4113 -0.449086,0.20978 -1.012503,0.43534 0.02403,0.26093 0.08308,0.44496 0.04291,0.18025 0.110892,0.28978 0.840464,1.35413 2.536191,1.70847 1.68577,0.36053 3.079724,-0.50465 1.334214,-0.8281 1.714643,-1.72626 0.370473,-0.89198 -0.222795,-1.84784 -0.383153,-0.61732 -0.922182,-1.04135 -0.555166,-0.4278 -1.256253,-0.66849 -2.184327,1.76952 -3.35923,2.49874 z"
             inkscape:connector-curvature="0" />
          <path
             id="path3839"
             style="font-style:normal;font-variant:normal;font-weight:bold;font-stretch:normal;font-family:'Comic Sans MS';-inkscape-font-specification:'Comic Sans MS Bold';letter-spacing:-2.01999998px;fill:#f47216"
             d="m 66.576082,142.82971 q 1.673528,-0.65205 2.308999,0.73252 0.615919,1.34197 -0.768653,1.97745 l -1.051264,0.54696 q 1.483274,2.2204 4.034291,2.30029 l 5.352338,-2.46943 q 0.607081,-0.27863 1.191793,-0.0441 0.595362,0.22962 0.888657,0.86865 0.303071,0.66034 0.04325,1.21799 -0.226996,0.51679 -0.823427,0.79053 l -6.97611,3.2018 q -0.330167,0.15154 -0.989627,0.42842 -0.67011,0.28177 -1.000277,0.4333 -0.596431,0.27375 -1.151813,0.10314 -0.570921,-0.17636 -0.873992,-0.8367 -0.542595,-1.18221 0.568914,-1.96313 -2.271091,-1.2399 -3.326951,-3.54042 -0.977648,-2.13011 1.855398,-3.43038 0.543178,-0.2493 0.718475,-0.31686 z"
             inkscape:connector-curvature="0" />
          <path
             id="path3841"
             style="font-style:normal;font-variant:normal;font-weight:bold;font-stretch:normal;font-family:'Comic Sans MS';-inkscape-font-specification:'Comic Sans MS Bold';letter-spacing:-2.01999998px;fill:#f47216"
             d="m 63.33489,139.52293 q -2.452201,-1.1505 -2.8791,-2.67384 -0.486981,-1.73775 0.605572,-2.92018 -0.802233,-0.51756 -1.340906,-1.2672 -0.538673,-0.74964 -0.810623,-1.72007 -0.619794,-2.21167 1.359239,-3.61818 0.40709,-0.28447 2.921999,-1.34218 1.739472,-0.82823 5.865701,-2.52004 0.630541,-0.22538 1.184025,0.14283 0.553485,0.36821 0.736893,1.02268 0.363655,1.29767 -0.859481,1.88384 -1.105336,0.52882 -3.166653,1.33771 -2.261268,0.8771 -3.190586,1.29574 -1.934463,0.87071 -1.80165,1.34464 0.07273,0.25953 0.851098,1.03936 0.778367,0.77983 1.270905,1.10427 1.28638,-0.36049 3.615784,-1.34187 2.382663,-1.00848 3.612623,-1.35316 0.64319,-0.18025 1.19531,0.13966 0.552119,0.31992 0.741852,0.99696 0.189733,0.67704 -0.115734,1.23728 -0.305467,0.56024 -0.948657,0.74049 -1.286381,0.36049 -3.701098,1.34144 -2.429163,0.97283 -3.715543,1.33332 -0.722179,0.20239 -1.116188,0.44667 1.122847,1.09708 3.253136,1.92401 0.0948,0.0343 0.290723,0.12542 2.292024,-0.59363 3.589689,-0.95728 0.315953,-0.0885 0.863911,-0.21776 0.536674,-0.12606 0.796207,-0.19879 0.609338,-0.17076 1.098281,0.22771 0.453725,0.35966 0.640296,1.02542 0.268788,0.95914 -0.471364,1.53166 -0.497796,0.39508 -1.727756,0.73976 l -4.197662,1.17634 q -0.564202,0.15811 -1.634821,0.50682 -1.081902,0.35187 -1.646104,0.50998 -1.00428,0.28144 -1.917921,0.14803 -1.13889,-0.15548 -1.363407,-0.95664 -0.177084,-0.63191 0.180276,-1.26754 0.346076,-0.63248 0.932846,-0.79691 -0.236964,0.0664 0.998888,-0.1704 z"
             inkscape:connector-curvature="0" />
          <path
             id="path3843"
             style="font-style:normal;font-variant:normal;font-weight:bold;font-stretch:normal;font-family:'Comic Sans MS';-inkscape-font-specification:'Comic Sans MS Bold';letter-spacing:-2.01999998px;fill:#f47216"
             d="m 60.471931,116.33715 q 0.13387,1.15241 -0.805244,1.49745 -0.0274,0.47509 0.0294,0.96399 0.325886,2.80535 1.094157,2.7161 0.453978,-0.0527 1.026177,-1.82985 0.791543,-2.42786 1.290551,-3.31166 1.026177,-1.82985 2.56272,-2.00834 2.002161,-0.23259 3.254519,1.50954 1.00091,1.40561 1.255128,3.59402 0.179846,1.54818 -0.148669,2.88408 -0.449033,1.82179 -1.717844,1.96919 -1.164048,0.13522 -1.324962,-1.25 -0.0622,-0.53546 0.157728,-1.5874 0.21993,-1.05193 0.156376,-1.59903 -0.274502,-2.36302 -1.230373,-2.26378 -0.593664,0.069 -1.12471,1.79411 -0.780725,2.52099 -1.167914,3.25023 -0.961744,1.77517 -2.614691,1.96719 -2.339735,0.2718 -3.442591,-2.11297 -0.646288,-1.39962 -0.991105,-4.36794 -0.135222,-1.16404 0.102524,-1.75794 0.318169,-0.8156 1.412374,-0.94271 2.095285,-0.2434 2.22645,0.88572 z"
             inkscape:connector-curvature="0" />
          <path
             id="path3845"
             style="font-style:normal;font-variant:normal;font-weight:bold;font-stretch:normal;font-family:'Comic Sans MS';-inkscape-font-specification:'Comic Sans MS Bold';letter-spacing:-2.01999998px;fill:#f47216"
             d="m 59.409989,105.69006 q 5.4e-4,0.2461 -0.01043,0.58596 -0.02272,0.32818 -0.02218,0.57427 0.0011,0.48047 0.09619,1.11308 4.733901,-0.22133 6.187022,-0.22452 0.152344,-3.4e-4 0.574192,-0.013 0.410129,-0.0126 0.667941,-0.0132 2.695306,-0.006 2.699036,1.6933 0.0014,0.64453 -0.395993,1.11416 -0.420743,0.51655 -1.053554,0.51794 -0.421874,9.2e-4 -1.265699,-0.0324 -0.843825,-0.0333 -1.265699,-0.0324 -1.417965,0.003 -6.069835,0.22426 -0.03356,0.72664 -0.182664,2.20353 -0.160847,1.4652 -1.520219,1.46818 -0.656248,0.001 -1.114256,-0.44286 -0.458007,-0.44431 -0.45955,-1.14744 -9.52e-4,-0.43359 0.136252,-1.99249 -0.374974,0.0125 -1.242056,0.0613 -0.749895,0.0485 -1.160051,0.0494 -0.656248,10e-4 -1.090895,-0.47807 -0.434648,-0.47952 -0.436139,-1.1592 -0.0038,-1.73437 2.914155,-1.74078 l 0.960986,0.0213 q -0.107063,-0.72633 -0.108066,-1.18336 -0.003,-1.34765 0.171743,-1.84023 0.326066,-0.93821 1.427626,-0.94063 0.667967,-0.001 1.114282,0.45459 0.446314,0.45605 0.447858,1.15917 z"
             inkscape:connector-curvature="0" />
          <path
             id="path3847"
             style="font-style:normal;font-variant:normal;font-weight:bold;font-stretch:normal;font-family:'Comic Sans MS';-inkscape-font-specification:'Comic Sans MS Bold';letter-spacing:-2.01999998px;fill:#f47216"
             d="m 70.79703,94.705856 q -0.06551,0.535067 -1.371119,1.555838 0.380778,1.132797 0.536987,1.978361 0.167841,0.846989 0.09806,1.416951 -0.343227,2.803284 -2.016067,4.027024 -1.671415,1.21211 -4.66081,0.84609 -2.803285,-0.34322 -4.538834,-2.65724 -1.74718,-2.315431 -1.393983,-5.200139 0.135297,-1.105029 0.941441,-2.482109 0.971124,-1.663844 1.971467,-1.541364 0.418748,0.05127 0.700053,0.357257 0.451033,0.173286 1.152033,0.329952 0.690793,0.14361 1.632976,0.258969 2.22169,0.272019 3.237222,0.07759 0.108959,-0.02208 1.275228,-0.386952 1.055886,-0.331164 1.195468,-0.314074 0.61649,0.07548 0.965215,0.602235 0.350149,0.515122 0.274667,1.131612 z m -8.332672,1.90772 q -0.37222,-0.04557 -0.843431,-0.150492 -0.481418,-0.117976 -1.061827,-0.295296 -0.144802,0.218396 -0.214117,0.39881 -0.07952,0.167357 -0.09519,0.295308 -0.193688,1.581937 0.905657,2.920776 1.087714,1.337418 2.716178,1.536798 1.558673,0.19084 2.418002,-0.27064 0.847697,-0.46291 0.984419,-1.579574 0.0883,-0.721177 -0.06601,-1.389415 -0.164516,-0.681293 -0.560006,-1.308223 -2.811115,0.01 -4.183678,-0.158052 z"
             inkscape:connector-curvature="0" />
          <path
             id="path3849"
             style="font-style:normal;font-variant:normal;font-weight:bold;font-stretch:normal;font-family:'Comic Sans MS';-inkscape-font-specification:'Comic Sans MS Bold';letter-spacing:-2.01999998px;fill:#f47216"
             d="m 61.046933,82.022329 q -3.818082,-1.189213 -5.233791,-1.790149 -1.283007,-0.552949 -0.937663,-1.831344 0.180311,-0.66748 0.720235,-0.958623 0.539923,-0.291143 1.162151,-0.123056 1.640418,0.443139 4.817024,1.580454 3.179662,1.126001 4.82008,1.569141 4.004883,1.081871 5.432761,1.188403 0.19018,0.01496 0.337252,0.05469 0.622228,0.168088 0.907259,0.730638 0.273718,0.559493 0.111742,1.159095 -0.226153,0.837178 -1.082847,1.04275 0.256025,0.894601 0.259192,1.781589 0.01448,0.890045 -0.223899,1.772477 -0.684574,2.534163 -2.754673,3.771494 -2.113208,1.262102 -4.669998,0.571415 -3.043258,-0.822099 -4.445409,-3.045972 -1.413463,-2.226929 -0.66471,-4.99867 0.22921,-0.848493 0.590533,-1.467075 0.361324,-0.618582 0.854761,-1.007255 z m 3.502544,1.188947 q -0.813586,0.1808 -1.326271,0.685661 -0.512685,0.504861 -0.735783,1.330727 -0.452308,1.674358 0.294476,2.774364 0.735471,1.09695 2.670033,1.619549 1.221829,0.330063 2.337438,-0.339673 1.115609,-0.669736 1.439559,-1.868939 0.235323,-0.871118 0.15393,-1.378658 -0.05324,-0.342131 -0.442882,-1.23641 -0.106431,-0.23511 -0.249858,-0.468076 -0.549147,-0.124068 -4.140642,-1.118545 z"
             inkscape:connector-curvature="0" />
          <path
             id="path3851"
             style="font-style:normal;font-variant:normal;font-weight:bold;font-stretch:normal;font-family:'Comic Sans MS';-inkscape-font-specification:'Comic Sans MS Bold';letter-spacing:-2.01999998px;fill:#f47216"
             d="m 67.916409,70.462862 q -0.09459,0.227191 -0.236023,0.536426 -0.147752,0.293913 -0.242337,0.521104 -0.184668,0.443563 -0.341339,1.063801 4.451792,1.624914 5.7933,2.18342 0.140642,0.05855 0.534616,0.209882 0.383155,0.146824 0.621165,0.245914 2.48828,1.035939 1.835188,2.604637 -0.247724,0.595024 -0.795721,0.87463 -0.587649,0.313871 -1.171854,0.07065 -0.38947,-0.162147 -1.154898,-0.518897 -0.765428,-0.35675 -1.154898,-0.518897 -1.309052,-0.544994 -5.685114,-2.138379 -0.311708,0.657241 -1.019865,1.961833 -0.714471,1.289269 -1.96943,0.766796 -0.605842,-0.252229 -0.856612,-0.838995 -0.250771,-0.586767 0.01947,-1.235883 0.166651,-0.400289 0.895517,-1.785115 -0.350699,-0.133312 -1.169293,-0.42334 -0.710407,-0.244987 -1.089059,-0.40263 -0.605842,-0.252228 -0.821463,-0.862442 -0.215621,-0.610214 0.04561,-1.237694 0.666605,-1.601154 3.360439,-0.479638 l 0.878118,0.390972 q 0.181885,-0.71129 0.357544,-1.133216 0.51797,-1.24414 0.869421,-1.630961 0.663247,-0.739374 1.680197,-0.315991 0.616661,0.256733 0.852109,0.849814 0.235448,0.593081 -0.0348,1.242198 z"
             inkscape:connector-curvature="0" />
          <path
             id="path3853"
             style="font-style:normal;font-variant:normal;font-weight:bold;font-stretch:normal;font-family:'Comic Sans MS';-inkscape-font-specification:'Comic Sans MS Bold';letter-spacing:-2.01999998px;fill:#f47216"
             d="m 74.513973,56.91189 q -0.543153,-2.653663 0.423055,-3.906366 1.102193,-1.42901 2.70318,-1.259738 -0.0645,-0.952519 0.214586,-1.832428 0.279085,-0.879908 0.894595,-1.677926 1.402791,-1.81874 3.713248,-1.072655 0.47137,0.156373 2.82244,1.540564 1.703642,0.899629 5.526123,3.196723 0.557548,0.370838 0.593126,1.034659 0.03558,0.663822 -0.379533,1.20202 -0.823066,1.067118 -2.024046,0.436794 -1.084594,-0.570153 -2.965084,-1.739381 -2.054674,-1.288776 -2.945735,-1.783656 -1.854233,-1.03058 -2.154831,-0.64085 -0.164613,0.213424 -0.324648,1.303551 -0.160035,1.090128 -0.125788,1.678925 1.057838,0.815909 3.236846,2.096987 2.232561,1.307584 3.244003,2.087707 0.528919,0.407955 0.602405,1.041817 0.07349,0.633861 -0.35594,1.190618 -0.429426,0.556757 -1.061165,0.646679 -0.631739,0.08992 -1.160659,-0.318032 -1.057838,-0.815909 -3.287486,-2.165645 -2.231771,-1.366173 -3.289609,-2.182082 -0.593874,-0.458054 -1.025215,-0.627951 -0.208512,1.555922 0.401676,3.758105 0.02917,0.0965 0.07319,0.308047 1.845787,1.48285 2.912904,2.305916 0.25982,0.200399 0.690912,0.562498 0.421812,0.354942 0.635235,0.519555 0.501081,0.386484 0.473827,1.016642 -0.01718,0.578727 -0.439453,1.126205 -0.608354,0.788739 -1.509733,0.537492 -0.614264,-0.16299 -1.625705,-0.943113 l -3.451893,-2.66244 q -0.463964,-0.357855 -1.383404,-1.007819 -0.928718,-0.657121 -1.392682,-1.014976 -0.825857,-0.636982 -1.264938,-1.44923 -0.556008,-1.00603 -0.04785,-1.664859 0.400798,-0.51964 1.123999,-0.613016 0.713921,-0.100534 1.196444,0.271635 -0.194865,-0.150299 0.733604,0.699024 z"
             inkscape:connector-curvature="0" />
          <path
             id="path3855"
             style="font-style:normal;font-variant:normal;font-weight:bold;font-stretch:normal;font-family:'Comic Sans MS';-inkscape-font-specification:'Comic Sans MS Bold';letter-spacing:-2.01999998px;fill:#f47216"
             d="m 95.959645,49.024712 q -2.061569,1.895867 -4.276997,2.118263 -2.448631,0.245807 -4.265172,-1.729504 -2.006921,-2.182331 -2.247875,-4.746869 -0.262283,-2.847417 1.902796,-4.838473 1.500891,-1.380254 2.937079,-1.809446 1.889502,-0.559496 3.126971,0.78613 0.872575,0.94884 0.485862,2.657731 -0.173678,0.780626 -1.036504,2.768153 l -1.724957,3.958497 q 0.826529,0.06778 1.619329,-0.247356 0.7928,-0.315138 1.551872,-1.013198 1.155858,-1.062954 1.521772,-2.275096 0.32725,-1.081062 0.758541,-1.477686 0.897084,-0.82498 1.698266,0.04623 0.904304,0.983343 0.03493,2.929128 -0.731664,1.628098 -2.085916,2.873499 z M 88.99206,41.915575 q -0.8022,0.737722 -0.879689,1.796067 -0.07749,1.058345 0.561108,2.445246 0.586024,-1.319037 1.171355,-2.621515 0.680603,-1.597062 0.958178,-2.680203 -0.879364,0.203696 -1.810952,1.060405 z"
             inkscape:connector-curvature="0" />
          <path
             id="path3857"
             style="font-style:normal;font-variant:normal;font-weight:bold;font-stretch:normal;font-family:'Comic Sans MS';-inkscape-font-specification:'Comic Sans MS Bold';letter-spacing:-2.01999998px;fill:#f47216"
             d="m 100.97562,32.49543 q -0.20063,0.142513 -0.48448,0.329763 -0.28108,0.170909 -0.48171,0.313422 -0.391701,0.27824 -0.853315,0.721132 2.913645,3.737576 3.755155,4.922245 0.0882,0.124199 0.34208,0.461349 0.24707,0.327597 0.39637,0.53778 1.56086,2.197371 0.17556,3.181389 -0.52546,0.373248 -1.13834,0.319872 -0.66468,-0.04534 -1.03114,-0.561242 -0.24431,-0.343936 -0.70426,-1.052168 -0.45996,-0.708232 -0.70426,-1.052168 -0.821151,-1.156008 -3.687292,-4.826707 -0.612693,0.392091 -1.904693,1.122969 -1.289232,0.714538 -2.076446,-0.393701 -0.380034,-0.535012 -0.281657,-1.16549 0.09838,-0.630478 0.671604,-1.037658 0.35349,-0.251094 1.70558,-1.039031 -0.226717,-0.298935 -0.76712,-0.978769 -0.47254,-0.584297 -0.710062,-0.91868 -0.380034,-0.535012 -0.239423,-1.166742 0.140611,-0.631729 0.69473,-1.025336 1.413961,-1.004377 3.103757,1.374516 l 0.537371,0.796983 q 0.531258,-0.506737 0.903856,-0.771404 1.098685,-0.780427 1.601739,-0.922147 0.954316,-0.2754 1.592236,0.622656 0.38682,0.544566 0.2721,1.172277 -0.11471,0.62771 -0.68794,1.03489 z"
             inkscape:connector-curvature="0" />
          <path
             id="path3859"
             style="font-style:normal;font-variant:normal;font-weight:bold;font-stretch:normal;font-family:'Comic Sans MS';-inkscape-font-specification:'Comic Sans MS Bold';letter-spacing:-2.01999998px;fill:#f47216"
             d="m 116.53034,35.477804 q -0.47545,0.254042 -2.0613,-0.227273 -0.7079,0.962861 -1.30991,1.576836 -0.59648,0.62431 -1.10294,0.894921 -2.49093,1.330962 -4.45399,0.665883 -1.95272,-0.670601 -3.37205,-3.326908 -1.33096,-2.490934 -0.43556,-5.241394 0.88988,-2.760797 3.45316,-4.130418 0.98191,-0.524653 2.57211,-0.656851 1.91968,-0.162094 2.39463,0.726787 0.19882,0.372089 0.11021,0.778178 0.11754,0.46866 0.39241,1.132281 0.27968,0.647763 0.72702,1.484964 1.05483,1.974143 1.7978,2.69324 0.0807,0.07645 1.0498,0.820883 0.87805,0.673497 0.94432,0.797527 0.2927,0.547799 0.0622,1.135982 -0.22014,0.582661 -0.76794,0.875362 z m -6.35183,-5.720755 q -0.17673,-0.330746 -0.36182,-0.776606 -0.18027,-0.461718 -0.3689,-1.038549 -0.26194,0.0071 -0.44941,0.05411 -0.18265,0.03116 -0.29634,0.09191 -1.40568,0.751082 -1.869,2.420327 -0.46886,1.65891 0.30432,3.105925 0.74003,1.385001 1.6117,1.822749 0.86613,0.427412 1.85837,-0.102764 0.64082,-0.342405 1.09884,-0.852868 0.46283,-0.526322 0.74838,-1.210365 -1.62447,-2.294246 -2.27614,-3.513874 z"
             inkscape:connector-curvature="0" />
          <path
             id="path3861"
             style="font-style:normal;font-variant:normal;font-weight:bold;font-stretch:normal;font-family:'Comic Sans MS';-inkscape-font-specification:'Comic Sans MS Bold';letter-spacing:-2.01999998px;fill:#f47216"
             d="m 124.07863,26.390357 q -1.48342,0.654583 -5.37886,2.046708 -0.68418,0.24451 -1.31326,0.120877 -0.74102,-0.158295 -0.96976,-0.798338 -0.22873,-0.640044 0.24412,-1.232145 0.40429,-0.505375 1.08847,-0.749885 0.87179,-0.311552 2.59958,-0.978797 1.72385,-0.67828 2.59563,-0.989832 0.68418,-0.24451 1.30143,-0.153983 0.78831,0.116506 1.03677,0.811726 0.42986,1.20284 -1.20412,1.923669 z"
             inkscape:connector-curvature="0" />
          <path
             id="path3863"
             style="font-style:normal;font-variant:normal;font-weight:bold;font-stretch:normal;font-family:'Comic Sans MS';-inkscape-font-specification:'Comic Sans MS Bold';letter-spacing:-2.01999998px;fill:#f47216"
             d="m 137.08968,19.761992 q 0.26702,1.776109 -1.22359,2.090669 -1.44475,0.304881 -1.75931,-1.185728 l -0.30172,-1.145989 q -2.49279,0.957214 -3.13317,3.427837 l 1.22857,5.765089 q 0.13792,0.653574 -0.21973,1.172192 -0.35523,0.530085 -1.04321,0.675266 -0.7109,0.150021 -1.19754,-0.226358 -0.45403,-0.335354 -0.58953,-0.977463 l -1.5849,-7.510374 q -0.075,-0.355452 -0.19968,-1.059731 -0.12709,-0.715745 -0.2021,-1.071198 -0.1355,-0.642108 0.15336,-1.146208 0.2979,-0.517986 1.0088,-0.668007 1.27275,-0.268586 1.78939,0.98775 1.71012,-1.941826 4.18682,-2.46448 2.29325,-0.483938 2.93689,2.566077 0.1234,0.584777 0.15065,0.770656 z"
             inkscape:connector-curvature="0" />
          <path
             id="path3865"
             style="font-style:normal;font-variant:normal;font-weight:bold;font-stretch:normal;font-family:'Comic Sans MS';-inkscape-font-specification:'Comic Sans MS Bold';letter-spacing:-2.01999998px;fill:#f47216"
             d="m 141.16515,17.077868 q 0.7864,-0.908465 1.72376,-1.393904 0.94811,-0.498044 2.05794,-0.585668 1.99769,-0.157722 2.96242,0.894611 0.72062,0.789481 0.99824,2.51909 0.17186,1.432323 0.35633,2.875405 0.33542,1.866108 0.41443,2.271303 0.26593,1.283833 0.57614,2.235025 0.0778,0.240718 0.0925,0.427636 0.0517,0.654215 -0.41748,1.114442 -0.45654,0.470988 -1.12243,0.523562 -1.17992,0.09316 -1.62263,-1.047411 -0.35509,-0.924138 -0.72432,-2.623003 -0.34034,-1.630615 -0.42427,-2.693713 -0.0231,-0.29206 -0.0458,-0.878025 -0.012,-0.598569 -0.0351,-0.890629 -0.0683,-0.864497 -0.10268,-1.002841 -0.15587,-0.634231 -0.65822,-0.59457 -1.29674,0.102382 -2.25408,1.376998 -0.49035,0.63823 -1.29304,2.382601 0.33389,4.229027 -0.007,5.125807 -0.37998,0.993928 -1.37299,1.072328 -0.65421,0.05165 -1.20236,-0.340013 -0.53739,-0.40427 -0.58812,-1.046801 -0.0175,-0.221966 0.0796,-0.629313 0.0615,-0.263469 -0.10885,-3.165315 -0.2438,-2.34355 -0.59369,-7.817368 l -0.007,-0.387363 q -0.0387,-1.384057 -0.0756,-1.851353 -0.0286,-0.362154 -0.20076,-1.053874 -0.1614,-0.704325 -0.19,-1.06648 -0.0526,-0.665896 0.3932,-1.1242789 0.44485,-0.4700651 1.12243,-0.5235617 1.15656,-0.091313 1.65153,1.1156606 0.27731,0.683419 0.39168,2.132036 0.0922,1.16824 0.11714,2.377061 0.0203,1.150409 0.10885,2.271919 z"
             inkscape:connector-curvature="0" />
          <path
             id="path3867"
             style="font-style:normal;font-variant:normal;font-weight:bold;font-stretch:normal;font-family:'Comic Sans MS';-inkscape-font-specification:'Comic Sans MS Bold';letter-spacing:-2.01999998px;fill:#f47216"
             d="m 156.23953,28.048408 q -2.79561,-0.170263 -4.49235,-1.612015 -1.87534,-1.593514 -1.7122,-4.272145 0.18023,-2.95936 1.86061,-4.911599 1.86938,-2.163798 4.80534,-1.984985 2.03529,0.123957 3.34056,0.860919 1.71354,0.973156 1.60241,2.7979 -0.0784,1.286679 -1.57766,2.193305 -0.68282,0.416291 -2.71305,1.173177 l -4.04807,1.502785 q 0.52442,0.642443 1.3013,0.995011 0.77688,0.352567 1.80622,0.415258 1.56741,0.09546 2.69442,-0.481625 1.00576,-0.514027 1.59062,-0.478407 1.21649,0.07409 1.14454,1.255494 -0.0812,1.333467 -2.08592,2.056686 -1.68033,0.602088 -3.51677,0.490241 z m 0.289,-9.950052 q -1.08783,-0.06625 -1.904,0.611947 -0.81618,0.6782 -1.3724,2.100142 1.35668,-0.492656 2.70095,-0.974327 1.62256,-0.617347 2.59537,-1.168603 -0.75663,-0.49222 -2.01992,-0.569159 z"
             inkscape:connector-curvature="0" />
          <path
             id="path3869"
             style="font-style:normal;font-variant:normal;font-weight:bold;font-stretch:normal;font-family:'Comic Sans MS';-inkscape-font-specification:'Comic Sans MS Bold';letter-spacing:-2.01999998px;fill:#f47216"
             d="m 166.57561,14.528664 q -0.74073,-0.117553 -1.20573,-0.701559 -0.46499,-0.584007 -0.35111,-1.301589 0.11388,-0.717583 0.73684,-1.128932 0.62295,-0.41135 1.36368,-0.293797 0.74073,0.117554 1.19415,0.699724 0.46499,0.584006 0.35111,1.301588 -0.11388,0.717583 -0.73683,1.128932 -0.61138,0.413187 -1.35211,0.295633 z m -0.36258,8.639801 q -0.10469,0.659713 -0.3014,2.123536 -0.18514,1.46566 -0.28984,2.125372 -0.10653,0.671287 -0.62771,1.039461 -0.51934,0.356601 -1.21378,0.246395 -0.69443,-0.110207 -1.07785,-0.610076 -0.38159,-0.511442 -0.27506,-1.182729 0.1047,-0.659713 0.28984,-2.125372 0.19671,-1.463823 0.30141,-2.123536 0.16347,-1.030078 0.52534,-2.562614 0.36186,-1.532536 0.52534,-2.562614 0.10653,-0.671287 0.62587,-1.027887 0.52118,-0.368175 1.21562,-0.257968 0.69443,0.110206 1.07601,0.621649 0.38343,0.499869 0.27689,1.171155 -0.16347,1.030078 -0.52534,2.562614 -0.36186,1.532536 -0.52534,2.562614 z"
             inkscape:connector-curvature="0" />
          <path
             id="path3871"
             style="font-style:normal;font-variant:normal;font-weight:bold;font-stretch:normal;font-family:'Comic Sans MS';-inkscape-font-specification:'Comic Sans MS Bold';letter-spacing:-2.01999998px;fill:#f47216"
             d="m 175.17397,31.731716 q -1.39698,-0.355092 -1.20667,-1.769776 0.13835,-1.210249 0.27958,-2.431855 0.1472,-1.292638 0.42723,-2.394324 0.0751,-0.295297 0.29101,-1.002164 0.22731,-0.70398 0.30237,-0.999278 0.0202,-0.0795 0.12375,-0.391741 0.10644,-0.323596 0.15841,-0.528033 0.23961,-0.942679 -0.24877,-1.066817 -1.04489,-0.265598 -2.36751,0.704085 -1.30837,0.961212 -2.35259,2.690867 -0.11798,0.369027 -0.35627,0.973486 -0.19805,0.493769 -0.32219,0.982146 -0.0808,0.318012 -0.17724,0.982716 -0.0822,0.656233 -0.163,0.974246 -0.16456,0.647382 -0.72568,0.952136 -0.55265,0.318998 -1.2341,0.145782 -0.68146,-0.173215 -1.0147,-0.717394 -0.33613,-0.532821 -0.17157,-1.180203 0.0808,-0.318013 0.17435,-0.971359 0.0964,-0.664704 0.17725,-0.982716 0.27714,-1.090328 0.92981,-2.992059 0.65267,-1.90173 0.92982,-2.992058 0.0866,-0.340728 0.2115,-1.022373 0.13915,-0.690116 0.22287,-1.019486 0.16166,-0.636025 0.7199,-0.929421 0.57247,-0.301866 1.24257,-0.131538 1.48785,0.378188 1.13682,2.187311 l -0.0204,0.127821 q 2.08258,-1.248074 3.92251,-0.780392 2.14659,0.545629 2.5082,2.547987 0.23915,1.342476 -0.36999,3.738927 l -0.20498,0.806388 q -0.14415,0.519562 -0.199,0.735356 -0.22518,0.885892 -0.34177,2.343501 -0.10522,1.460495 -0.32751,2.335029 -0.16167,0.636025 -0.72279,0.940779 -0.56112,0.304753 -1.23122,0.134424 z"
             inkscape:connector-curvature="0" />
          <path
             id="path3873"
             style="font-style:normal;font-variant:normal;font-weight:bold;font-stretch:normal;font-family:'Comic Sans MS';-inkscape-font-specification:'Comic Sans MS Bold';letter-spacing:-2.01999998px;fill:#f47216"
             d="m 186.96512,29.95684 q -1.54124,-0.503614 -5.37021,-2.069305 -0.67251,-0.274994 -1.05813,-0.787172 -0.44578,-0.612743 -0.18853,-1.241866 0.25726,-0.629124 1.00464,-0.753974 0.63844,-0.106099 1.31095,0.168895 0.85691,0.350396 2.58847,1.007799 1.73599,0.646556 2.5929,0.996952 0.67251,0.274994 1.07144,0.754631 0.50888,0.613225 0.22945,1.296584 -0.48346,1.182318 -2.18098,0.627456 z"
             inkscape:connector-curvature="0" />
          <path
             id="path3875"
             style="font-style:normal;font-variant:normal;font-weight:bold;font-stretch:normal;font-family:'Comic Sans MS';-inkscape-font-specification:'Comic Sans MS Bold';letter-spacing:-2.01999998px;fill:#f47216"
             d="m 196.59793,28.745948 q 2.59178,-0.787139 3.92877,0.05861 1.52515,0.964783 1.50523,2.57457 0.94242,-0.152639 1.84443,0.04356 0.90202,0.1962 1.75373,0.734975 1.9411,1.227905 1.41271,3.597643 -0.11194,0.483851 -1.27191,2.95326 -0.7376,1.779796 -2.66995,5.799005 -0.31748,0.589564 -0.97513,0.68661 -0.65766,0.09705 -1.23206,-0.266315 -1.13892,-0.720455 -0.6228,-1.97476 0.46701,-1.132837 1.45663,-3.113743 1.09248,-2.165436 1.50251,-3.098587 0.85401,-1.941893 0.43806,-2.205016 -0.22778,-0.144091 -1.32806,-0.202241 -1.10028,-0.05815 -1.68335,0.0306 -0.71419,1.12901 -1.78747,3.417528 -1.09469,2.344301 -1.77756,3.423792 -0.35709,0.564505 -0.9814,0.696513 -0.6243,0.132008 -1.21852,-0.243881 -0.59421,-0.375889 -0.74239,-0.996554 -0.14818,-0.620664 0.20892,-1.185169 0.71419,-1.129009 1.85113,-3.474323 1.1531,-2.348953 1.86729,-3.477962 0.40095,-0.63383 0.53007,-1.079079 -1.56856,-0.06318 -3.70459,0.748796 -0.0934,0.038 -0.29992,0.101474 -1.30511,1.975465 -2.02556,3.114378 -0.17542,0.277301 -0.49594,0.740143 -0.31425,0.452939 -0.45834,0.680722 -0.3383,0.534794 -0.96827,0.566153 -0.57782,0.03661 -1.16214,-0.333014 -0.8418,-0.53251 -0.67531,-1.45332 0.10526,-0.626741 0.78813,-1.706232 l 2.33051,-3.684135 q 0.31324,-0.49518 0.87505,-1.470984 0.56808,-0.985707 0.88132,-1.480887 0.55757,-0.881419 1.32555,-1.394003 0.95007,-0.646995 1.65323,-0.202192 0.5546,0.35083 0.71471,1.06224 0.16637,0.701506 -0.1594,1.216493 0.13156,-0.207975 -0.62791,0.795325 z"
             inkscape:connector-curvature="0" />
          <path
             id="path3877"
             style="font-style:normal;font-variant:normal;font-weight:bold;font-stretch:normal;font-family:'Comic Sans MS';-inkscape-font-specification:'Comic Sans MS Bold';letter-spacing:-2.01999998px;fill:#f47216"
             d="m 209.43572,52.330195 q -0.40151,-0.359699 -0.49239,-2.014486 -1.14707,-0.335349 -1.93008,-0.690692 -0.79083,-0.346614 -1.21852,-0.729771 -2.10354,-1.884505 -2.15095,-3.956625 -0.0387,-2.064301 1.97093,-4.307488 1.88451,-2.103533 4.7753,-2.204206 2.8986,-0.109401 5.06323,1.829841 0.8292,0.742855 1.49799,2.191626 0.80971,1.748091 0.13723,2.49873 -0.2815,0.31422 -0.69338,0.370037 -0.40007,0.270939 -0.92943,0.756451 -0.51281,0.484604 -1.14619,1.1916 -1.49353,1.667116 -1.91471,2.611424 -0.0442,0.102014 -0.41172,1.267447 -0.33208,1.0556 -0.42591,1.16034 -0.41444,0.462603 -1.04598,0.447495 -0.62282,-0.0073 -1.08542,-0.421723 z m 3.19956,-7.926893 q 0.25022,-0.279307 0.60574,-0.605891 0.37206,-0.327493 0.84941,-0.702264 -0.0964,-0.243674 -0.20475,-0.4037 -0.0918,-0.160934 -0.18784,-0.246949 -1.18705,-1.063455 -2.91403,-0.927113 -1.71916,0.127614 -2.8139,1.349583 -1.04781,1.1696 -1.16058,2.138465 -0.10495,0.960137 0.73297,1.710811 0.54116,0.484811 1.17761,0.740317 0.653,0.254598 1.39347,0.288621 1.5992,-2.311934 2.5219,-3.34188 z"
             inkscape:connector-curvature="0" />
          <path
             id="path3879"
             style="font-style:normal;font-variant:normal;font-weight:bold;font-stretch:normal;font-family:'Comic Sans MS';-inkscape-font-specification:'Comic Sans MS Bold';letter-spacing:-2.01999998px;fill:#f47216"
             d="m 222.90558,45.102775 q -0.50903,-0.550801 -0.51279,-1.297304 -0.004,-0.746504 0.52983,-1.239633 0.53359,-0.49313 1.27749,-0.430646 0.74389,0.06248 1.25293,0.613285 0.50903,0.550801 0.50484,1.288698 0.004,0.746503 -0.52984,1.239633 -0.53359,0.49313 -1.27748,0.430645 -0.73594,-0.05388 -1.24498,-0.604678 z m -5.63232,6.561599 q -0.49055,0.453361 -1.55108,1.481347 -1.05257,1.036592 -1.54313,1.489954 -0.49916,0.461315 -1.13639,0.427912 -0.62863,-0.04136 -1.10585,-0.557732 -0.47723,-0.516376 -0.46899,-1.146307 0.0168,-0.637885 0.51601,-1.0992 0.49055,-0.453361 1.54313,-1.489953 1.06052,-1.027986 1.55108,-1.481348 0.76596,-0.707879 1.99873,-1.687614 1.23278,-0.979734 1.99874,-1.687614 0.49916,-0.461315 1.12778,-0.419958 0.63724,0.0334 1.11446,0.549778 0.47722,0.516376 0.46038,1.15426 -0.008,0.629932 -0.5074,1.091247 -0.76596,0.70788 -1.99873,1.687614 -1.23278,0.979734 -1.99874,1.687614 z"
             inkscape:connector-curvature="0" />
          <path
             id="path3881"
             style="font-style:normal;font-variant:normal;font-weight:bold;font-stretch:normal;font-family:'Comic Sans MS';-inkscape-font-specification:'Comic Sans MS Bold';letter-spacing:-2.01999998px;fill:#f47216"
             d="m 219.02093,63.930123 q -0.87893,-1.142426 0.14488,-2.137095 0.85662,-0.866046 1.72253,-1.739237 0.9145,-0.925354 1.81544,-1.618493 0.24148,-0.185789 0.84807,-0.608108 0.61373,-0.413031 0.85521,-0.598821 0.065,-0.05002 0.33938,-0.231525 0.28364,-0.188651 0.45082,-0.317275 0.77091,-0.593098 0.46364,-0.992483 -0.65741,-0.854497 -2.29649,-0.909388 -1.62264,-0.05275 -3.51245,0.6619 -0.3208,0.217235 -0.88166,0.545235 -0.46083,0.265831 -0.86022,0.573099 -0.26006,0.200081 -0.74661,0.663118 -0.4701,0.465178 -0.73017,0.66526 -0.52942,0.407308 -1.1589,0.30018 -0.63163,-0.09069 -1.06038,-0.647974 -0.42874,-0.557281 -0.35448,-1.191052 0.065,-0.626626 0.59439,-1.033934 0.26006,-0.200082 0.73731,-0.655972 0.48655,-0.463037 0.74661,-0.663118 0.89165,-0.685993 2.57994,-1.777886 1.68829,-1.091893 2.57994,-1.777885 0.27864,-0.214373 0.79805,-0.673125 0.53585,-0.45661 0.8052,-0.663837 0.52013,-0.400162 1.14033,-0.285889 0.63663,0.116415 1.05823,0.664408 0.93609,1.21673 -0.45781,2.422207 l -0.095,0.08789 q 2.40862,0.305623 3.56624,1.810282 1.35055,1.755434 0.39753,3.553202 -0.64153,1.203275 -2.6013,2.71103 l -0.65945,0.507349 q -0.43439,0.319417 -0.61087,0.455187 -0.72446,0.557369 -1.71683,1.631346 -0.98521,1.083264 -1.70039,1.633488 -0.52013,0.400162 -1.14962,0.293035 -0.62948,-0.107127 -1.05108,-0.65512 z"
             inkscape:connector-curvature="0" />
        </g>
        <g
           id="text3947"
           style="font-style:normal;font-variant:normal;font-weight:bold;font-stretch:normal;font-size:24.63927078px;line-height:1.25;font-family:'Comic Sans MS';-inkscape-font-specification:'Comic Sans MS Bold';letter-spacing:0px;word-spacing:0px;fill:#f47216;fill-opacity:1;stroke:none;stroke-width:0.61598176"
           aria-label="6100">
          <path
             id="path4223"
             style="letter-spacing:-2.76612329px;stroke-width:0.61598176"
             d="m 131.47968,70.499792 q -3.40474,0 -5.02891,-2.406179 -1.29934,-1.924943 -1.29934,-5.052975 0,-5.859045 4.98079,-10.154075 0.62561,-0.601544 1.25121,-1.191058 0.87826,-0.782008 1.45574,-0.782008 0.6617,0 1.167,0.457174 0.5053,0.445143 0.52936,1.08278 0.0241,0.601545 -1.37152,1.936974 -0.99857,0.914348 -1.9851,1.816665 -1.10684,1.082781 -1.60011,2.117438 0.64967,-0.252649 1.20309,-0.372958 0.56545,-0.120309 1.03465,-0.120309 3.00773,0 4.65596,1.576047 1.64823,1.564016 1.64823,4.367214 0,2.911477 -1.74448,4.776265 -1.84072,1.949005 -4.89657,1.949005 z m 0,-9.42019 q -0.89029,0 -1.60011,0.288742 -0.37296,0.156401 -1.37152,0.757946 -0.0481,0.493267 -0.0481,0.914348 0,2.273839 0.76997,3.416774 0.76998,1.130904 2.30993,1.130904 1.57605,0 2.44228,-1.058719 0.83013,-1.010595 0.83013,-2.755075 0,-1.34746 -0.83013,-2.02119 -0.83014,-0.67373 -2.50243,-0.67373 z"
             inkscape:connector-curvature="0" />
          <path
             id="path4225"
             style="letter-spacing:-3.75155354px;stroke-width:0.61598176"
             d="m 146.2546,69.645599 -4.77626,-0.01203 q -2.27384,0 -2.27384,-1.431677 0,-1.612139 2.53852,-1.612139 0.24061,0 0.52935,0.01203 V 55.93038 q -1.04668,0.721853 -1.35949,0.721853 -0.67373,0 -1.17902,-0.481236 -0.49327,-0.481235 -0.49327,-1.118873 0,-0.661699 0.80607,-1.359491 l 1.35949,-0.986533 1.46777,-1.179028 q 0.90232,-0.649668 1.74448,-0.649668 1.08278,0 1.08278,1.299337 0,1.431676 -0.12031,4.030349 -0.12031,2.598673 -0.12031,7.423062 v 2.911476 h 0.79404 q 0.69779,0 1.167,0.445143 0.48123,0.445143 0.48123,1.106842 0,0.6617 -0.48123,1.106843 -0.46921,0.445143 -1.167,0.445143 z"
             inkscape:connector-curvature="0" />
          <path
             id="path4227"
             style="stroke-width:0.61598176"
             d="m 155.02721,70.102773 q -3.98223,0 -5.77483,-3.440836 -1.3234,-2.55055 -1.3234,-6.580899 0,-3.440836 1.74448,-6.039509 2.09337,-3.116001 5.7267,-3.116001 3.44084,0 5.34172,2.779136 1.60011,2.346025 1.60011,5.666551 0,5.365779 -1.8287,8.048668 -1.82869,2.68289 -5.48608,2.68289 z m 0.36092,-16.049213 q -1.949,0 -3.12803,1.936974 -1.03466,1.684325 -1.03466,3.910041 0,2.935538 0.55343,4.523616 0.89028,2.56258 3.24834,2.56258 1.97306,0 2.9596,-1.792603 0.98653,-1.804634 0.98653,-5.401871 0,-2.875384 -0.90232,-4.30706 -0.89028,-1.431677 -2.68289,-1.431677 z"
             inkscape:connector-curvature="0" />
          <path
             id="path4229"
             style="stroke-width:0.61598176"
             d="m 170.08989,70.102773 q -3.98223,0 -5.77483,-3.440836 -1.3234,-2.55055 -1.3234,-6.580899 0,-3.440836 1.74448,-6.039509 2.09337,-3.116001 5.7267,-3.116001 3.44084,0 5.34172,2.779136 1.60011,2.346025 1.60011,5.666551 0,5.365779 -1.8287,8.048668 -1.82869,2.68289 -5.48608,2.68289 z m 0.36092,-16.049213 q -1.949,0 -3.12803,1.936974 -1.03466,1.684325 -1.03466,3.910041 0,2.935538 0.55342,4.523616 0.89029,2.56258 3.24835,2.56258 1.97306,0 2.9596,-1.792603 0.98653,-1.804634 0.98653,-5.401871 0,-2.875384 -0.90232,-4.30706 -0.89028,-1.431677 -2.68289,-1.431677 z"
             inkscape:connector-curvature="0" />
        </g>
      </g>
    </g>
    <g
       id="g307"
       transform="matrix(0.53970117,0,0,0.53970117,422.75123,220.67875)">
      <g
         id="g16"
         transform="translate(-10.088985,-11.198041)">
        <circle
           cx="36"
           cy="54"
           r="22"
           transform="matrix(1.477616,0,0,1.5065066,-3.122124,-2.4350016)"
           stroke-miterlimit="4"
           id="circle6"
           style="fill:none;stroke:#de2c68;stroke-width:1.14544892;stroke-miterlimit:4;stroke-dasharray:none;stroke-opacity:1" />
        <circle
           cx="74"
           cy="44"
           r="22"
           transform="matrix(1.5950476,0,0,1.6223254,-10.072136,-9.1778182)"
           stroke-miterlimit="4"
           id="circle8"
           style="fill:none;stroke:#de2c68;stroke-width:1.06239557;stroke-miterlimit:4;stroke-dasharray:none;stroke-opacity:1" />
        <circle
           cx="74"
           cy="44"
           r="29"
           transform="matrix(1.5831269,0,0,1.5986441,-9.3397104,-8.1360194)"
           stroke-miterlimit="4"
           id="circle10"
           style="fill:none;stroke:#de2c68;stroke-width:5.81192684;stroke-miterlimit:4;stroke-dasharray:none;stroke-opacity:1" />
        <polygon
           points="30,52 26,56 31,56 37,50 31,44 26,44 30,48 22,48 22,52 "
           transform="matrix(1.4493674,0,0,1.3737988,-2.70016,2.5042672)"
           id="polygon12"
           style="fill:#ffcc33;fill-opacity:1" />
        <polygon
           points="81,41 73,41 64,50 73,59 81,59 75,53 88,53 88,47 75,47 "
           transform="matrix(1.5159598,0,0,1.568926,-5.2784314,-7.233634)"
           id="polygon14"
           style="fill:#ffcc33;fill-opacity:1" />
      </g>
      <text
         xml:space="preserve"
         style="font-style:normal;font-variant:normal;font-weight:bold;font-stretch:normal;font-size:25.45487213px;line-height:1.25;font-family:'Comic Sans MS';-inkscape-font-specification:'Comic Sans MS Bold';letter-spacing:0px;word-spacing:0px;fill:#000000;fill-opacity:1;stroke:none;stroke-width:0.63637173"
         x="-0.43501979"
         y="131.53453"
         id="text58"><tspan
           id="tspan56"
           x="-0.43501979"
           y="131.53453"
           style="font-style:normal;font-variant:normal;font-weight:bold;font-stretch:normal;font-family:'Comic Sans MS';-inkscape-font-specification:'Comic Sans MS Bold';stroke-width:0.63637173">freifunk.net</tspan></text>
    </g>
    <text
       xml:space="preserve"
       style="font-style:normal;font-variant:normal;font-weight:normal;font-stretch:normal;font-size:13.44135475px;line-height:1.25;font-family:'Comic Sans MS';-inkscape-font-specification:'Comic Sans MS';text-align:center;letter-spacing:0px;word-spacing:0px;text-anchor:middle;fill:#000000;fill-opacity:1;stroke:none;stroke-width:0.33603388"
       x="257.81647"
       y="243.76334"
       id="text311"><tspan
         sodipodi:role="line"
         id="tspan309"
         x="257.81647"
         y="243.76334"
         style="text-align:center;text-anchor:middle;stroke-width:0.33603388">Weitere Infos unter</tspan><tspan
         sodipodi:role="line"
         x="257.81647"
         y="260.56503"
         style="text-align:center;text-anchor:middle;stroke-width:0.33603388"
         id="tspan313">https://www.chaos-darmstadt.de/</tspan></text>
  </g>
</svg>
