<?xml version="1.0" encoding="UTF-8" standalone="no"?>
<svg
   xmlns:dc="http://purl.org/dc/elements/1.1/"
   xmlns:cc="http://creativecommons.org/ns#"
   xmlns:rdf="http://www.w3.org/1999/02/22-rdf-syntax-ns#"
   xmlns:svg="http://www.w3.org/2000/svg"
   xmlns="http://www.w3.org/2000/svg"
   xml:space="preserve"
   id="svg2"
   height="264.13507"
   width="319.79288"
   version="1.1"><metadata
     id="metadata12"><rdf:RDF><cc:Work
         rdf:about=""><dc:format>image/svg+xml</dc:format><dc:type
           rdf:resource="http://purl.org/dc/dcmitype/StillImage" /><dc:title></dc:title></cc:Work></rdf:RDF></metadata><defs
     id="defs6" /><g
     style="font-family:Meta;-inkscape-font-specification:Meta;fill:#ffffff"
     id="name-bottom"><path
       style="font-size:33.10020065px;font-style:normal;font-variant:normal;font-weight:600;font-stretch:normal;letter-spacing:0.85000002px;writing-mode:lr-tb;fill:#ffffff;fill-opacity:1;fill-rule:nonzero;stroke:none;font-family:Magra;-inkscape-font-specification:Magra Semi-Bold"
       id="path3061"
       d="m 4.4963208,242.48597 c 0.6178679,-1.76532 1.6439731,-3.22173 3.0783187,-4.36922 1.4564024,-1.16952 3.3762125,-1.75429 5.7594345,-1.75431 2.383202,2e-5 4.115444,0.61789 5.196732,1.85361 1.081256,1.21369 1.621892,3.2328 1.62191,6.05733 l -5.395333,0.26481 c -1.2e-5,-1.61086 -0.165513,-2.67007 -0.496503,-3.17762 -0.331013,-0.50752 -0.893716,-0.76129 -1.68811,-0.76131 -1.23575,2e-5 -2.074287,0.66202 -2.515615,1.98601 -0.4192767,1.32403 -0.6289111,3.3321 -0.6289043,6.02424 -6.8e-6,2.69216 0.3971952,4.6561 1.1916073,5.89184 0.794396,1.21367 2.107369,1.82051 3.938924,1.82051 1.125394,0 2.714202,-0.331 4.766429,-0.99301 l 1.092306,3.44242 c -2.38323,1.21368 -4.843675,1.82051 -7.381344,1.82051 -6.2890427,0 -9.4335586,-4.01615 -9.4335576,-12.04847 -10e-7,-2.27287 0.2979005,-4.29198 0.8937054,-6.05734" /><path
       style="font-size:33.10020065px;font-style:normal;font-variant:normal;font-weight:600;font-stretch:normal;letter-spacing:0.85000002px;writing-mode:lr-tb;fill:#ffffff;fill-opacity:1;fill-rule:nonzero;stroke:none;font-family:Magra;-inkscape-font-specification:Magra Semi-Bold"
       id="path3063"
       d="m 28.239765,243.71068 c 1.169533,-1.03712 2.603874,-1.55569 4.303027,-1.55571 1.699131,2e-5 3.001071,0.48549 3.905823,1.45641 0.904724,0.97095 1.357093,2.33909 1.357108,4.10442 l 0,12.47878 -5.09743,0 0,-11.94917 c -1.1e-5,-1.43433 -0.684081,-2.1515 -2.052213,-2.15152 -0.816479,2e-5 -1.511583,0.31999 -2.085313,0.95991 l 0,13.14078 -5.06433,0 0,-24.89135 5.06433,-0.5627 0,7.54684 -0.463402,1.35711 0.1324,0.0662" /><path
       style="font-size:33.10020065px;font-style:normal;font-variant:normal;font-weight:600;font-stretch:normal;letter-spacing:0.85000002px;writing-mode:lr-tb;fill:#ffffff;fill-opacity:1;fill-rule:nonzero;stroke:none;font-family:Magra;-inkscape-font-specification:Magra Semi-Bold"
       id="path3065"
       d="m 49.424666,248.14611 c -9e-6,-0.72819 -0.154476,-1.2578 -0.463402,-1.58881 -0.308944,-0.35306 -0.904747,-0.52959 -1.787411,-0.52961 -0.882678,2e-5 -2.339086,0.31999 -4.369227,0.95991 l -1.423308,-3.11142 c 0.750269,-0.41925 1.787407,-0.80542 3.111418,-1.15851 1.34607,-0.37511 2.659043,-0.56268 3.938924,-0.5627 1.301932,2e-5 2.383204,0.15449 3.24382,0.4634 0.88266,0.30896 1.511563,0.77236 1.886711,1.39021 0.397189,0.59582 0.650957,1.19162 0.761305,1.78741 0.132387,0.59582 0.198587,1.34609 0.198601,2.25082 l 0,6.22283 c -1.4e-5,0.81648 0.07722,1.47848 0.231702,1.98602 0.176519,0.50754 0.540621,1.05921 1.092306,1.65501 l -2.879717,2.68111 c -0.507549,-0.24273 -1.004051,-0.60683 -1.489509,-1.0923 -0.463414,-0.48547 -0.805449,-0.93784 -1.026106,-1.35711 l -0.132401,0 c -1.279883,1.63294 -2.901792,2.44941 -4.86573,2.44941 -3.177621,0 -4.766429,-1.64397 -4.766429,-4.93193 0,-1.74327 0.496502,-3.04521 1.489509,-3.90582 1.01507,-0.8606 2.471478,-1.4564 4.369227,-1.78741 l 2.879717,-0.4965 0,-1.32401 m -3.938924,6.98414 c -5e-6,1.08128 0.573731,1.62191 1.721211,1.62191 0.882664,0 1.632934,-0.30893 2.250814,-0.92681 l 0,-3.11142 c -1.412284,0.19861 -2.427355,0.47445 -3.045219,0.82751 -0.617876,0.33101 -0.926811,0.86061 -0.926806,1.58881" /><path
       style="font-size:33.10020065px;font-style:normal;font-variant:normal;font-weight:600;font-stretch:normal;letter-spacing:0.85000002px;writing-mode:lr-tb;fill:#ffffff;fill-opacity:1;fill-rule:nonzero;stroke:none;font-family:Magra;-inkscape-font-specification:Magra Semi-Bold"
       id="path3067"
       d="m 66.145179,242.15497 c 1.213663,2e-5 2.272869,0.18759 3.177619,0.5627 0.904725,0.37516 1.610862,0.86063 2.118413,1.45641 0.529588,0.57376 0.948857,1.29093 1.257807,2.15152 0.507521,1.41228 0.761289,3.14453 0.761305,5.19673 -1.6e-5,3.15556 -0.882688,5.5498 -2.648016,7.18274 -1.346087,1.25781 -3.199697,1.88671 -5.560834,1.88671 -1.213681,0 -2.272886,-0.18757 -3.177619,-0.5627 -0.904743,-0.37514 -1.621913,-0.84957 -2.151513,-1.42331 -0.507539,-0.5958 -0.926808,-1.324 -1.257808,-2.18461 -0.507537,-1.36814 -0.761305,-3.10038 -0.761304,-5.19673 -1e-6,-1.94187 0.386167,-3.65205 1.158507,-5.13054 1.346071,-2.62593 3.707216,-3.9389 7.083443,-3.93892 m 1.919811,9.30116 c -1.1e-5,-2.00807 -0.154478,-3.39828 -0.463402,-4.17063 -0.308946,-0.79439 -0.970949,-1.19159 -1.986013,-1.19161 -0.993013,2e-5 -1.63295,0.37515 -1.919811,1.12541 -0.264808,0.75028 -0.397209,2.11843 -0.397203,4.10443 -6e-6,1.98602 0.154462,3.37622 0.463403,4.17062 0.308928,0.77234 0.970932,1.15851 1.986012,1.15851 1.015063,0 1.655,-0.3641 1.919812,-1.09231 0.264791,-0.75026 0.397191,-2.1184 0.397202,-4.10442" /><path
       style="font-size:33.10020065px;font-style:normal;font-variant:normal;font-weight:600;font-stretch:normal;letter-spacing:0.85000002px;writing-mode:lr-tb;fill:#ffffff;fill-opacity:1;fill-rule:nonzero;stroke:none;font-family:Magra;-inkscape-font-specification:Magra Semi-Bold"
       id="path3069"
       d="m 76.208408,247.5503 c -1e-6,-1.61086 0.639936,-2.9128 1.919812,-3.90582 1.27987,-0.99299 2.890745,-1.48949 4.832629,-1.48951 1.941869,2e-5 3.453443,0.45239 4.534728,1.35711 1.08126,0.88269 1.710163,2.12946 1.886711,3.74032 l -4.435427,0.86061 c -0.154477,-1.50053 -0.893714,-2.2508 -2.217713,-2.25082 -0.485477,2e-5 -0.882679,0.14345 -1.191607,0.43031 -0.308942,0.28688 -0.463409,0.59581 -0.463403,0.9268 -6e-6,0.33102 0.03309,0.58478 0.0993,0.76131 0.08826,0.17654 0.209629,0.34204 0.364103,0.4965 0.176528,0.15448 0.342028,0.29791 0.496503,0.4303 0.176527,0.11035 0.408228,0.23171 0.695104,0.3641 0.308927,0.13242 0.573729,0.24275 0.794405,0.33101 0.308926,0.17654 1.015063,0.49651 2.118412,0.9599 1.103329,0.44135 2.030134,1.01508 2.780417,1.72121 0.750258,0.70615 1.125393,1.73225 1.125407,3.07832 -1.4e-5,1.34608 -0.617884,2.55975 -1.853611,3.64102 -1.213685,1.05921 -2.934894,1.58881 -5.163631,1.58881 -2.228752,0 -4.457497,-0.65097 -6.686241,-1.95291 l 1.820511,-3.27692 c 2.206676,0.94888 3.828584,1.42331 4.86573,1.42331 0.507528,0 0.926797,-0.11033 1.257807,-0.331 0.35306,-0.22067 0.529594,-0.55167 0.529603,-0.99301 -9e-6,-0.4634 -0.242743,-0.83853 -0.728204,-1.12541 -0.507544,-0.30892 -0.893713,-0.51856 -1.158507,-0.6289 -2.096351,-0.81646 -3.685159,-1.66603 -4.766429,-2.54871 -0.970941,-0.7944 -1.45641,-1.99704 -1.456409,-3.60793" /><path
       style="font-size:33.10020065px;font-style:normal;font-variant:normal;font-weight:600;font-stretch:normal;letter-spacing:0.85000002px;writing-mode:lr-tb;fill:#ffffff;fill-opacity:1;fill-rule:nonzero;stroke:none;font-family:Magra;-inkscape-font-specification:Magra Semi-Bold"
       id="path3071"
       d="m 101.08217,236.75964 7.54684,0 c 1.5226,2e-5 2.84661,0.23172 3.97203,0.6951 1.14746,0.46343 2.04116,1.05923 2.68111,1.78741 0.66199,0.70616 1.19159,1.59987 1.58881,2.68112 0.66199,1.80949 0.99299,4.01617 0.99301,6.62004 -2e-5,4.0603 -0.99302,7.14965 -2.97902,9.26806 -1.50056,1.58881 -3.5638,2.38321 -6.18974,2.38321 l -7.61304,0 0,-23.43494 m 5.42843,4.10442 0,15.2261 2.08531,0 c 1.3902,0 2.31701,-0.63994 2.78042,-1.91982 0.46339,-1.30193 0.69509,-3.25484 0.6951,-5.85873 -1e-5,-2.60387 -0.27584,-4.49058 -0.8275,-5.66014 -0.52962,-1.19158 -1.50055,-1.78739 -2.91282,-1.78741 l -1.82051,0" /><path
       style="font-size:33.10020065px;font-style:normal;font-variant:normal;font-weight:600;font-stretch:normal;letter-spacing:0.85000002px;writing-mode:lr-tb;fill:#ffffff;fill-opacity:1;fill-rule:nonzero;stroke:none;font-family:Magra;-inkscape-font-specification:Magra Semi-Bold"
       id="path3073"
       d="m 128.99055,248.14611 c -1e-5,-0.72819 -0.15447,-1.2578 -0.4634,-1.58881 -0.30894,-0.35306 -0.90475,-0.52959 -1.78741,-0.52961 -0.88268,2e-5 -2.33909,0.31999 -4.36923,0.95991 l -1.4233,-3.11142 c 0.75026,-0.41925 1.7874,-0.80542 3.11141,-1.15851 1.34607,-0.37511 2.65905,-0.56268 3.93893,-0.5627 1.30193,2e-5 2.3832,0.15449 3.24382,0.4634 0.88266,0.30896 1.51156,0.77236 1.88671,1.39021 0.39719,0.59582 0.65096,1.19162 0.7613,1.78741 0.13239,0.59582 0.19859,1.34609 0.1986,2.25082 l 0,6.22283 c -10e-6,0.81648 0.0772,1.47848 0.23171,1.98602 0.17652,0.50754 0.54062,1.05921 1.0923,1.65501 l -2.87971,2.68111 c -0.50755,-0.24273 -1.00406,-0.60683 -1.48951,-1.0923 -0.46342,-0.48547 -0.80545,-0.93784 -1.02611,-1.35711 l -0.1324,0 c -1.27988,1.63294 -2.90179,2.44941 -4.86573,2.44941 -3.17762,0 -4.76643,-1.64397 -4.76643,-4.93193 0,-1.74327 0.4965,-3.04521 1.48951,-3.90582 1.01507,-0.8606 2.47148,-1.4564 4.36923,-1.78741 l 2.87971,-0.4965 0,-1.32401 m -3.93892,6.98414 c -1e-5,1.08128 0.57373,1.62191 1.72121,1.62191 0.88266,0 1.63293,-0.30893 2.25081,-0.92681 l 0,-3.11142 c -1.41228,0.19861 -2.42735,0.47445 -3.04521,0.82751 -0.61788,0.33101 -0.92682,0.86061 -0.92681,1.58881" /><path
       style="font-size:33.10020065px;font-style:normal;font-variant:normal;font-weight:600;font-stretch:normal;letter-spacing:0.85000002px;writing-mode:lr-tb;fill:#ffffff;fill-opacity:1;fill-rule:nonzero;stroke:none;font-family:Magra;-inkscape-font-specification:Magra Semi-Bold"
       id="path3075"
       d="m 142.33484,245.96149 c 0.331,-1.16952 0.88267,-2.09633 1.65501,-2.78041 0.77233,-0.68406 1.66604,-1.02609 2.68112,-1.02611 1.03713,2e-5 1.97496,0.20965 2.81352,0.6289 l -1.15851,4.00513 c -0.68408,-0.19859 -1.26885,-0.29789 -1.75431,-0.2979 -0.86062,1e-5 -1.64399,0.31998 -2.35012,0.9599 -0.68407,0.63995 -1.02611,1.57779 -1.0261,2.81352 l 0,9.93006 -5.06433,0 0,-12.47878 -0.36411,-4.89883 3.83963,-0.4965 0.5958,3.64102 0.1324,0" /><path
       style="font-size:33.10020065px;font-style:normal;font-variant:normal;font-weight:600;font-stretch:normal;letter-spacing:0.85000002px;writing-mode:lr-tb;fill:#ffffff;fill-opacity:1;fill-rule:nonzero;stroke:none;font-family:Magra;-inkscape-font-specification:Magra Semi-Bold"
       id="path3077"
       d="m 155.75827,244.33958 c 1.14747,-1.45639 2.69214,-2.18459 4.63403,-2.18461 1.94186,2e-5 3.32104,0.71719 4.13752,2.15151 1.16953,-1.43432 2.75834,-2.15149 4.76643,-2.15151 3.39827,2e-5 5.09741,2.1074 5.09743,6.32214 l 0,11.71747 -5.09743,0 0,-11.94917 c -2e-5,-1.43433 -0.58479,-2.1515 -1.75431,-2.15152 -0.83855,2e-5 -1.51159,0.31999 -2.01911,0.95991 l 0,13.14078 -5.06433,0 0,-11.94917 c -10e-6,-1.43433 -0.59582,-2.1515 -1.78741,-2.15152 -0.79442,2e-5 -1.46745,0.31999 -2.01912,0.95991 l 0,13.14078 -5.06433,0 0,-12.44568 -0.3641,-4.93193 3.93893,-0.4965 0.4634,2.01911 0.1324,0" /><path
       style="font-size:33.10020065px;font-style:normal;font-variant:normal;font-weight:600;font-stretch:normal;letter-spacing:0.85000002px;writing-mode:lr-tb;fill:#ffffff;fill-opacity:1;fill-rule:nonzero;stroke:none;font-family:Magra;-inkscape-font-specification:Magra Semi-Bold"
       id="path3079"
       d="m 177.69981,247.5503 c 0,-1.61086 0.63994,-2.9128 1.91981,-3.90582 1.27987,-0.99299 2.89075,-1.48949 4.83263,-1.48951 1.94187,2e-5 3.45344,0.45239 4.53473,1.35711 1.08126,0.88269 1.71016,2.12946 1.88671,3.74032 l -4.43543,0.86061 c -0.15447,-1.50053 -0.89371,-2.2508 -2.21771,-2.25082 -0.48548,2e-5 -0.88268,0.14345 -1.19161,0.43031 -0.30894,0.28688 -0.46341,0.59581 -0.4634,0.9268 -1e-5,0.33102 0.0331,0.58478 0.0993,0.76131 0.0883,0.17654 0.20963,0.34204 0.3641,0.4965 0.17653,0.15448 0.34203,0.29791 0.49651,0.4303 0.17652,0.11035 0.40822,0.23171 0.6951,0.3641 0.30893,0.13242 0.57373,0.24275 0.7944,0.33101 0.30893,0.17654 1.01507,0.49651 2.11842,0.9599 1.10333,0.44135 2.03013,1.01508 2.78041,1.72121 0.75026,0.70615 1.1254,1.73225 1.12541,3.07832 -1e-5,1.34608 -0.61788,2.55975 -1.85361,3.64102 -1.21369,1.05921 -2.93489,1.58881 -5.16363,1.58881 -2.22875,0 -4.4575,-0.65097 -6.68624,-1.95291 l 1.82051,-3.27692 c 2.20667,0.94888 3.82858,1.42331 4.86573,1.42331 0.50753,0 0.9268,-0.11033 1.25781,-0.331 0.35306,-0.22067 0.52959,-0.55167 0.5296,-0.99301 -1e-5,-0.4634 -0.24274,-0.83853 -0.72821,-1.12541 -0.50754,-0.30892 -0.89371,-0.51856 -1.1585,-0.6289 -2.09635,-0.81646 -3.68516,-1.66603 -4.76643,-2.54871 -0.97094,-0.7944 -1.45641,-1.99704 -1.45641,-3.60793" /><path
       style="font-size:33.10020065px;font-style:normal;font-variant:normal;font-weight:600;font-stretch:normal;letter-spacing:0.85000002px;writing-mode:lr-tb;fill:#ffffff;fill-opacity:1;fill-rule:nonzero;stroke:none;font-family:Magra;-inkscape-font-specification:Magra Semi-Bold"
       id="path3081"
       d="m 200.23148,242.41977 4.46853,0 -0.59581,3.67412 -3.87272,0 0,7.57995 c -1e-5,1.12541 0.15446,1.90878 0.4634,2.35011 0.30893,0.44134 0.83853,0.66201 1.58881,0.66201 0.30893,0 0.93783,-0.11033 1.88671,-0.331 l 0.89371,2.94591 c -0.41928,0.33101 -1.10335,0.62891 -2.05221,0.89371 -0.92682,0.2648 -1.77639,0.3972 -2.54872,0.3972 -2.18462,0 -3.61896,-0.55167 -4.30303,-1.65501 -0.662,-1.1254 -0.993,-2.95694 -0.993,-5.49463 l 0,-7.34825 -2.54872,0 0.46341,-3.31002 2.18461,-0.2979 0.1986,-3.31002 4.76643,-1.42331 0,4.66713" /><path
       style="font-size:33.10020065px;font-style:normal;font-variant:normal;font-weight:600;font-stretch:normal;letter-spacing:0.85000002px;writing-mode:lr-tb;fill:#ffffff;fill-opacity:1;fill-rule:nonzero;stroke:none;font-family:Magra;-inkscape-font-specification:Magra Semi-Bold"
       id="path3083"
       d="m 215.27991,248.14611 c -1e-5,-0.72819 -0.15447,-1.2578 -0.4634,-1.58881 -0.30894,-0.35306 -0.90475,-0.52959 -1.78741,-0.52961 -0.88268,2e-5 -2.33909,0.31999 -4.36923,0.95991 l -1.4233,-3.11142 c 0.75026,-0.41925 1.7874,-0.80542 3.11141,-1.15851 1.34607,-0.37511 2.65905,-0.56268 3.93893,-0.5627 1.30193,2e-5 2.3832,0.15449 3.24382,0.4634 0.88266,0.30896 1.51156,0.77236 1.88671,1.39021 0.39719,0.59582 0.65096,1.19162 0.7613,1.78741 0.13239,0.59582 0.19859,1.34609 0.1986,2.25082 l 0,6.22283 c -1e-5,0.81648 0.0772,1.47848 0.23171,1.98602 0.17652,0.50754 0.54062,1.05921 1.0923,1.65501 l -2.87971,2.68111 c -0.50755,-0.24273 -1.00406,-0.60683 -1.48951,-1.0923 -0.46342,-0.48547 -0.80545,-0.93784 -1.02611,-1.35711 l -0.1324,0 c -1.27988,1.63294 -2.90179,2.44941 -4.86573,2.44941 -3.17762,0 -4.76643,-1.64397 -4.76643,-4.93193 0,-1.74327 0.4965,-3.04521 1.48951,-3.90582 1.01507,-0.8606 2.47148,-1.4564 4.36923,-1.78741 l 2.87971,-0.4965 0,-1.32401 m -3.93892,6.98414 c -1e-5,1.08128 0.57373,1.62191 1.72121,1.62191 0.88266,0 1.63293,-0.30893 2.25081,-0.92681 l 0,-3.11142 c -1.41228,0.19861 -2.42735,0.47445 -3.04521,0.82751 -0.61788,0.33101 -0.92682,0.86061 -0.92681,1.58881" /><path
       style="font-size:33.10020065px;font-style:normal;font-variant:normal;font-weight:600;font-stretch:normal;letter-spacing:0.85000002px;writing-mode:lr-tb;fill:#ffffff;fill-opacity:1;fill-rule:nonzero;stroke:none;font-family:Magra;-inkscape-font-specification:Magra Semi-Bold"
       id="path3085"
       d="m 226.20789,244.10788 c 0.72821,-0.68405 1.46744,-1.18055 2.21772,-1.48951 0.75026,-0.30891 1.6881,-0.46338 2.81352,-0.4634 1.14746,2e-5 2.09633,0.23172 2.84661,0.6951 l 0.0993,-0.0993 -0.4965,-0.8937 0,-6.55384 5.06433,-0.5627 0,20.22422 0.3641,4.93193 -3.93892,0.4965 -0.4634,-2.08531 -0.1324,0 c -1.23576,1.52261 -2.72526,2.28391 -4.46853,2.28391 -4.23683,0 -6.35524,-2.94591 -6.35524,-8.83775 0,-1.7874 0.22067,-3.34311 0.662,-4.66713 0.4634,-1.32399 1.05921,-2.317 1.78741,-2.97902 m 7.48065,2.51562 c -0.52961,-0.35306 -1.04818,-0.52959 -1.55571,-0.52961 -0.50754,2e-5 -0.89371,0.0552 -1.15851,0.16551 -0.26481,0.0883 -0.55167,0.29791 -0.8606,0.6289 -0.63995,0.68408 -0.95991,2.14049 -0.95991,4.36923 0,2.20668 0.18756,3.66309 0.56271,4.36922 0.37512,0.68408 0.99299,1.02611 1.85361,1.02611 0.88266,0 1.5888,-0.331 2.11841,-0.99301 l 0,-9.03635" /><path
       style="font-size:33.10020065px;font-style:normal;font-variant:normal;font-weight:600;font-stretch:normal;letter-spacing:0.85000002px;writing-mode:lr-tb;fill:#ffffff;fill-opacity:1;fill-rule:nonzero;stroke:none;font-family:Magra;-inkscape-font-specification:Magra Semi-Bold"
       id="path3087"
       d="m 248.7468,242.41977 4.46853,0 -0.59581,3.67412 -3.87272,0 0,7.57995 c -1e-5,1.12541 0.15446,1.90878 0.4634,2.35011 0.30893,0.44134 0.83853,0.66201 1.58881,0.66201 0.30893,0 0.93783,-0.11033 1.88671,-0.331 l 0.89371,2.94591 c -0.41928,0.33101 -1.10335,0.62891 -2.05221,0.89371 -0.92682,0.2648 -1.77639,0.3972 -2.54872,0.3972 -2.18462,0 -3.61896,-0.55167 -4.30303,-1.65501 -0.662,-1.1254 -0.993,-2.95694 -0.993,-5.49463 l 0,-7.34825 -2.54872,0 0.46341,-3.31002 2.18461,-0.2979 0.1986,-3.31002 4.76643,-1.42331 0,4.66713" /><path
       style="font-size:33.10020065px;font-style:normal;font-variant:normal;font-weight:600;font-stretch:normal;letter-spacing:0.85000002px;writing-mode:lr-tb;fill:#ffffff;fill-opacity:1;fill-rule:nonzero;stroke:none;font-family:Magra;-inkscape-font-specification:Magra Semi-Bold"
       id="path3089"
       d="m 271.16857,242.15497 c 2.20667,2e-5 3.82858,0.60686 4.86573,1.82051 0.86059,0.99302 1.39019,2.64803 1.58881,4.96503 0.0662,0.92682 0.0993,2.08532 0.0993,3.47552 l -2.35011,0.331 -6.81865,0 c 0,1.30195 0.24273,2.28392 0.72821,2.94592 0.48546,0.63994 1.34606,0.95991 2.58181,0.95991 1.2578,0 2.76938,-0.31997 4.53473,-0.95991 l 1.02611,3.11142 c -2.09636,1.19161 -4.28097,1.78741 -6.55384,1.78741 -5.14157,0 -7.71235,-3.04521 -7.71235,-9.13565 0,-2.86868 0.662,-5.13052 1.98601,-6.78554 1.34607,-1.67706 3.35415,-2.5156 6.02424,-2.51562 m 1.12541,4.70023 c -0.22068,-0.50752 -0.71718,-0.76129 -1.48951,-0.76131 -0.77235,2e-5 -1.32402,0.28689 -1.65501,0.86061 -0.33101,0.55168 -0.51858,1.39022 -0.56271,2.51562 l 4.03823,0 c -10e-6,-1.2578 -0.11035,-2.12944 -0.331,-2.61492" /><path
       style="font-size:33.10020065px;font-style:normal;font-variant:normal;font-weight:600;font-stretch:normal;letter-spacing:0.85000002px;writing-mode:lr-tb;fill:#ffffff;fill-opacity:1;fill-rule:nonzero;stroke:none;font-family:Magra;-inkscape-font-specification:Magra Semi-Bold"
       id="path3091"
       d="m 283.77379,260.59178 c -1.87568,0 -2.81352,-1.0261 -2.81352,-3.07832 0,-0.7944 0.25377,-1.46743 0.76131,-2.01911 0.50753,-0.55166 1.2909,-0.8275 2.35011,-0.8275 1.87567,0 2.81351,1.03714 2.81352,3.11142 -10e-6,0.7944 -0.25378,1.46744 -0.76131,2.01911 -0.50754,0.5296 -1.29091,0.7944 -2.35011,0.7944" /><path
       style="font-size:33.10020065px;font-style:normal;font-variant:normal;font-weight:600;font-stretch:normal;letter-spacing:0.85000002px;writing-mode:lr-tb;fill:#ffffff;fill-opacity:1;fill-rule:nonzero;stroke:none;font-family:Magra;-inkscape-font-specification:Magra Semi-Bold"
       id="path3093"
       d="m 308.00702,237.28924 -6.48764,22.90534 -5.92493,0 -6.32214,-22.90534 5.26293,-0.6951 3.67412,14.92819 0.49651,3.90582 0.1655,0 0.4965,-3.87272 3.67412,-14.96129 4.96503,0.6951" /><path
       style="font-size:33.10020065px;font-style:normal;font-variant:normal;font-weight:600;font-stretch:normal;letter-spacing:0.85000002px;writing-mode:lr-tb;fill:#ffffff;fill-opacity:1;fill-rule:nonzero;stroke:none;font-family:Magra;-inkscape-font-specification:Magra Semi-Bold"
       id="path3095"
       d="m 313.07884,260.59178 c -1.87568,0 -2.81352,-1.0261 -2.81352,-3.07832 0,-0.7944 0.25377,-1.46743 0.76131,-2.01911 0.50753,-0.55166 1.2909,-0.8275 2.35011,-0.8275 1.87568,0 2.81351,1.03714 2.81352,3.11142 -1e-5,0.7944 -0.25377,1.46744 -0.7613,2.01911 -0.50755,0.5296 -1.29092,0.7944 -2.35012,0.7944" /></g><path
     style="fill:#ffffff;fill-opacity:1;fill-rule:evenodd;stroke:none"
     id="path3000"
     d="m 154.86041,175.99831 0,0 0.021,0 -48.328,0 c -18.563004,-14.396 -30.586004,-36.869 -30.586004,-62.123 0,-43.442003 35.337004,-78.672003 78.914004,-78.672003 31.536,0 59.007,18.894 71.646,45.56 0.529,-0.213 1.109,-0.405 1.742,-0.583 0.861,-0.251 1.752,-0.039 2.553,0.3 0.674,-2.811 4.582,-4.783 7.268,-3.733 0.704,-2.303 4.389,-4.074 6.658,-3.224 0.543,-1.355 1.965,-2.285 3.264,-2.785 l -10e-4,-0.002 c 1.171,-0.385 2.2,-0.476 3.331,0.084 0.036,-0.163 0.063,-0.4 0.101,-0.657 -16.649,-36.591 -53.784,-63.002 -96.562,-62.425 -58.380004,0.012 -105.721005,47.389 -105.721005,105.808003 0,58.419 47.341001,105.796 105.721005,105.807 44.965,0 83.458,-28.364 98.746,-67.968 -5.729,-6.316 -13.943,-10.203 -22.382,-12.657 -1.849,9.149 -5.065,16.379 -12.414,20.827 -4.412,6.077 -9.733,11.859 -15.642,16.443 z m 23.158,-105.257003 c -1.53,0 -2.7,-0.9 -2.7,-5.13 0,-3.03 0.689,-5.01 2.73,-5.01 1.53,0 2.7,0.9 2.7,5.13 0,3.03 -0.69,5.01 -2.73,5.01 m -7.11,-5.04 c 0,2.951 1.018,5.276 2.81,6.64 -1.578,0.551 -3.133,1.433 -4.908,2.853 -4.617,2.678 -10.259,1.288 -13.866,6.625 -0.867,1.301 -1.791,2.639 -2.969,3.681 l -66.658004,-0.002 c 24.841004,-60.898 110.690004,-61.207 137.999004,-2.54 -0.804,0.994 -1.253,2.241 -1.414,3.845 -2.033,-5.018 -7.801,-11.261 -12.287,-12.999 -2.834,-1.097 -4.456,-0.363 -7.425,-0.825 -3.584,-0.556 -7.187,-1.032 -10.624,-2.35 -3.209,-0.902 -5.34,0.25 -8.221,0.645 1.151,-1.395 1.813,-3.331 1.813,-5.633 0,-4.83 -2.73,-7.98 -7.11,-7.98 -4.23,0 -7.14,3.21 -7.14,8.04 m 4.868,7.675 c 0.789,-0.333 3.095,-0.204 3.799,0.155 6.43,1.726 12.48,10.253 12.621,15.967002 -7.777,1.698 -10.206,-6.467002 -15.66,-9.885002 -1.934,-1.212 -3.41,-1.797 -5.591,-3.297 l 1.064,-0.962 c 1.196,-1.078 2.467,-1.708 3.767,-1.978 m -13.809,-2.635 c -1.529,0 -2.699,-0.9 -2.699,-5.13 0,-3.03 0.69,-5.01 2.73,-5.01 1.53,0 2.7,0.9 2.7,5.13 0,3.03 -0.691,5.01 -2.731,5.01 m -7.109,-5.04 c 0,4.83 2.73,7.985 7.109,7.985 4.231,0 7.141,-3.215 7.141,-8.045 0,-4.83 -2.73,-7.98 -7.11,-7.98 -4.23,0 -7.14,3.21 -7.14,8.04 m -12.93,-3.84 1.02,2.16 c 1.32,-0.45 2.49,-1.05 3.6,-1.74 l 0,7.77 -3.24,0 0,3.27 9.51,0 0,-3.27 -2.4,0 0,-12.39 -2.7,0 z m -9.06,1.95 c 1.68,0 2.73,1.23 2.73,3.15 0,2.25 -1.17,3.69 -2.97,3.69 -1.86,0 -2.97,-1.5 -2.97,-4.05 0,-0.48 0.03,-0.99 0.06,-1.56 0.03,-0.06 0.03,-0.12 0.03,-0.24 1.2,-0.69 2.16,-0.99 3.12,-0.99 m 1.53,-10.98 c -2.01,0.93 -3.63,2.01 -4.98,3.27 -1.5,1.41 -2.7,3.15 -3.36,4.86 -0.51,1.29 -0.78,2.85 -0.78,4.32 0,4.95 3.15,8.465 7.53,8.465 3.96,0 7.02,-2.975 7.02,-6.845 0,-3.57 -2.79,-6.33 -6.42,-6.33 -1.29,0 -2.4,0.33 -3.21,0.99 0.33,-1.05 0.9,-2.1 1.62,-3 0.42,-0.57 0.93,-1.08 1.5,-1.53 1.17,-0.96 2.37,-1.59 4.53,-2.34 l 0.15,-0.06 -0.87,-2.88 c -1.14,0.36 -1.59,0.51 -2.73,1.08 m 20.462,34.812 0,0 c 5.228,-0.365 11.653,0.924002 17.292,5.648002 -2.014,4.93 -13.395,3.277 -17.271,2.418 -3.439,-0.758 -7.176,-0.938 -10.389,-2.497 0.802,-4.669 6.484,-5.407002 10.368,-5.569002 m 0.021,10.236002 0,0 c 2.524,0.283 5.055,0.562 7.461,1.402 -1.281,8.414001 -15.106,6.953001 -20.517,5.838001 -3.613,-0.745 -5.478,-0.334 -9.163,-1.972 5.044,-7.462001 14.449,-6.137001 22.219,-5.268001 m 0,16.250001 0,0 -1.362,-0.346 c -5.877,5.682 -11.848,10.043 -19.752,12.682 -2.97,1.076 -3.967,2.141 -6.621,3.734 -1.556,0.932 -6.162,1.094 -7.918,1.475 -4.302,0.933 -6.555,1.371 -10.761,2.288 -4.478,0.973 -11.867004,-1.212 -13.352004,3.085 0.287,1.065 0.634,2.121 1.036,3.164 1.997,0.252 3.83,-0.43 6.214004,-0.192 2.495,0.247 4.098,-1.589 6.823,-1.555 1.994,-3.587 13.515,-1.011 16.328,-1.09 6.161,-0.172 9.289,3.646 14.552,5.286 4.533,1.416 8.928,2.012 13.412,3.113 5.682,-6.17 11.417,-12.271 18.425,-16.983 10.609,-7.132 22.252,-10.806 34.168,-11.642 0.086,-1.396 -0.216,-2.017 -0.55,-2.978 -1.228,0.412 -2.457,0.826 -3.681,1.25 -16.287,5.648 -31.454,2.615 -46.961,-1.291 m -0.689,33.535 0,0 c 8.438,-1.258 17.465,16.238 21.643,21.873 -4.713,1.025 -4.206,-0.119 -8.779,-1.982 -6.421,-2.621 -11.092,-13.544 -14.673,-19.52 0.6,-0.125 1.204,-0.28 1.809,-0.371 m 0.689,9.121 0,0 c 1.478,2.508 3.261,5.296 3.912,8.166 -4.462,0.752 -10.218,0.556 -12.572,-4.18 -2.606,-5.239 -4.326,-12.765 -5.818,-15.804 2.872,0.627 5.873,0.855 7.874,2.304 2.924,2.116 4.469,5.892 6.604,9.514 m 0,14.44 0,0 c 1.105,-0.995 2.167,-2.02 3.232,-3.071 2.533,0.416 5.202,0.029 7.47,1.172 2.138,1.078 4.347,2.094 6.641,2.664 l -18.238,0 z m 38.192,0.765 0,0 c 4.307,-0.998 9.141,-1.91 13.06,-4.025 -1.382,1.384 -2.792,2.857 -4.305,4.025 z m 66.027,-40.711 0,0 c -7.539,-5.349 -16.383,-8.883 -25.278,-11.265 0.392,-2.342 0.325,-8.324 -0.808,-12.229 1.696,0.072 3.568,-0.607 5.171,-1.369 l 0,-10e-4 c 1.031,-0.464 1.9,-1.519 2.136,-2.63 1.686,1.969 5.029,1.49 7.049,0.144 l 0,-0.001 c 0.672,-0.451 1.08,-1.243 1.286,-2.004 2.066,1.66 4.094,0.803 6.451,-0.035 0.899,-0.274 1.517,-0.933 1.869,-1.78 0.48,0.235 0.964,0.462 1.434,0.711 l 0.007,-0.011 c 0.454,0.189 0.944,0.267 1.444,0.253 1.17,10.11 0.873,20.165 -0.761,30.217 m -93.292,18.342 0,0 c 6.869,-1.482 15.586,10.348 20.089,14.576 1.552,1.457 3.228,1.944 6.446,5.103 -11.868,4.362 -18.19,-5.036 -24.403,-13.923 -1.163,-1.665 -2.815,-3.561 -3.243,-5.518 z m 14.879,-59.742001 0,0 1.361,-0.557 c -2.028,-2.693002 -3.816,-4.304002 -6.27,-6.607002 -5.148,-4.841 -15.499,-5.656 -19.459,1.029 2.519,1.293 3.259,1.031 5.793,1.75 6.273,1.779 11.587,7.244002 18.575,4.385002 m 6.551,-17.700002 0,0 c -3.14,0.695 2.367,5.417 2.852,6.225 2.097,3.488 5.851,15.729002 11.322,14.541002 2.801,-0.607 -1.067,-11.718002 -1.453,-13.425002 -0.966,-4.256 -8.609,-8.251 -12.721,-7.341 m 13.482,2.731 c 0.626,2.184 1.931,4.619 2.281,6.292 0.895,4.282 0.955,12.747002 7.572,11.302002 6.38,-1.393 0.85,-12.714002 -2.066,-15.151002 -2.136,-1.731 -5.115,-3.543 -7.787,-2.443 m 16.495,6.415 0,0 c -1.226,-2.411 -3.034,-1.575 -3.15,1.019 -0.1,2.188 0.171,4.391 0.375,6.564002 0.223,2.611 4.023,2.104 4.746,-0.11 0.445,-1.359002 -1.323,-6.453002 -1.971,-7.473002 m 11.773,58.807003 0,0 c 0.353,3.526 -2.465,7.738 -5.5,9.377 -6.452,3.482 -15.119,0.241 -21.321,-2.435 5.706,-3.342 13.314,-4.435 19.7,-5.928 2.653,-0.621 4.19,-2.544 7.043,-1.799 z m -7.615,15.278 0,0 c -1.807,4.127 -8.826,4.854 -12.701,5.695 -2.815,0.612 -14.917,-6.369 -15.556,-9.181 l -0.253,-1.115 c 7.107,-1.546 14.966,1.595 22.043,2.365 2.85,0.312 4.276,0.088 6.933,1.171 z m -16.131,9.692 0,0 c -1.883,2.259 -5.082,2.259 -7.709,2.832 -6.079,1.32 -12.914,-7.856 -16.195,-12.17 -1.04,-1.368 -1.18,-1.536 -1.543,-3.153 9.633,-2.098 18.951,6.604 26.251,11.528 z m 4.995,-49.136 0,0 c -7.142,0.343 14.623,-7.46 18.542,-8.526 1.857,0.146 4.444,3.523 0.125,5.849 -3.61,0.424 -14.119,2.443 -18.667,2.677 m 35.684,-34.188003 0,0 -0.22,1.81 -1.07,-1.199 z m 11.908,9.728002 0,0 0.263,-0.085 1.178,1.03 -1.643,0.534 c 0.059,-0.495 0.131,-0.987 0.202,-1.479 m -11.905,-17.272002 0,0 c 0.108,-0.461 0.674,-1.245 1.226,-1.163 5.063,2.929 14.564,8.623 13.468,15.561002 l -0.002,0 c -0.182,0.928 -0.32,1.863 -0.487,2.794 -0.487,-0.426 -1.395,-1.613 -2.123,-1.382 0.677,-6.879002 -7.292,-12.545002 -12.082,-15.810002 m -6.609,3.107 0,0 c 0.452,-1.915 2.034,-1.148 3.118,-0.121 -0.648,0.295 -1.287,0.614 -1.943,0.892 -0.33,-0.248 -0.734,-0.52 -1.175,-0.771 m 1.417,19.776002 0,0 c 0.324,-0.111 0.649,-0.223 0.978,-0.322 l 1.178,0.962 -2.204,0.581 c 0.03,-0.397 0.045,-0.806 0.048,-1.221 m -8.669,-16.005002 0,0 c 0.442,-2.884 2.24,-1.312 2.921,-0.956 6.881,4.473 9.492,8.546002 8.734,16.550002 -1.369,-1.138 -1.511,-1.497 -3.014,-0.993 -0.29,-6.014 -3.202,-11.492002 -8.533,-14.543002 l -0.001,0.002 z m 25.291,17.688002 0,0 c 0.077,-0.407 0.119,-0.82 0.15,-1.233 0.584,-0.194 1.158,-0.413 1.737,-0.618 -0.212,1.752 -0.221,2.682 -1.887,1.851 m -8.413,1.669001 0,0 c 0.975,-5.721001 1.688,-10.233001 -1.208,-14.422003 -1.075,-1.58 -0.723,-2.121 -0.483,-4.094 2.699,2.314 4.877,5.131 5.223,8.830002 0.127,1.359 0.168,9.631001 -2.053,10.682001 -0.575,-0.224 -0.948,-0.803 -1.479,-0.996 m -7.789,2.221 0,0 1.603,-0.483 c -0.107,0.461 -0.28,1.077 -0.656,1.404 -0.375,-0.221 -0.677,-0.586 -0.947,-0.921 m -10.613,2.259 0,0 c 0.594,0.986 1.476,1.652 2.607,1.473 2.414,-3.658 2.017,-9.924001 0.887,-14.147001 -1.055,-3.908 -10.708,-14.138002 -10.86,-4.136002 7.932,-2.721 13.877,14.382003 7.366,16.810003 m 27.216,-30.691003 0,0 1.622,1.258 c -0.507,0.199 -2.213,0.772 -1.214,1.562 l -10e-4,0.001 c 6.246,4.988 7.387,6.688 6.14,14.954002 -0.646,4.295 -0.304,6.422 -4.344,7.572 0.441,-0.886 0.549,-1.925 0.661,-2.896 0.327,-2.846 -2.582,-0.284 -3.944,-0.284 -1.079,0.322 -0.112,3.54 -2.013,4.202001 l 0,-10e-4 c -0.768,0.272 -1.551,0.5 -2.344,0.688 3.73,-7.523001 1.328,-16.156003 -5.151,-21.148003 -0.319,-0.272 -5.338,1.095 -4.142,2.411 0,0.321 2.252,2.543 2.624,2.987 3.773,4.981002 2.813,9.727002 1.825,15.541003 -0.454,2.095 -1.828,2.27 -3.806,2.553 1.343,-4.545001 -1.134,-2.326 -3.942,-1.494 -1.177,0.348 -0.567,2.219 -2.112,3.041 -0.883,0.42 -1.829,0.693 -2.781,0.904 3.392,-7.544001 0.587,-21.736003 -8.77,-23.611003 2.193,-1.018 3.293,-1.381 5.432,-0.173 l -0.001,0 0.012,0.007 -10e-4,0.001 c 6.903,3.955 7.582,9.681002 7.761,16.803002 -0.077,0.469 0.372,0.888001 0.849,0.749 3.746,-1.103 4.636,-0.039 5.014,-3.858 0.754,-7.64 -2.699,-13.083002 -9.438,-17.008002 -0.388,-0.242 -0.803,-0.448 -1.238,-0.587 0.534,-0.273 1.127,-0.54 1.716,-0.67 1.184,-0.126 3.771,1.958 4.462,1.736 l 0,0 c 0.576,0 4.335,-1.532 3.441,-2.496 -0.647,-0.739 -1.389,-1.445 -2.288,-1.867 0.926,-0.454 1.931,-0.763 2.869,-0.146 4.816,3.238 11.801,7.965 12.057,14.567002 -0.063,0.69 -1.278,5.769 0.414,5.016 4.733,-1.71 3.787,-0.461 4.807,-5.683 l -0.001,0 c 0.529,-2.604002 -0.248,-4.505002 -1.585,-6.683002 -2.447,-4.041 -8.142,-7.741 -12.183,-10.095 l 0.269,-0.103 0,0.002 c 1.001,-0.33 1.706,-0.374 2.641,0.185 l -0.001,0 c 0.759,0.463 4.165,3.096 4.834,2.82 l 0,0 z m -4.957,-3.84 0,0 3.733,2.892 -0.792,0.325 c -1.03,-0.742 -2.1,-1.429 -3.18,-2.097 z m 14.966,11.595 0,0 -1.876,15.006002 -1.075,-0.707 c 0.901,-3.687 2.686,-10.863002 0.277,-14.230002 -1.201,-1.835 -2.369,-3.001 -3.879,-4.266 l 0.069,-0.827 z m -6.678,-6.867 0,0 -7.484,-5.797 10.602,-5.517 19.11,12.999 -14.695,4.151 c -2.455,-1.901 -4.951,-4.132 -7.533,-5.836 m 24.846,2.295 0,0 25.279,-10.135 c -1.088,4.389 -1.172,4.481 3.196,2.403 l -2.165,6.129 -18.068,8.557 c -0.661,0.285 -0.609,1.973 -0.697,2.579 l -11.525,6.014002 z m 17.046,-22.503 0,0 1.361,-0.505 2.913,1.697 -1.202,0.597 z m 2.001,6.668 0,0 -2.311,-1.279 0.57,-1.588 2.292,1.264 z m -21.776,-5.636 0,0 0.656,-1.386 4.771,2.956 -0.707,1.491 z m 6.438,1.935 0,0 c 4.274,0.373 8.25,0.53 12.55,0.587 l -0.556,1.545 -1.827,-0.005 0.071,-0.53 c -0.792,-0.147 -3.695,-0.175 -4.815,-0.312 -0.109,0.191 -0.132,0.29 -0.214,0.548 l -5.885,-0.406 z m 21.099,1.947 0,0 -4.404,-0.617 c -3.3,-1.819 -6.547,-3.632 -9.79,-5.564 2.731,0.473 4.931,1.137 7.635,0.14 l 8.837,5.235 z m -8.886,-2.399 0,0 c -4.601,-0.061 -7.796,-0.239 -12.367,-0.639 l -3.665,-2.271 c 4.501,0.39 8.016,0.765 12.556,0.881 z m 7.837,1.396 0,0 -3.086,-1.798 1.215,-0.59 3.242,1.857 z m -0.061,3.36 0,0 -3.638,-0.253 0.556,-1.612 3.551,0.497 z m 2.723,0.904 0,0 -2.138,0.69 1.026,-2.984 2.167,-0.774 z m -10.757,-2.007 0,0 9.008,4.986 -25.415,9.879 -19.343,-12.67 18.626,-5.232 3.357,2.176 c 0.552,0.407 6.731,0.608 7.615,0.554 0.099,10e-4 0.159,-0.95 0.262,-0.94 1.014,0.098 2.6,0.049 3.348,0.114 0.185,0.016 -0.186,0.945 -0.001,0.965 0.805,0.083 1.559,0.165 2.543,0.168 m 7.507,2.631 0,0 -1.011,-0.561 1.176,0.082 z m 4.999,1.139 0,0 -1.726,0.671 -1.503,-0.832 1.846,-0.595 z m -0.553,3.759 0,0 -1.461,0.695 0.692,-2.793 1.709,-0.664 z m -109.367,67.389003 0,0 c -2.863,14.687 -18.938,16.745 -27.692,12.987 7.741,-6.876 17.476,-11.472 27.692,-12.987 m 19.818,0.931 0,0 c -4.411,2.508 -15.301,5.305 -19.508,4.785 2.017,-8.43 13.414,-6.029 19.508,-4.785 m 70.862,-83.312003 0,0 1.236,0.766 c -0.552,-0.006 -0.588,-0.03 -1.22,-0.068 z m -126.247,46.826003 0,0 c 9.108,1.808 18.99,2.726 27.947,-0.379 9.162,-3.176001 19.336,-7.046001 28.508,-10.194001 4.445,-1.48 9.014,9.681 6.061,12.151001 -0.131,0.111 -1.498,0.601 -1.659,0.66 -9.47,3.482 -18.93,6.998 -28.466,10.303 -15.184,5.265 -30.644,2.671 -45.603,-1.184 4.119,-3.844 8.872,-7.766 13.212,-11.357 m 30.957,-4.219001 0,0 c -9.529,3.312 -18.812,4.247001 -28.802,2.334 1.516,-1.24 3.043,-2.478 4.586,-3.715 4.101,-3.287 17.68,-4.484 21.9,-1.911 1.303,1.226 1.751,1.792 2.316,3.292 m 67.638,1.01 0,0 1.877,-15.019002 14.884,-4.204 -3.602,15.695002 z m -41.454,20.220001 0,0 c -2.033,-0.292 3.266,-1.695 4.556,-1.382 0.544,0.187 0.75,1.613 -0.244,2.197 -0.644,0.314 -2.874,-0.543 -4.312,-0.815 m -195.653005,31.078 0,0 -10.476,2.278 c -6.22,1.35 -6.845,0.707 -9.866,-5.792 -0.553,-1.191 -3.385,-6.753 -1.747,-7.753 7.104,-1.493 17.447,5.943 22.089,11.267 m 16.472,-16.201 0,0 c 0.588,3.405 1.331,6.755 2.223,10.045 -4.025,-2.003 -8.587,-5.021 -11.575,-7.081 -1.838,-1.268 -2.083,-1.182 -2.56,-3.3 4.507,-0.979 7.352,-1.419 11.912,0.336 m 6.225,22.024 0,0 c 1.146,2.867 2.412,5.676 3.788,8.418 -3.183,-2.188 -6.225,-4.322 -8.832,-7.174 z m 6.039,12.67 0,0 c 0.573,1.029 1.161,2.049 1.766,3.058 -4.749,1.399 -19.105,0.248 -20.54,-6.081 -2.714,-11.964 16.314,1.159 18.774,3.023 m 96.042005,0.544 0,0 c -4.819,-0.699 -10.889,-3.603 -15.646,-5.261 -0.063,0.139 -0.739,0.491 -2.078,1.248 -25.448,14.156 -56.892004,-24.578 -40.888004,-48.117 2.105,-3.096 4.806004,-5.807 7.696004,-8.172 5.451,-4.459 14.559,-3.61 21.085,-2.611 3.121,-0.256 12.661,-9.469001 14.103,-11.127001 -14.37,-3.335 -31.408,-7.082002 -43.876004,3.119 -6.71,5.490001 -12.23,12.488001 -15.27,20.658001 1.092,22.211 11.349,41.832 27.979004,54.658 l 41.887,0 c 1.691,-1.351 3.728,-3.237 5.008,-4.395 m -11.692,-78.151001 0,0 c -0.608,0.589 -1.287,1.363 -1.776,1.902 -1.915,-0.473 -4.766,-1.271 -7.247,-1.902 z m -40.662,0 0,0 c -9.816004,4.298 -17.447004,12.549001 -22.588004,21.835001 0.213,-7.621 1.585,-14.955001 3.948,-21.836001 z m -55.866005,57.062001 0,0 c -8.864,2.67 -23.819,-4.041 -29.165,-11.276 11.888,-4.459 22.145,4.196 31.423,10.595 z m -26.281,16.382 0,0 c 0.562,-2.4 6.572,-5.364 7.416,-1.638 0.415,1.822 -0.086,4.43 -0.777,6.098 -1.472,-0.407 -7.157,-2.254 -6.639,-4.46 m 7.098,13.464 0,0 c -2.36,0.515 -9.493,-1.289 -10.114,-4.026 -0.471,-2.085 0.743,-4.3 2.881,-4.764 3.074,-0.666 11.067,7.957 7.233,8.79 m 14.277,-6.245 0,0 c 2.422,0.596 4.666,1.886 6.8,3.08 -2.977,0.781 -5.77,1.803 -7.994,-1.322 l -1.77,-2.486 z m 83.306005,-41.636 0,0 3.463,-0.785 -5.695,-2.229 c -9.245,-3.099 -16.606,-10.493 -26.606004,-5.311 4.486004,3.039 8.617004,5.088 13.562004,7.336 5.675,2.577 9.329,2.334 15.276,0.989 m 14.688,-8.328 0,0 c -2.74,2.765 -6.561,3.636 -10.267,4.248 -1.659,0.275 -8.15,-2.582 -9.96,-3.372 -3.556,-1.55 -6.782,-2.904 -10.029,-5.054 4.536,-5.797 13.433,-2.557 19.165,-0.891 4.489,1.305 7.959,1.705 12.15,3.998 z m 11.521,-9.723 0,0 c -0.294,1.257 -1.901,2.613 -2.967,3.287 -5.326,3.367 -10.565,1.658 -16.044,-0.184 -3.688,-1.238 -5.566,-1.402 -9.231,-3.296 6.245,-5.342 15.518,-3.275 22.865,-2.124 1.869,0.293 3.851,0.686 5.603,1.35 z m -33.289,43.952 0,0 c -4.94,1.112 -7.85,-1.267 -11.759,-3.733 -4.227,-2.672 -6.594004,-4.074 -10.462004,-7.245 l 6.324004,-1.371 c 3.994,-0.869 15.494,7.071 16.726,10.895 l 0.381,1.182 z m -8.12,-14.518 0,0 0.741,-1.237 c 10.978,-2.399 20.421,7.385 20.056,17.955 -5.335,0.986 -12.679,-8.605 -16.23,-11.908 -1.695,-1.575 -3.589,-2.038 -4.865,-4.254 z m 17.575,0.029 0,0 c 9.549,-2.084 14.902,14.213 16.402,20.789 -8.52,1.902 -10.609,-8.201 -13.992,-13.756 l -3.884,-6.711 z m -17.608,18.125 0,0 c 1.412,-1.897 17.095,-2.103 20.212,0.632 1.443,1.487 3.744,1.674 5.937,2.577 -9.134,4.949 -18.14,2.837 -26.149,-3.209 m -11.255004,-41.594 0,0 c 1.733004,-2.281 4.703004,-5.26 7.008004,-7.146 3.916,-3.204 10.02,-3.567 16.383,-2.811 -2.536,2.819 -7.269,4.1 -10.493,5.034 -3.576,0.904 -4.811,4.627 -7.916,4.312 -1.483,-0.153 -3.609004,0.386 -4.982004,0.611 m 158.762004,35.349 0,0 c -5.076,-6.712 -12.18,-10.634 -19.912,-13.544 -20.772,-7.821 -45.454,-6.7 -63.214,9.465 -2.845,0.494 -5.656,-1.821 -8.566,-1.665 -2.821,0.131 -5.623,-0.109 -8.393,-0.597 16.791,-18.202 38.936,-29.455 64.466,-25.372 16.313,2.608 36.954,9.034 46.686,23.702 -2.175,4.34 -6.422,7.051 -11.067,8.011 m 13.615,-6.181 0,0 c 0.272,-0.51 0.524,-1.035 0.75,-1.581 -2.475,-3.648 -5.497,-6.954 -8.852,-9.808 2.145,-11.676 2.517,-23.476 0.985,-35.238001 0.292,-0.395 0.511,-0.824 0.63,-1.275 l 1.585,1.043 c 0.477,0.318 14.212,-3.231 15.242,-3.881 1.573,-0.823 13.301,-6.212 13.463,-7.341002 l 0.002,0.001 0.295,-2.04 18.016,-8.533 c 0.168,-0.08 0.288,-0.221 0.346,-0.383 l 2.795,-7.91 c 0.246,-0.698 -0.645,-0.98 -1.109,-1.228 1.033,-3.038 1.143,-2.581 -1.671,-4.12 0.245,-0.707 1.942,-4.192 1.085,-4.605 -1.23,-0.722 -9.286,-6.089 -10.204,-5.769 -1.319,0.414 -2.191,0.696 -4.001,0.66 -1.878,-0.038 -5.756,-1.622 -5.99,-0.946 l -0.005,1.713 c -3.38,-0.204 -7.678,-0.804 -10.635,-1.06 -0.735,-0.064 -1.387,2.116 -1.642,2.654 -0.2,0.425 0.266,0.841 0.805,1.172 l -18.739,5.293 c -0.054,0.012 -0.11,0.032 -0.163,0.059 l -9.222,4.799 c -17.556,-37.405 -55.814,-63.715 -99.835,-63.715 -60.695004,0.012 -109.914005,49.267 -109.914005,110.003003 0,5.214 0.369,10.341 1.072,15.36 -1.752,0.078 -4.006,0.039 -5.158,0.244 -3.535,0.637 -7.005,1.787 -10.555,2.307 -0.909,-0.109 -2.891,-0.225 -4.781,0.256 -3.692,0.821 -7.387,1.625 -11.084,2.425 -4.658,1.006 -12.005,-0.021 -10.783,5.393 4.566,1.965 3.486,12.729 8.341,14.99 2.739,1.251 10.109,-0.726 12.636,-1.275 1.682,-0.367 3.069,-1.445 4.87,-1.836 l 20.903,-3.561 c 0.493,1.504 1.018,2.993 1.573,4.468 -2.287,0.416 -5.123,1.173 -7.114,1.607 -5.4,1.871 -12.981,4.824 -18.834,2.583 l -4.236,0.398 c -6.553,2.011 -6.909,12.109 -5.664,17.613 0.894,3.946 8.578,6.995 11.902,4.13 1.409,-1.22 5.084,-0.183 6.72,-0.539 9,-1.956 17.997,-3.291 26.487,-6.922 19.354001,31.41 54.046005,52.354 93.619005,52.362 45.862,0.627 85.311,-28.542 101.792,-68.512 l 0.625,-0.102 c 0.586,2.202 2.641,7.922 -0.975,9.042 -1.554,0.478 -0.822,2.861 0.732,2.383 4.286,-1.329 4.269,-5.074 3.484,-8.776 1.562,3.769 4.532,11.004 1.789,14.662 -1.17,1.559 1.22,3.352 2.39,1.793 3.719,-4.961 0.448,-13.239 -1.711,-18.297 3.762,6.96 7.333,16.564 5.796,24.477 -0.403,2.111 2.832,2.728 3.236,0.618 1.659,-8.542 -1.946,-19.009 -6.058,-26.518 6.458,10.033 11.15,22.988 10.082,35.015 -0.196,2.265 3.276,2.566 3.472,0.3 1.143,-12.863 -3.77,-26.688 -10.747,-37.394 4.993,5.901 10.129,12.916 12.186,20.439 0.563,2.069 3.735,1.206 3.171,-0.865 -2.058,-7.524 -7.007,-14.566 -11.886,-20.543 3.151,2.908 7.464,5.532 13.149,3.737 1.865,-0.588 0.964,-3.448 -0.902,-2.858 -5.895,1.86 -10.064,-2.798 -13.556,-6.568 m -176.744004,-16.357 c 0.068,-1.377 0.259,-2.715 0.563,-4.013 2.987,-1.075 12.172004,4.995 14.136004,6.381 -4.858,1.055 -10.533004,0.905 -14.699004,-2.368 m 67.021004,68.905 c 0.504,-0.036 1.008,-0.036 1.476,-0.036 1.584,0 2.664,0.144 3.347,0.431 0.973,0.469 1.584,1.549 1.584,2.737 0,3.281 -3.42,5.549 -8.423,5.549 -1.152,0 -1.62,-0.036 -2.736,-0.251 l 1.152,3.348 c 1.368,0.18 1.872,0.18 2.988,0.18 7.452,0 12.672,-3.456 12.672,-8.43 0,-2.52 -1.584,-4.572 -4.284,-5.472 0.648,-0.252 0.864,-0.36 1.332,-0.649 1.512,-1.008 2.376,-2.699 2.376,-4.643 0,-3.601 -3.276,-6.264 -7.776,-6.264 -1.728,0 -3.492,0.395 -5.256,1.116 -1.224,0.539 -2.124,1.043 -3.24,1.908 l 2.52,3.06 c 1.08,-0.9 2.916,-2.017 5.328,-2.017 2.088,0 3.06,1.153 3.06,2.701 0,1.908 -1.332,2.844 -3.996,2.844 -0.469,0 -1.296,-0.037 -2.196,-0.108 l -0.288,-0.036 0,4.032 z m -13.284,1.296 c -1.188,0 -2.7,0.072 -3.492,0.179 0.36,-0.179 0.756,-0.359 0.936,-0.467 1.476,-0.792 3.636,-1.98 4.932,-2.952 1.944,-1.44 3.384,-3.204 3.384,-5.833 0,-3.527 -2.736,-5.904 -7.02,-5.904 -3.708,0 -6.48,1.26 -9.072,3.565 l 2.88,2.988 c 2.016,-1.656 3.348,-2.305 4.896,-2.305 1.692,0 2.88,0.828 2.88,2.412 0,1.657 -1.26,3.277 -6.228,6.084 -2.124,1.225 -2.448,1.225 -3.708,1.873 l 0,4.391 15.012,0 1.044,-4.031 z" /><g
     style="font-family:Meta;-inkscape-font-specification:Meta;fill:#ffffff"
     id="curved-text"
     transform="translate(-32.677374,-11.623293)"><path
       style="font-size:24px;font-style:normal;font-variant:normal;font-weight:600;font-stretch:normal;letter-spacing:0px;word-spacing:0px;writing-mode:lr-tb;fill:#ffffff;fill-opacity:1;fill-rule:nonzero;stroke:none;font-family:Magra;-inkscape-font-specification:Magra Semi-Bold"
       id="path3012"
       d="m 117.81472,190.06304 c -0.71979,-0.0818 -1.34106,-0.25764 -1.8638,-0.52756 -0.52272,-0.26994 -1.04802,-0.71604 -1.57591,-1.33829 -0.53821,-0.63446 -0.85516,-1.26779 -0.95087,-1.89999 l -0.10148,-0.008 -0.26126,0.69372 -3.62375,3.07409 -2.68655,-2.53623 11.18235,-9.48619 2.55618,-2.51465 2.12208,1.94502 -0.93565,1.23435 0.0621,0.0732 c 1.42151,-0.0309 2.54111,0.43558 3.35879,1.39946 1.98729,2.34263 1.35208,4.89572 -1.90563,7.65929 -0.98829,0.83838 -1.95197,1.44608 -2.89106,1.82309 -0.94942,0.3648 -1.77793,0.50114 -2.48554,0.40902 m -2.11788,-5.31615 c 0.0532,0.45844 0.19884,0.82797 0.43688,1.1086 0.23808,0.28062 0.44971,0.46827 0.63491,0.56293 0.17302,0.10501 0.42349,0.16529 0.7514,0.18086 0.67841,0.033 1.63377,-0.47325 2.86608,-1.51864 1.22012,-1.03505 1.93741,-1.82189 2.15189,-2.36052 0.20228,-0.52828 0.10159,-1.03035 -0.30209,-1.5062 -0.41401,-0.48804 -0.92824,-0.72322 -1.54269,-0.70554 l -4.99638,4.23851" /><path
       style="font-size:24px;font-style:normal;font-variant:normal;font-weight:600;font-stretch:normal;letter-spacing:0px;word-spacing:0px;writing-mode:lr-tb;fill:#ffffff;fill-opacity:1;fill-rule:nonzero;stroke:none;font-family:Magra;-inkscape-font-specification:Magra Semi-Bold"
       id="path3014"
       d="m 109.12951,173.58201 c -0.44784,0.27966 -0.71424,0.57805 -0.79917,0.89517 -0.0985,0.32559 0.0217,0.75981 0.36072,1.30267 0.339,0.54285 1.0951,1.31568 2.26832,2.31848 l -1.36696,2.07027 c -0.54598,-0.30042 -1.18178,-0.78997 -1.9074,-1.46865 -0.74765,-0.68379 -1.36724,-1.41925 -1.85878,-2.20639 -0.49999,-0.80071 -0.82024,-1.52503 -0.96076,-2.17295 -0.14897,-0.6615 -0.1055,-1.22625 0.13042,-1.69425 0.2139,-0.4731 0.48287,-0.85798 0.80691,-1.15465 0.31559,-0.31024 0.75159,-0.63909 1.30801,-0.98655 l 3.82712,-2.38982 c 0.50215,-0.31355 0.87963,-0.61529 1.13244,-0.90521 0.24435,-0.30348 0.44381,-0.73927 0.59836,-1.30738 l 2.75485,0.74141 c 0.0456,0.40537 0.0124,0.85055 -0.0998,1.33556 -0.1206,0.47144 -0.26745,0.85553 -0.44057,1.15225 l 0.0508,0.0814 c 1.49581,0.16003 2.62083,0.84396 3.37506,2.05181 1.22033,1.95428 0.81944,3.56277 -1.2027,4.82548 -1.07213,0.66948 -2.06352,0.86413 -2.97416,0.58392 -0.91911,-0.29377 -1.84485,-0.96067 -2.77724,-2.00069 l -1.41129,-1.58038 -0.81428,0.50847 m 5.80804,-0.25971 c 0.66501,-0.41525 0.77717,-0.97573 0.33648,-1.68144 -0.33897,-0.54285 -0.81711,-0.88564 -1.4344,-1.02835 l -1.91356,1.19491 c 0.66452,0.7923 1.22399,1.31065 1.67841,1.55505 0.44087,0.25288 0.88522,0.23949 1.33307,-0.0402" /><path
       style="font-size:24px;font-style:normal;font-variant:normal;font-weight:600;font-stretch:normal;letter-spacing:0px;word-spacing:0px;writing-mode:lr-tb;fill:#ffffff;fill-opacity:1;fill-rule:nonzero;stroke:none;font-family:Magra;-inkscape-font-specification:Magra Semi-Bold"
       id="path3016"
       d="m 102.8973,165.3261 c -0.87014,0.13975 -1.64813,0.0602 -2.33395,-0.23858 -0.685796,-0.2988 -1.183794,-0.78192 -1.493995,-1.44936 -0.316914,-0.68195 -0.465657,-1.36267 -0.446231,-2.04216 l 2.987516,-0.46213 c 0.0785,0.51049 0.19187,0.92534 0.3402,1.24455 0.263,0.56588 0.71277,0.98319 1.34932,1.25195 0.62983,0.25424 1.35101,0.19256 2.16354,-0.18506 l 6.52933,-3.03443 1.54756,3.32996 -8.2052,3.81327 -3.10987,1.73639 -1.49978,-2.37295 2.21202,-1.50439 -0.0405,-0.0871" /><path
       style="font-size:24px;font-style:normal;font-variant:normal;font-weight:600;font-stretch:normal;letter-spacing:0px;word-spacing:0px;writing-mode:lr-tb;fill:#ffffff;fill-opacity:1;fill-rule:nonzero;stroke:none;font-family:Magra;-inkscape-font-specification:Magra Semi-Bold"
       id="path3018"
       d="m 97.590587,155.60112 c -1.237703,-0.5248 -2.041811,-1.46639 -2.412325,-2.82477 -0.370486,-1.35837 -0.131952,-2.45996 0.715603,-3.30477 -1.226476,-0.54444 -2.031286,-1.51901 -2.414433,-2.92371 -0.648359,-2.37715 0.501602,-3.9678 3.449886,-4.77197 l 8.196582,-2.23564 0.97256,3.56575 -8.358658,2.27984 c -1.003335,0.27368 -1.393437,0.81956 -1.170308,1.63767 0.160002,0.58658 0.512237,0.99633 1.056708,1.22926 l 9.192208,-2.5072 0.96625,3.54259 -8.358659,2.27985 c -1.003337,0.27367 -1.391334,0.82727 -1.163993,1.66082 0.15158,0.5557 0.503815,0.96546 1.056708,1.22926 l 9.192214,-2.50719 0.96625,3.54259 -8.70598,2.37457 -3.380502,1.19568 -1.09884,-2.66062 1.32399,-0.70939 -0.02526,-0.0926" /><path
       style="font-size:24px;font-style:normal;font-variant:normal;font-weight:600;font-stretch:normal;letter-spacing:0px;word-spacing:0px;writing-mode:lr-tb;fill:#ffffff;fill-opacity:1;fill-rule:nonzero;stroke:none;font-family:Magra;-inkscape-font-specification:Magra Semi-Bold"
       id="path3020"
       d="m 95.99078,138.49786 c -1.163539,0.10186 -2.144408,-0.27804 -2.942612,-1.13971 -0.798179,-0.86166 -1.258674,-1.99381 -1.381486,-3.39645 -0.122786,-1.40263 0.108377,-2.52306 0.693487,-3.36129 0.569197,-0.83682 1.429981,-1.36993 2.582355,-1.59932 l 0.902107,3.14933 c -1.074076,0.20647 -1.569255,0.78787 -1.48554,1.7442 0.03071,0.35067 0.159432,0.6285 0.386165,0.8335 0.226754,0.20501 0.459668,0.29705 0.698744,0.27611 0.239095,-0.0209 0.4203,-0.0609 0.543617,-0.11987 0.12194,-0.0749 0.233807,-0.17304 0.335603,-0.29439 0.100419,-0.13727 0.193557,-0.26589 0.279414,-0.38584 0.06854,-0.13448 0.141553,-0.30952 0.219038,-0.5251 0.07611,-0.23152 0.139056,-0.42976 0.188849,-0.59474 0.107984,-0.2343 0.294446,-0.76458 0.559386,-1.59085 0.249016,-0.82485 0.604821,-1.53057 1.067418,-2.11716 0.46261,-0.58657 1.180052,-0.92242 2.152325,-1.00755 0.97229,-0.0851 1.88801,0.28443 2.74716,1.10863 0.84182,0.80967 1.3332,2.01942 1.47414,3.62926 0.14094,1.60984 -0.18832,3.26085 -0.98778,4.95302 l -2.48207,-1.10775 c 0.54584,-1.6539 0.78596,-2.85542 0.72037,-3.60456 -0.0321,-0.36659 -0.1383,-0.66245 -0.31862,-0.88759 -0.18172,-0.24106 -0.43197,-0.34765 -0.75075,-0.31974 -0.33472,0.0293 -0.59033,0.22836 -0.76684,0.59715 -0.19105,0.38614 -0.31805,0.67833 -0.381,0.87657 -0.457176,1.56584 -0.970356,2.76718 -1.539547,3.60401 -0.512399,0.75155 -1.350375,1.17826 -2.513933,1.28013" /><path
       style="font-size:24px;font-style:normal;font-variant:normal;font-weight:600;font-stretch:normal;letter-spacing:0px;word-spacing:0px;writing-mode:lr-tb;fill:#ffffff;fill-opacity:1;fill-rule:nonzero;stroke:none;font-family:Magra;-inkscape-font-specification:Magra Semi-Bold"
       id="path3022"
       d="m 91.576514,121.59557 0.103158,-3.23835 2.648895,0.5166 -0.0894,2.80657 5.493213,0.17499 c 0.81559,0.026 1.38686,-0.0679 1.71383,-0.28158 0.32697,-0.21369 0.49912,-0.5924 0.51644,-1.13613 0.007,-0.22388 -0.0583,-0.6822 -0.19633,-1.37495 l 2.15555,-0.57966 c 0.2302,0.31149 0.4303,0.81412 0.6003,1.50787 0.1705,0.67778 0.24684,1.29653 0.22901,1.85624 -0.0504,1.5832 -0.48334,2.60993 -1.29873,3.08021 -0.83086,0.45378 -2.16583,0.65137 -4.004896,0.59279 l -5.325299,-0.16964 -0.05884,1.84706 -2.388085,-0.41224 -0.165458,-1.59007 -2.394199,-0.22034 -0.921442,-3.48711 3.382284,0.10774" /><path
       style="font-size:24px;font-style:normal;font-variant:normal;font-weight:600;font-stretch:normal;letter-spacing:0px;word-spacing:0px;writing-mode:lr-tb;fill:#ffffff;fill-opacity:1;fill-rule:nonzero;stroke:none;font-family:Magra;-inkscape-font-specification:Magra Semi-Bold"
       id="path3024"
       d="m 96.901776,110.41932 c -0.521613,-0.0818 -0.91833,-0.0307 -1.190152,0.15342 -0.287611,0.18163 -0.481011,0.58857 -0.5802,1.22083 -0.09917,0.63228 -0.03362,1.71147 0.196654,3.23759 l -2.388674,0.66993 c -0.216013,-0.58454 -0.376094,-1.37084 -0.480244,-2.35892 -0.117454,-1.00636 -0.104281,-1.96793 0.03952,-2.88473 0.146302,-0.93259 0.378443,-1.68976 0.696426,-2.27152 0.320484,-0.59754 0.72309,-0.99596 1.207819,-1.19526 0.471421,-0.21757 0.926716,-0.3324 1.365886,-0.3445 0.441666,-0.0279 0.986532,0.009 1.6346,0.11065 l 4.457489,0.69922 c 0.58485,0.0918 1.06773,0.11081 1.44864,0.0572 0.38339,-0.0694 0.81947,-0.26824 1.30824,-0.59647 l 1.59694,2.36403 c -0.2309,0.33629 -0.5475,0.65103 -0.9498,0.94422 -0.39982,0.2774 -0.76228,0.47158 -1.08741,0.58253 l -0.0149,0.0948 c 1.02588,1.10027 1.42849,2.35381 1.20781,3.7606 -0.35704,2.27617 -1.71316,3.22953 -4.06837,2.86008 -1.24872,-0.19587 -2.125525,-0.69782 -2.630415,-1.50582 -0.502399,-0.8238 -0.765534,-1.93399 -0.789405,-3.33057 l -0.03208,-2.11856 -0.948403,-0.14877 m 4.560233,3.60626 c 0.77453,0.1215 1.22626,-0.22873 1.3552,-1.05069 0.0992,-0.63226 -0.0378,-1.2044 -0.41098,-1.71642 l -2.22875,-0.34961 c -0.0164,1.03396 0.0671,1.79206 0.25059,2.27431 0.16768,0.47979 0.51232,0.76059 1.03394,0.84241" /><path
       style="font-size:24px;font-style:normal;font-variant:normal;font-weight:600;font-stretch:normal;letter-spacing:0px;word-spacing:0px;writing-mode:lr-tb;fill:#ffffff;fill-opacity:1;fill-rule:nonzero;stroke:none;font-family:Magra;-inkscape-font-specification:Magra Semi-Bold"
       id="path3026"
       d="m 95.848414,101.12844 c -0.316031,-0.65185 -0.499872,-1.270798 -0.551523,-1.856847 -0.05163,-0.586034 0.04418,-1.268502 0.287433,-2.047408 0.248042,-0.794158 0.613506,-1.400791 1.096393,-1.819899 l -0.04726,-0.09019 -0.725857,0.150452 -4.535926,-1.416643 0.705231,-3.626665 13.997225,4.371562 3.4921,0.814064 -0.50779,2.833459 -1.54341,-0.130028 -0.0286,0.09164 c 0.78669,1.184385 0.99162,2.379843 0.61481,3.586363 -0.91581,2.93231 -3.41259,3.7617 -7.49035,2.48815 -1.237057,-0.38636 -2.266067,-0.87536 -3.087027,-1.467 -0.816172,-0.60691 -1.374647,-1.23391 -1.675427,-1.881 m 3.35804,-4.63361 c -0.358829,0.290232 -0.5931,0.610976 -0.702814,0.962233 -0.109698,0.351276 -0.154989,0.630469 -0.135873,0.837579 0.0039,0.202358 0.08694,0.446213 0.249242,0.731567 0.335128,0.590775 1.273948,1.127041 2.816459,1.608791 1.52725,0.47699 2.57578,0.66198 3.14558,0.55498 0.55454,-0.11176 0.92482,-0.46546 1.11084,-1.06109 0.19079,-0.6109 0.11434,-1.171166 -0.22936,-1.680809 L 99.206476,96.49484" /><path
       style="font-size:24px;font-style:normal;font-variant:normal;font-weight:600;font-stretch:normal;letter-spacing:0px;word-spacing:0px;writing-mode:lr-tb;fill:#ffffff;fill-opacity:1;fill-rule:nonzero;stroke:none;font-family:Magra;-inkscape-font-specification:Magra Semi-Bold"
       id="path3028"
       d="m 100.75275,84.472132 1.35932,-2.941061 2.23697,1.509809 -1.17809,2.548919 4.98891,2.305817 c 0.74072,0.342355 1.3033,0.47899 1.68775,0.409906 0.38445,-0.06907 0.6908,-0.350515 0.91903,-0.844329 0.094,-0.203325 0.21267,-0.650816 0.35608,-1.342472 l 2.21079,0.307935 c 0.0903,0.37665 0.0783,0.917508 -0.0361,1.622574 -0.10766,0.690557 -0.27895,1.289997 -0.51389,1.798323 -0.66457,1.437855 -1.46399,2.214081 -2.39827,2.328679 -0.94209,0.09337 -2.24825,-0.245932 -3.91848,-1.017897 l -4.83641,-2.235335 -0.77532,1.677494 -2.037598,-1.311906 0.468488,-1.528473 -2.118149,-1.137621 0.513164,-3.570101 3.071775,1.419739" /><path
       style="font-size:24px;font-style:normal;font-variant:normal;font-weight:600;font-stretch:normal;letter-spacing:0px;word-spacing:0px;writing-mode:lr-tb;fill:#ffffff;fill-opacity:1;fill-rule:nonzero;stroke:none;font-family:Magra;-inkscape-font-specification:Magra Semi-Bold"
       id="path3030"
       d="m 109.54604,71.713925 c -0.32551,-1.304363 -0.0572,-2.513169 0.80482,-3.62642 0.86208,-1.113224 1.88548,-1.585498 3.07021,-1.416825 -0.30307,-1.307212 -0.009,-2.53642 0.88257,-3.687628 1.50863,-1.948147 3.47105,-1.98669 5.88729,-0.115629 l 6.71738,5.201804 -2.26293,2.922251 -6.85021,-5.304664 c -0.82228,-0.636739 -1.49302,-0.61988 -2.01222,0.05058 -0.37226,0.480732 -0.48761,1.008616 -0.34606,1.583652 l 7.53333,5.833661 -2.24823,2.903276 -6.85022,-5.304664 c -0.82227,-0.636744 -1.49791,-0.61356 -2.02691,0.06955 -0.35266,0.455427 -0.46802,0.98331 -0.34606,1.583652 l 7.53333,5.833661 -2.24823,2.903277 -7.13485,-5.52508 -2.98901,-1.980728 1.46399,-2.478519 1.36324,0.630697 0.0588,-0.0759" /><path
       style="font-size:24px;font-style:normal;font-variant:normal;font-weight:600;font-stretch:normal;letter-spacing:0px;word-spacing:0px;writing-mode:lr-tb;fill:#ffffff;fill-opacity:1;fill-rule:nonzero;stroke:none;font-family:Magra;-inkscape-font-specification:Magra Semi-Bold"
       id="path3032"
       d="m 124.00926,53.305156 c 1.19569,-1.063158 2.36689,-1.515777 3.5136,-1.357857 0.94475,0.123436 2.02909,0.765037 3.25303,1.924806 0.4824,0.470306 1.05851,1.082092 1.72831,1.835361 l -1.11393,1.311633 -3.69467,3.285205 c 0.62728,0.705461 1.23191,1.120591 1.81392,1.245392 0.57136,0.112857 1.19184,-0.128406 1.86143,-0.723789 0.68153,-0.606002 1.34642,-1.507649 1.99465,-2.704944 l 2.05507,1.19154 c -0.5618,1.655691 -1.45847,3.031066 -2.69002,4.126129 -2.78594,2.477196 -5.64609,2.065748 -8.58045,-1.234345 -1.38212,-1.554384 -2.11317,-3.098911 -2.19314,-4.633587 -0.0786,-1.557245 0.60543,-2.979092 2.0522,-4.265544 m 2.87436,2.004591 c -0.3641,-0.168678 -0.75539,-0.06697 -1.17389,0.30513 -0.41848,0.372122 -0.57919,0.793354 -0.48212,1.263697 0.0864,0.458408 0.38881,1.003137 0.90712,1.63419 l 2.1881,-1.945607 c -0.60601,-0.681529 -1.08575,-1.100665 -1.43921,-1.25741" /><path
       style="font-size:24px;font-style:normal;font-variant:normal;font-weight:600;font-stretch:normal;letter-spacing:0px;word-spacing:0px;writing-mode:lr-tb;fill:#ffffff;fill-opacity:1;fill-rule:nonzero;stroke:none;font-family:Magra;-inkscape-font-specification:Magra Semi-Bold"
       id="path3034"
       d="m 133.95615,45.875626 2.66994,-1.835501 1.15319,2.44001 -2.31394,1.590768 3.11356,4.528995 c 0.46227,0.672434 0.87634,1.077046 1.24222,1.213838 0.36587,0.136804 0.77294,0.05111 1.22123,-0.257077 0.18459,-0.126893 0.51503,-0.451146 0.99134,-0.972762 l 1.74406,1.393077 c -0.11455,0.369998 -0.40092,0.828983 -0.85909,1.376957 -0.445,0.538919 -0.89823,0.966999 -1.35969,1.284243 -1.30531,0.897358 -2.38893,1.15691 -3.25086,0.778656 -0.85782,-0.400498 -1.80793,-1.358877 -2.85031,-2.875138 l -3.01838,-4.390554 -1.52285,1.046915 -1.08275,-2.168075 1.18294,-1.075352 -1.24097,-2.059305 2.26328,-2.80829 1.91708,2.788595" /><path
       style="font-size:24px;font-style:normal;font-variant:normal;font-weight:600;font-stretch:normal;letter-spacing:0px;word-spacing:0px;writing-mode:lr-tb;fill:#ffffff;fill-opacity:1;fill-rule:nonzero;stroke:none;font-family:Magra;-inkscape-font-specification:Magra Semi-Bold"
       id="path3036"
       d="m 146.10821,43.543998 c -0.24343,-0.468526 -0.51986,-0.757644 -0.82928,-0.867356 -0.3168,-0.123885 -0.75916,-0.0383 -1.32708,0.256748 -0.56792,0.295074 -1.39804,0.9878 -2.49035,2.07818 l -1.95587,-1.526144 c 0.34259,-0.520556 0.88081,-1.115721 1.61466,-1.785498 0.74069,-0.691325 1.52277,-1.250914 2.34626,-1.67877 0.83769,-0.435203 1.58503,-0.697268 2.24203,-0.786196 0.6712,-0.09627 1.23075,-0.0083 1.67866,0.263784 0.45473,0.250585 0.81718,0.549103 1.08734,0.895554 0.28435,0.339103 0.57775,0.799709 0.88019,1.381818 l 2.0802,4.003865 c 0.27292,0.525338 0.54391,0.925463 0.81297,1.200376 0.28324,0.267551 0.70192,0.500789 1.25605,0.699717 l -0.9566,2.687713 c -0.40771,0.01349 -0.84888,-0.05481 -1.32351,-0.204888 -0.46045,-0.157446 -0.83174,-0.33417 -1.11387,-0.530173 l -0.0852,0.04426 c -0.27763,1.478504 -1.04826,2.546011 -2.31189,3.202524 -2.04452,1.062227 -3.61634,0.535582 -4.71545,-1.579936 -0.58275,-1.121647 -0.69851,-2.125307 -0.34728,-3.010984 0.36543,-0.893041 1.10333,-1.763243 2.21372,-2.610608 l 1.68688,-1.2821 -0.44259,-0.851886 m -0.19968,5.810418 c 0.36145,0.695712 0.91133,0.851774 1.64963,0.468188 0.56792,-0.295058 0.94738,-0.744634 1.13839,-1.348731 l -1.0401,-2.001932 c -0.84229,0.599891 -1.40319,1.116689 -1.68271,1.550396 -0.2869,0.419521 -0.30864,0.863547 -0.0652,1.332079" /><path
       style="font-size:24px;font-style:normal;font-variant:normal;font-weight:600;font-stretch:normal;letter-spacing:0px;word-spacing:0px;writing-mode:lr-tb;fill:#ffffff;fill-opacity:1;fill-rule:nonzero;stroke:none;font-family:Magra;-inkscape-font-specification:Magra Semi-Bold"
       id="path3038"
       d="m 158.6899,39.620555 0.95395,2.538688 -5.97603,2.245567 -0.95394,-2.538688 5.97602,-2.245567" /><path
       style="font-size:24px;font-style:normal;font-variant:normal;font-weight:600;font-stretch:normal;letter-spacing:0px;word-spacing:0px;writing-mode:lr-tb;fill:#ffffff;fill-opacity:1;fill-rule:nonzero;stroke:none;font-family:Magra;-inkscape-font-specification:Magra Semi-Bold"
       id="path3040"
       d="m 163.64248,35.190421 c 0.0185,-0.881104 0.2361,-1.632243 0.65296,-2.253421 0.41685,-0.621151 0.98139,-1.024514 1.69362,-1.21009 0.7277,-0.189581 1.42406,-0.213934 2.08906,-0.07306 l -0.0807,3.02197 c -0.51629,-0.01428 -0.94474,0.02294 -1.28537,0.111677 -0.60384,0.157335 -1.095,0.525045 -1.47347,1.103131 -0.363,0.574073 -0.43154,1.294631 -0.20564,2.161678 l 1.81528,6.967407 -3.55338,0.925791 -2.2812,-8.755709 -1.15101,-3.370694 2.6033,-1.050277 1.08365,2.445799 0.0929,-0.0242" /><path
       style="font-size:24px;font-style:normal;font-variant:normal;font-weight:600;font-stretch:normal;letter-spacing:0px;word-spacing:0px;writing-mode:lr-tb;fill:#ffffff;fill-opacity:1;fill-rule:nonzero;stroke:none;font-family:Magra;-inkscape-font-specification:Magra Semi-Bold"
       id="path3042"
       d="m 174.07827,31.390229 c 0.74765,-0.851822 1.73267,-1.354521 2.95507,-1.508098 1.22238,-0.15355 2.20289,0.07804 2.94154,0.694767 0.73862,0.616755 1.18771,1.560134 1.34727,2.83014 l 1.12779,8.977437 -3.66717,0.460691 -1.07993,-8.596432 c -0.12964,-1.031879 -0.68659,-1.485998 -1.67085,-1.362361 -0.58739,0.0738 -1.05854,0.366813 -1.41345,0.879037 l 1.18762,9.453694 -3.64336,0.4577 -2.24961,-17.907249 3.59251,-0.862518 0.68206,5.429325 -0.21073,1.018207 0.10124,0.03566" /><path
       style="font-size:24px;font-style:normal;font-variant:normal;font-weight:600;font-stretch:normal;letter-spacing:0px;word-spacing:0px;writing-mode:lr-tb;fill:#ffffff;fill-opacity:1;fill-rule:nonzero;stroke:none;font-family:Magra;-inkscape-font-specification:Magra Semi-Bold"
       id="path3044"
       d="m 190.36327,29.335006 c 1.59962,0.03474 2.76579,0.500152 3.49853,1.396252 0.60821,0.733383 0.96608,1.941432 1.0736,3.624152 0.0334,0.672891 0.0392,1.513213 0.0173,2.520969 l -1.70881,0.202964 -4.94284,-0.107292 c -0.0205,0.943782 0.14002,1.659433 0.48152,2.146955 0.34185,0.471533 0.96066,0.71702 1.85646,0.736462 0.91178,0.01979 2.01255,-0.188366 3.30233,-0.624482 l 0.69487,2.271615 c -1.53841,0.83081 -3.13141,1.228333 -4.77901,1.192569 -3.72713,-0.0809 -5.54277,-2.328833 -5.44693,-6.743795 0.0451,-2.079502 0.56061,-3.708697 1.54643,-4.887591 1.00216,-1.194521 2.47101,-1.770779 4.40655,-1.728778 m 0.74185,3.424906 c -0.15198,-0.371376 -0.5079,-0.563145 -1.06776,-0.575308 -0.55988,-0.01214 -0.9643,0.187127 -1.21326,0.597811 -0.24863,0.394707 -0.39779,0.999612 -0.44749,1.814716 l 2.92731,0.06354 c 0.0198,-0.911776 -0.0465,-1.545363 -0.1988,-1.900761" /><path
       style="font-size:24px;font-style:normal;font-variant:normal;font-weight:600;font-stretch:normal;letter-spacing:0px;word-spacing:0px;writing-mode:lr-tb;fill:#ffffff;fill-opacity:1;fill-rule:nonzero;stroke:none;font-family:Magra;-inkscape-font-specification:Magra Semi-Bold"
       id="path3046"
       d="m 200.23732,43.315317 -3.64081,-0.47757 1.6356,-12.469186 3.69075,0.09683 -1.68554,12.849924 M 200.0621,29.519352 c -1.31673,-0.172703 -1.87832,-0.996741 -1.6848,-2.472117 0.0749,-0.571092 0.31081,-1.016192 0.70768,-1.335303 0.39895,-0.334941 0.99503,-0.450397 1.78824,-0.346369 1.30085,0.170652 1.85347,1.001582 1.65787,2.492792 -0.0749,0.571122 -0.31081,1.016222 -0.70767,1.335302 -0.39688,0.319108 -0.98399,0.427672 -1.76132,0.325695" /><path
       style="font-size:24px;font-style:normal;font-variant:normal;font-weight:600;font-stretch:normal;letter-spacing:0px;word-spacing:0px;writing-mode:lr-tb;fill:#ffffff;fill-opacity:1;fill-rule:nonzero;stroke:none;font-family:Magra;-inkscape-font-specification:Magra Semi-Bold"
       id="path3048"
       d="m 212.16534,32.468413 c 1.16471,0.288815 1.98072,0.853811 2.44802,1.694988 0.46727,0.841195 0.54881,1.875211 0.24461,3.102051 l -2.18336,8.805345 -3.58736,-0.889518 2.08517,-8.409338 c 0.25029,-1.009423 -0.10599,-1.633511 -1.06882,-1.872264 -0.55908,-0.138618 -1.1041,-0.03474 -1.63506,0.311648 l -2.29311,9.247942 -3.56407,-0.883743 2.18336,-8.805345 0.59285,-3.487838 2.85869,0.337937 -0.0204,1.478539 0.11647,0.02888 c 1.0889,-0.801481 2.36324,-1.021242 3.82305,-0.659285" /><path
       style="font-size:24px;font-style:normal;font-variant:normal;font-weight:600;font-stretch:normal;letter-spacing:0px;word-spacing:0px;writing-mode:lr-tb;fill:#ffffff;fill-opacity:1;fill-rule:nonzero;stroke:none;font-family:Magra;-inkscape-font-specification:Magra Semi-Bold"
       id="path3050"
       d="m 223.20659,42.152387 -0.97407,2.531037 -5.95801,-2.292926 0.97406,-2.531037 5.95802,2.292926" /><path
       style="font-size:24px;font-style:normal;font-variant:normal;font-weight:600;font-stretch:normal;letter-spacing:0px;word-spacing:0px;writing-mode:lr-tb;fill:#ffffff;fill-opacity:1;fill-rule:nonzero;stroke:none;font-family:Magra;-inkscape-font-specification:Magra Semi-Bold"
       id="path3052"
       d="m 231.02559,41.241475 c 1.25134,-0.491399 2.48468,-0.381638 3.70003,0.329283 1.21532,0.710937 1.81593,1.664703 1.80182,2.861303 1.25707,-0.469513 2.51399,-0.33669 3.77078,0.398471 2.12681,1.24413 2.41871,3.185108 0.87569,5.82294 l -4.28981,7.333451 -3.19026,-1.86619 4.37464,-7.478463 c 0.5251,-0.897691 0.42168,-1.560623 -0.31027,-1.988798 -0.52482,-0.30699 -1.06318,-0.353137 -1.61509,-0.138443 l -4.8109,8.224238 -3.16954,-1.854072 4.37464,-7.478463 c 0.52511,-0.897687 0.41478,-1.564659 -0.33098,-2.000916 -0.4972,-0.290829 -1.03556,-0.336977 -1.6151,-0.138443 l -4.8109,8.224238 -3.16954,-1.854072 4.55641,-7.789203 1.57773,-3.219978 2.64697,1.131317 -0.44918,1.433327 0.0829,0.04847" /><path
       style="font-size:24px;font-style:normal;font-variant:normal;font-weight:600;font-stretch:normal;letter-spacing:0px;word-spacing:0px;writing-mode:lr-tb;fill:#ffffff;fill-opacity:1;fill-rule:nonzero;stroke:none;font-family:Magra;-inkscape-font-specification:Magra Semi-Bold"
       id="path3054"
       d="m 248.43891,56.600309 c 0.34524,-0.399479 0.5116,-0.763245 0.49906,-1.091301 -0.002,-0.340155 -0.24524,-0.719477 -0.72945,-1.137968 -0.48423,-0.418482 -1.43489,-0.933456 -2.85199,-1.544922 l 0.69436,-2.381685 c 0.61036,0.125718 1.36241,0.405594 2.25614,0.839629 0.91628,0.432406 1.72548,0.952009 2.42761,1.558808 0.71421,0.617274 1.23415,1.214658 1.55981,1.792155 0.33773,0.587968 0.46303,1.140355 0.3759,1.657162 -0.0646,0.51517 -0.20786,0.962332 -0.4298,1.34149 -0.20986,0.389622 -0.52926,0.832595 -0.95819,1.32892 l -2.95033,3.413748 c -0.38712,0.447899 -0.65861,0.847681 -0.81449,1.199347 -0.1438,0.362118 -0.20561,0.837381 -0.18544,1.425789 l -2.85092,0.105503 c -0.16335,-0.373796 -0.2631,-0.808935 -0.29925,-1.305418 -0.024,-0.486031 0.003,-0.896357 0.0805,-1.230979 l -0.0726,-0.06277 c -1.47633,0.288996 -2.75318,-0.03207 -3.83056,-0.963201 -1.7432,-1.506554 -1.83536,-3.161688 -0.27649,-4.965406 0.8265,-0.956331 1.71615,-1.435155 2.66892,-1.436475 0.96487,0.0091 2.04631,0.372804 3.24433,1.090966 l 1.81516,1.09294 0.62773,-0.726329 m -5.47211,1.963889 c -0.51265,0.593169 -0.45423,1.161769 0.17526,1.705803 0.48421,0.418485 1.04227,0.604722 1.67417,0.558711 l 1.47517,-1.706874 c -0.86892,-0.560629 -1.55655,-0.89057 -2.06289,-0.989824 -0.49589,-0.111358 -0.91646,0.0327 -1.26171,0.432184" /><path
       style="font-size:24px;font-style:normal;font-variant:normal;font-weight:600;font-stretch:normal;letter-spacing:0px;word-spacing:0px;writing-mode:lr-tb;fill:#ffffff;fill-opacity:1;fill-rule:nonzero;stroke:none;font-family:Magra;-inkscape-font-specification:Magra Semi-Bold"
       id="path3056"
       d="m 249.60621,70.018488 -2.51145,-2.678839 9.17459,-8.601321 2.79159,2.416204 -9.45473,8.863956 m 8.61648,-10.775702 c -0.9083,-0.968809 -0.81967,-1.962074 0.26589,-2.979797 0.42019,-0.393943 0.88491,-0.588368 1.39414,-0.583276 0.52087,-0.0058 1.0549,0.283062 1.60207,0.866676 0.89732,0.957155 0.79738,1.950055 -0.29982,2.978703 -0.42022,0.39396 -0.88493,0.588386 -1.39414,0.583277 -0.50923,-0.0051 -1.03194,-0.293623 -1.56814,-0.865583" /><path
       style="font-size:24px;font-style:normal;font-variant:normal;font-weight:600;font-stretch:normal;letter-spacing:0px;word-spacing:0px;writing-mode:lr-tb;fill:#ffffff;fill-opacity:1;fill-rule:nonzero;stroke:none;font-family:Magra;-inkscape-font-specification:Magra Semi-Bold"
       id="path3058"
       d="m 265.70662,69.18169 c 0.71827,0.961284 0.99177,1.915373 0.8205,2.862269 -0.17131,0.946894 -0.76323,1.798638 -1.77577,2.555235 l -7.2673,5.430241 -2.21232,-2.960752 6.94047,-5.186024 c 0.8331,-0.622515 0.95276,-1.331102 0.35899,-2.125763 -0.34479,-0.461414 -0.83232,-0.726284 -1.46258,-0.794611 l -7.63259,5.70319 -2.19796,-2.941527 7.2673,-5.430241 2.66815,-2.323242 1.99791,2.072368 -0.95242,1.131102 0.0718,0.09613 c 1.35026,0.06961 2.47553,0.706821 3.37579,1.911626" /></g></svg>