<?xml version="1.0" encoding="UTF-8" standalone="no"?>
<svg
   xmlns:dc="http://purl.org/dc/elements/1.1/"
   xmlns:cc="http://creativecommons.org/ns#"
   xmlns:rdf="http://www.w3.org/1999/02/22-rdf-syntax-ns#"
   xmlns:svg="http://www.w3.org/2000/svg"
   xmlns="http://www.w3.org/2000/svg"
   id="svg44"
   preserveAspectRatio="none"
   viewBox="0 0 170 165"
   height="165px"
   width="170px"
   version="1.2">
  <metadata
     id="metadata50">
    <rdf:RDF>
      <cc:Work
         rdf:about="">
        <dc:format>image/svg+xml</dc:format>
        <dc:type
           rdf:resource="http://purl.org/dc/dcmitype/StillImage" />
        <dc:title></dc:title>
      </cc:Work>
    </rdf:RDF>
  </metadata>
  <defs
     id="defs48" />
  <!-- Designed by Monic Meisel and hand-coded as SVG by Alina Friedrichsen -->
  <g
     style="fill:#dc0067;fill-opacity:1"
     id="g4">
    <rect
       style="fill:#dc0067;fill-opacity:1"
       id="rect2"
       stroke="none"
       fill-opacity="1"
       fill="#ffffff"
       height="165"
       width="170"
       y="0"
       x="0" />
  </g>
  <g
     id="g161">
    <g
       id="g146">
      <g
         id="g132">
        <g
           id="g119">
          <g
             id="g107">
            <g
               id="g96">
              <g
                 id="g86">
                <g
                   id="g77">
                  <g
                     id="g16">
                    <circle
                       style="stroke:#ffffff"
                       fill="none"
                       stroke="#de2c68"
                       stroke-width="1.14544892"
                       stroke-opacity="1"
                       stroke-dasharray="none"
                       id="circle6"
                       stroke-miterlimit="4"
                       transform="matrix(1.477616,0,0,1.5065066,-3.122124,-2.4350016)"
                       r="22"
                       cy="54"
                       cx="36" />
                    <circle
                       style="stroke:#ffffff"
                       fill="none"
                       stroke="#de2c68"
                       stroke-width="1.06239557"
                       stroke-opacity="1"
                       stroke-dasharray="none"
                       id="circle8"
                       stroke-miterlimit="4"
                       transform="matrix(1.5950476,0,0,1.6223254,-10.072136,-9.1778182)"
                       r="22"
                       cy="44"
                       cx="74" />
                    <circle
                       style="stroke:#ffffff"
                       fill="none"
                       stroke="#de2c68"
                       stroke-width="5.81192684"
                       stroke-opacity="1"
                       stroke-dasharray="none"
                       id="circle10"
                       stroke-miterlimit="4"
                       transform="matrix(1.5831269,0,0,1.5986441,-9.3397104,-8.1360194)"
                       r="29"
                       cy="44"
                       cx="74" />
                    <polygon
                       fill="#ffcc33"
                       fill-opacity="1"
                       id="polygon12"
                       transform="matrix(1.4493674,0,0,1.3737988,-2.70016,2.5042672)"
                       points="31,44 26,44 30,48 22,48 22,52 30,52 26,56 31,56 37,50 " />
                    <polygon
                       fill="#ffcc33"
                       fill-opacity="1"
                       id="polygon14"
                       transform="matrix(1.5159598,0,0,1.568926,-5.2784314,-7.233634)"
                       points="81,59 75,53 88,53 88,47 75,47 81,41 73,41 64,50 73,59 " />
                  </g>
                </g>
              </g>
            </g>
          </g>
        </g>
      </g>
    </g>
  </g>
  <g
     style="fill:#ffffff"
     id="g42"
     transform="scale(1.1199445,0.89290136)">
    <path
       style="fill:#ffffff"
       id="path18"
       fill-opacity="1"
       fill="#000000"
       d="m 10.718125,171.9993 4.662913,0 0,-24.09172 1.45716,0 0,-3.69147 -1.45716,0 0,-1.70002 c 0,-0.68001 0.09714,-1.36002 0.825724,-1.40859 l 0.631436,0 0,-3.69147 -2.622889,0 c -2.865745,0 -3.497184,1.45716 -3.497184,3.30289 l 0,3.49719 -1.4571606,0 0,3.69147 1.4571606,0 0,24.09172" />
    <path
       style="fill:#ffffff"
       id="path20"
       fill-opacity="1"
       fill="#000000"
       d="m 18.148124,171.9993 4.662913,0 0,-22.44027 c 0,-0.77715 0.04857,-1.70002 1.214301,-1.70002 0.971439,0 1.020012,0.92287 1.020012,1.70002 l 0,9.18011 4.662913,0 0,-9.56869 c 0,-2.91431 0.09714,-5.29435 -3.594329,-5.29435 -1.262871,0 -2.525745,0.63144 -3.205753,1.94288 l -0.09714,0 0,-1.60287 -4.662913,0 0,27.78319" />
    <path
       style="fill:#ffffff"
       id="path22"
       fill-opacity="1"
       fill="#000000"
       d="m 38.516493,161.0706 0,6.50865 c 0,1.26287 -0.437149,1.36001 -1.117157,1.36001 -0.680007,0 -1.117156,-0.0971 -1.117156,-1.36001 l 0,-8.84011 6.897226,0 0,-10.20012 c 0,-2.86575 -2.234316,-4.66292 -5.78007,-4.66292 -3.545753,0 -5.780069,1.79717 -5.780069,4.66292 l 0,19.13737 c 0,2.86574 2.234316,4.66291 5.780069,4.66291 3.545754,0 5.78007,-1.79717 5.78007,-4.66291 l 0,-6.60579 -4.662913,0 m 0,-5.58579 -2.234313,0 0,-6.84865 c 0,-1.26287 0.437149,-1.36002 1.117156,-1.36002 0.680008,0 1.117157,0.0971 1.117157,1.36002 l 0,6.84865" />
    <path
       style="fill:#ffffff"
       id="path24"
       fill-opacity="1"
       fill="#000000"
       d="m 50.044758,171.9993 0,-27.78319 -4.662913,0 0,27.78319 4.662913,0 m 0,-34.58327 -4.662913,0 0,4.95434 4.662913,0 0,-4.95434" />
    <path
       style="fill:#ffffff"
       id="path26"
       fill-opacity="1"
       fill="#000000"
       d="m 53.0289,171.9993 4.662913,0 0,-24.09172 1.457161,0 0,-3.69147 -1.457161,0 0,-1.70002 c 0,-0.68001 0.09714,-1.36002 0.825725,-1.40859 l 0.631436,0 0,-3.69147 -2.622889,0 c -2.865746,0 -3.497185,1.45716 -3.497185,3.30289 l 0,3.49719 -1.45716,0 0,3.69147 1.45716,0 0,24.09172" />
    <path
       style="fill:#ffffff"
       id="path28"
       fill-opacity="1"
       fill="#000000"
       d="m 72.019036,144.21611 -4.662913,0 0,22.44027 c 0,0.77715 -0.04857,1.70002 -1.214301,1.70002 -0.971439,0 -1.020012,-0.92287 -1.020012,-1.70002 l 0,-22.44027 -4.662913,0 0,22.82884 c 0,2.91432 -0.09714,5.29435 3.594329,5.29435 1.262871,0 2.525745,-0.63144 3.205753,-1.94288 l 0.09714,0 0,1.60288 4.662913,0 0,-27.78319" />
    <path
       style="fill:#ffffff"
       id="path30"
       fill-opacity="1"
       fill="#000000"
       d="m 73.930043,171.9993 4.662913,0 0,-22.44027 c 0,-0.77715 0.04857,-1.70002 1.2143,-1.70002 0.971439,0 1.020012,0.92287 1.020012,1.70002 l 0,22.44027 4.662913,0 0,-23.12028 c 0,-2.91432 -0.04858,-5.00292 -3.594328,-5.00292 -1.262871,0 -2.525746,0.63144 -3.205753,1.94288 l -0.09714,0 0,-1.60287 -4.662913,0 0,27.78319" />
    <path
       style="fill:#ffffff"
       id="path32"
       fill-opacity="1"
       fill="#000000"
       d="m 92.161246,171.9993 0,-14.62018 0.194288,0 2.574316,14.62018 4.760057,0 -2.817176,-15.25161 2.67146,-12.53158 -4.662913,0 -2.525744,12.77444 -0.194288,0 0,-19.57452 -4.662913,0 0,34.58327 4.662913,0" />
    <path
       style="fill:#ffffff"
       id="path34"
       fill-opacity="1"
       fill="#000000"
       d="m 106.36096,171.9993 0,-5.3915 -4.8572,0 0,5.3915 4.8572,0" />
    <path
       style="fill:#ffffff"
       id="path36"
       fill-opacity="1"
       fill="#000000"
       d="m 108.93605,171.9993 4.66291,0 0,-22.44027 c 0,-0.77715 0.0486,-1.70002 1.2143,-1.70002 0.97144,0 1.02001,0.92287 1.02001,1.70002 l 0,22.44027 4.66292,0 0,-23.12028 c 0,-2.91432 -0.0486,-5.00292 -3.59433,-5.00292 -1.26287,0 -2.52575,0.63144 -3.20576,1.94288 l -0.0971,0 0,-1.60287 -4.66291,0 0,27.78319" />
    <path
       style="fill:#ffffff"
       id="path38"
       fill-opacity="1"
       fill="#000000"
       d="m 129.30441,161.0706 0,6.50865 c 0,1.26287 -0.43715,1.36001 -1.11716,1.36001 -0.68,0 -1.11715,-0.0971 -1.11715,-1.36001 l 0,-8.84011 6.89722,0 0,-10.20012 c 0,-2.86575 -2.23431,-4.66292 -5.78007,-4.66292 -3.54575,0 -5.78006,1.79717 -5.78006,4.66292 l 0,19.13737 c 0,2.86574 2.23431,4.66291 5.78006,4.66291 3.54576,0 5.78007,-1.79717 5.78007,-4.66291 l 0,-6.60579 -4.66291,0 m 0,-5.58579 -2.23431,0 0,-6.84865 c 0,-1.26287 0.43715,-1.36002 1.11715,-1.36002 0.68001,0 1.11716,0.0971 1.11716,1.36002 l 0,6.84865" />
    <path
       style="fill:#ffffff"
       id="path40"
       fill-opacity="1"
       fill="#000000"
       d="m 141.22125,139.21319 -4.66291,0 0,5.00292 -1.36002,0 0,3.69147 1.36002,0 0,20.40025 c 0,1.06858 0.63144,3.69147 3.49718,3.69147 l 2.67146,0 0,-3.69147 -0.48572,0 c -0.48572,0 -1.02001,-0.14572 -1.02001,-2.23432 l 0,-18.16593 1.50573,0 0,-3.69147 -1.50573,0 0,-5.00292" />
  </g>
</svg>
